<?xml version="1.0" encoding="utf-8"?>
<!-- Generator: Adobe Illustrator 27.5.0, SVG Export Plug-In . SVG Version: 6.00 Build 0)  -->
<svg version="1.1" id="Layer_1" xmlns="http://www.w3.org/2000/svg" xmlns:xlink="http://www.w3.org/1999/xlink" x="0px" y="0px"
	 width="192px" height="192px" viewBox="0 0 192 192" style="enable-background:new 0 0 192 192;" xml:space="preserve">
<style type="text/css">
	.st0{fill:#002836;}
</style>
<g>
	<path class="st0" d="M102.3,98.5c4.5-2.3,7.7-7,7.7-12.5c0-7.7-6.3-14-14-14s-14,6.3-14,14c0,5.6,3.3,10.4,8,12.6
		c-12.8,2.7-13,13.2-13,13.4c0,0.5,0.5,1,1,1s1-0.5,1-1c0-0.5,0.2-12,17.5-12c17.2,0,17.5,11.5,17.5,12c0,0.5,0.5,1,1,1s1-0.5,1-1
		C116,111.9,115.8,101,102.3,98.5z M96,98c-6.6,0-12-5.4-12-12s5.4-12,12-12s12,5.4,12,12S102.6,98,96,98z"/>
</g>
<g>
	<path class="st0" d="M147.3,104.5c4.5-2.3,7.7-7,7.7-12.5c0-7.7-6.3-14-14-14s-14,6.3-14,14c0,5.6,3.3,10.4,8,12.6
		c-12.8,2.7-13,13.2-13,13.4c0,0.5,0.5,1,1,1s1-0.5,1-1c0-0.5,0.2-12,17.5-12c17.2,0,17.5,11.5,17.5,12c0,0.5,0.5,1,1,1s1-0.5,1-1
		C161,117.9,160.8,107,147.3,104.5z M141,104c-6.6,0-12-5.4-12-12s5.4-12,12-12s12,5.4,12,12S147.6,104,141,104z"/>
</g>
<g>
	<path class="st0" d="M57,104.6c4.7-2.3,8-7.1,8-12.6c0-7.7-6.3-14-14-14s-14,6.3-14,14c0,5.5,3.1,10.2,7.7,12.5
		C31.2,107,31,117.9,31,118c0,0.5,0.5,1,1,1s1-0.5,1-1c0-0.5,0.2-12,17.5-12c17.2,0,17.5,11.5,17.5,12c0,0.5,0.5,1,1,1s1-0.5,1-1
		C70,117.9,69.8,107.3,57,104.6z M39,92c0-6.6,5.4-12,12-12s12,5.4,12,12s-5.4,12-12,12S39,98.6,39,92z"/>
</g>
<g>
	<path class="st0" d="M167,126h-26v-9.6c0-0.9-1.1-1.3-1.7-0.7L129,126H25c-3.3,0-6,2.7-6,6v35c0,3.3,2.7,6,6,6h142c3.3,0,6-2.7,6-6
		v-35C173,128.7,170.3,126,167,126z M39,157c-4.4,0-8-3.6-8-8s3.6-8,8-8s8,3.6,8,8S43.4,157,39,157z M126,157H64c-0.5,0-1-0.5-1-1
		s0.5-1,1-1h62c0.5,0,1,0.5,1,1S126.5,157,126,157z M160,150H64c-0.5,0-1-0.5-1-1s0.5-1,1-1h96c0.5,0,1,0.5,1,1S160.5,150,160,150z
		 M160,143H64c-0.5,0-1-0.5-1-1s0.5-1,1-1h96c0.5,0,1,0.5,1,1S160.5,143,160,143z"/>
</g>
<g>
	<path class="st0" d="M166,19H26c-3.9,0-7,3.1-7,7v31c0,3.9,3.1,7,7,7h25v9.6c0,0.9,1.1,1.3,1.7,0.7L63,64h103c3.9,0,7-3.1,7-7V26
		C173,22.1,169.9,19,166,19z M171,57c0,2.8-2.2,5-5,5H26c-2.8,0-5-2.2-5-5V26c0-2.8,2.2-5,5-5h140c2.8,0,5,2.2,5,5V57z"/>
	<path class="st0" d="M127,49c0,0.5-0.5,1-1,1H64c-0.5,0-1-0.5-1-1s0.5-1,1-1h62C126.5,48,127,48.5,127,49z"/>
	<path class="st0" d="M161,42c0,0.5-0.5,1-1,1H64c-0.5,0-1-0.5-1-1s0.5-1,1-1h96C160.5,41,161,41.5,161,42z"/>
	<path class="st0" d="M161,35c0,0.5-0.5,1-1,1H64c-0.5,0-1-0.5-1-1s0.5-1,1-1h96C160.5,34,161,34.5,161,35z"/>
	<circle class="st0" cx="39" cy="42" r="8"/>
</g>
</svg>
