<?xml version="1.0" encoding="UTF-8"?>
<svg id="Layer_2" data-name="Layer 2" xmlns="http://www.w3.org/2000/svg" viewBox="0 0 192 192">
  <defs>
    <style>
      .cls-1 {
        fill: #005a5b;
      }
    </style>
  </defs>
  <path class="cls-1" d="m99,25.5H33c-3.86,0-7,3.14-7,7v96c0,3.86,3.14,7,7,7h66c3.86,0,7-3.14,7-7V32.5c0-3.86-3.14-7-7-7Zm5,103c0,2.76-2.24,5-5,5H33c-2.76,0-5-2.24-5-5V32.5c0-2.76,2.24-5,5-5h66c2.76,0,5,2.24,5,5v96Z"/>
  <path class="cls-1" d="m159,109.5h-26c-3.86,0-7,3.14-7,7v43c0,3.86,3.14,7,7,7h26c3.86,0,7-3.14,7-7v-43c0-3.86-3.14-7-7-7Zm5,50c0,2.76-2.24,5-5,5h-26c-2.76,0-5-2.24-5-5v-43c0-2.76,2.24-5,5-5h26c2.76,0,5,2.24,5,5v43Z"/>
  <path class="cls-1" d="m114.52,155.39l-8.9-5.37c-.57-.34-1.23-.52-1.91-.52H29.46c-1.86,0-3.38,1.35-3.38,3v10c0,1.65,1.52,3,3.38,3h74.33c.61,0,1.21-.14,1.73-.42l8.83-4.63c1-.53,1.62-1.46,1.65-2.5.03-1.03-.52-1.99-1.48-2.56Zm-1.1,3.29l-8.83,4.63c-.23.12-.51.19-.8.19H29.46c-.75,0-1.38-.46-1.38-1v-10c0-.54.63-1,1.38-1h74.25c.32,0,.62.08.87.23l8.91,5.37c.33.2.52.49.51.79-.01.31-.22.6-.58.79Z"/>
  <path class="cls-1" d="m159,25.5h-38c-3.86,0-7,3.14-7,7v62c0,3.86,3.14,7,7,7h38c3.86,0,7-3.14,7-7v-62c0-3.86-3.14-7-7-7Zm-43,69v-62c0-1.03.31-1.98.84-2.78l23.91,33.23c.21.34.21.76.02,1.06l-23.93,33.27c-.53-.8-.84-1.75-.84-2.78Zm48,0c0,2.76-2.24,5-5,5h-38c-1,0-1.94-.3-2.72-.8l24.14-33.56c.65-1,.65-2.28-.02-3.32l-24.12-33.52c.78-.5,1.72-.8,2.72-.8h38c2.76,0,5,2.24,5,5v62Z"/>
  <path class="cls-1" d="m51,37.5h-10c-1.65,0-3,1.35-3,3v10c0,1.65,1.35,3,3,3h10c1.65,0,3-1.35,3-3v-10c0-1.65-1.35-3-3-3Zm1,13c0,.55-.45,1-1,1h-10c-.55,0-1-.45-1-1v-10c0-.55.45-1,1-1h10c.55,0,1,.45,1,1v10Z"/>
  <path class="cls-1" d="m139,150.5h-4c-1.65,0-3,1.35-3,3v4c0,1.65,1.35,3,3,3h4c1.65,0,3-1.35,3-3v-4c0-1.65-1.35-3-3-3Zm1,7c0,.55-.45,1-1,1h-4c-.55,0-1-.45-1-1v-4c0-.55.45-1,1-1h4c.55,0,1,.45,1,1v4Z"/>
</svg>