<?xml version="1.0" encoding="utf-8"?>
<!-- Generator: Adobe Illustrator 27.5.0, SVG Export Plug-In . SVG Version: 6.00 Build 0)  -->
<svg version="1.1" id="Layer_1" xmlns="http://www.w3.org/2000/svg" xmlns:xlink="http://www.w3.org/1999/xlink" x="0px" y="0px"
	 width="192px" height="192px" viewBox="0 0 192 192" style="enable-background:new 0 0 192 192;" xml:space="preserve">
<style type="text/css">
	.st0{fill:#002836;}
</style>
<path class="st0" d="M69.2,114.2c-0.7-0.6-1.4-1-2.3-1.2c-0.1,0-0.3-0.1-0.4-0.1c0.1,0,0.3,0,0.4,0.1
	C67.7,113.2,68.5,113.6,69.2,114.2c0.4,0.4,0.8,0.8,1,1.2C70,115,69.6,114.5,69.2,114.2z"/>
<path class="st0" d="M79.7,90.6c0,1.8-1.5,3.3-3.2,3.3c-1.8,0-3.3-1.5-3.3-3.2c0-1.8,1.5-3.3,3.2-3.3C78.2,87.3,79.7,88.8,79.7,90.6
	z"/>
<path class="st0" d="M151.2,53.7c0,0.5-0.4,1-1,1H85.1c-0.5,0-1-0.5-1-1s0.5-1,1-1h65.1C150.8,52.7,151.2,53.1,151.2,53.7z"/>
<path class="st0" d="M153.5,44H71c-4.1,0-7.5,3.4-7.5,7.5v49.7H38.3c-4,0-7.3,3.2-7.3,7.2v27.3c0,4,3.2,7.3,7.2,7.3h0.1v8
	c-0.1,0.5,0.3,1,0.9,1.1c0.3,0,0.7-0.1,0.9-0.4l8.7-8.7h32.4c4,0,7.3-3.2,7.3-7.2v-20.4h65c4.2,0,7.5-3.4,7.5-7.5V51.5
	C161,47.4,157.6,44,153.5,44z M68.6,124.2l-8.8,8.8l-8.8-8.8c-6.6-6.6,2.2-15.4,8.8-8.8c1.4-1.5,3.4-2.5,5.4-2.6
	c0.4,0,0.8,0,1.2,0.1c0.1,0,0.3,0,0.4,0.1c0.8,0.2,1.6,0.6,2.3,1.2c0.4,0.4,0.8,0.8,1.1,1.2C71.7,117.7,71.7,121.1,68.6,124.2z
	 M159,107.9c0,3-2.5,5.5-5.5,5.5h-65v-4.9c0-0.6-0.1-1.2-0.2-1.8h61.9c0.6,0,1-0.5,1-1c0-0.6-0.4-1-1-1H87.5
	c-1.3-2.2-3.7-3.6-6.3-3.6H65.5V51.5c0-3,2.5-5.5,5.5-5.5h82.5c3,0,5.5,2.5,5.5,5.5V107.9z"/>
<path class="st0" d="M103.5,62.4c0,0.5-0.4,1-1,1H85.1c-0.5,0-1-0.5-1-1s0.5-1,1-1h17.4C103,61.4,103.5,61.8,103.5,62.4z"/>
<path class="st0" d="M151.2,97.1c0,0.5-0.4,1-1,1h-17.4c-0.5,0-1-0.5-1-1s0.5-1,1-1h17.4C150.8,96.1,151.2,96.5,151.2,97.1z"/>
<path class="st0" d="M151.2,71c0,0.5-0.4,1-1,1h-17.4c-0.5,0-1-0.5-1-1s0.5-1,1-1h17.4C150.8,70,151.2,70.5,151.2,71z"/>
<path class="st0" d="M103.5,88.4c0,0.5-0.4,1-1,1H85.1c-0.5,0-1-0.5-1-1c0-0.6,0.5-1,1-1h17.4C103,87.4,103.5,87.8,103.5,88.4z"/>
<path class="st0" d="M151.2,62.4c0,0.5-0.4,1-1,1H109c-0.5,0-1-0.5-1-1s0.5-1,1-1h41.2C150.8,61.4,151.2,61.8,151.2,62.4z"/>
<path class="st0" d="M127.4,97.1c0,0.5-0.5,1-1,1H85.1c-0.5,0-1-0.5-1-1s0.5-1,1-1h41.2C126.9,96.1,127.4,96.5,127.4,97.1z"/>
<path class="st0" d="M127.4,71c0,0.5-0.5,1-1,1H85.1c-0.5,0-1-0.5-1-1s0.5-1,1-1h41.2C126.9,70,127.4,70.5,127.4,71z"/>
<path class="st0" d="M151.2,88.4c0,0.5-0.4,1-1,1H109c-0.5,0-1-0.5-1-1c0-0.6,0.5-1,1-1h41.2C150.8,87.4,151.2,87.8,151.2,88.4z"/>
<path class="st0" d="M79.7,55.8c0,1.8-1.5,3.3-3.3,3.3c-1.8,0-3.3-1.5-3.3-3.3s1.5-3.3,3.3-3.3C78.2,52.6,79.7,54,79.7,55.8z"/>
</svg>
