<?xml version="1.0" encoding="UTF-8"?>
<svg id="Layer_2" data-name="Layer 2" xmlns="http://www.w3.org/2000/svg" viewBox="0 0 192 192">
  <defs>
    <style>
      .cls-1 {
        fill: #005a5b;
      }
    </style>
  </defs>
  <path class="cls-1" d="m165,32.09H27c-3.86,0-7,3.14-7,7v113.91c0,3.86,3.14,7,7,7h138c3.86,0,7-3.14,7-7V39.09c0-3.86-3.14-7-7-7Zm5,120.91c0,2.76-2.24,5-5,5H27c-2.76,0-5-2.24-5-5V44.09h148v108.91Zm0-110.91H22v-3c0-2.76,2.24-5,5-5h138c2.76,0,5,2.24,5,5v3Z"/>
  <path class="cls-1" d="m85,86h-50c-1.65,0-3,1.35-3,3v58c0,1.65,1.35,3,3,3h50c1.65,0,3-1.35,3-3v-58c0-1.65-1.35-3-3-3Zm1,61c0,.55-.45,1-1,1h-50c-.55,0-1-.45-1-1v-58c0-.55.45-1,1-1h50c.55,0,1,.45,1,1v58Z"/>
  <path class="cls-1" d="m157,52H35c-1.65,0-3,1.35-3,3v20c0,1.65,1.35,3,3,3h122c1.65,0,3-1.35,3-3v-20c0-1.65-1.35-3-3-3Zm1,23c0,.55-.45,1-1,1H35c-.55,0-1-.45-1-1v-20c0-.55.45-1,1-1h122c.55,0,1,.45,1,1v20Z"/>
  <path class="cls-1" d="m157,86h-58c-1.65,0-3,1.35-3,3v58c0,1.65,1.35,3,3,3h58c1.65,0,3-1.35,3-3v-58c0-1.65-1.35-3-3-3Zm1,61c0,.55-.45,1-1,1h-58c-.55,0-1-.45-1-1v-58c0-.55.45-1,1-1h58c.55,0,1,.45,1,1v58Z"/>
  <g>
    <path class="cls-1" d="m120.59,115.08c.32-.16.52-.48.52-.83v-.17c0-.69-.72-1.13-1.33-.82l-9.46,4.82c-.3.15-.5.47-.5.81v.28c0,.35.2.66.5.82l9.46,4.82c.61.31,1.33-.13,1.33-.82v-.18c0-.35-.2-.67-.52-.82l-8.07-3.89v-.13l8.07-3.89Z"/>
    <path class="cls-1" d="m130.65,107.26c-.42,0-.78.27-.89.67l-5.29,19.66c-.02.08-.03.16-.03.24,0,.49.39.91.91.91.42,0,.78-.27.89-.67l5.29-19.66c.02-.08.03-.16.03-.23,0-.49-.39-.92-.91-.92Z"/>
    <path class="cls-1" d="m145.68,118.08l-9.46-4.82c-.61-.31-1.33.13-1.33.82v.17c0,.35.2.67.52.83l8.07,3.89v.13l-8.07,3.89c-.32.15-.52.47-.52.82v.18c0,.69.72,1.13,1.33.82l9.46-4.82c.3-.16.5-.47.5-.82v-.28c0-.34-.2-.66-.5-.81Z"/>
  </g>
</svg>