<?xml version="1.0" encoding="UTF-8"?>
<svg id="Layer_2" data-name="Layer 2" xmlns="http://www.w3.org/2000/svg" viewBox="0 0 192 192">
  <defs>
    <style>
      .cls-1 {
        fill: #005a5b;
      }
    </style>
  </defs>
  <path class="cls-1" d="m159,95h-19.01c-.53-23.47-19.52-42.46-42.99-42.99v-19.01c0-.55-.45-1-1-1s-1,.45-1,1v19.01c-23.47.53-42.46,19.52-42.99,42.99h-19.01c-.55,0-1,.45-1,1s.45,1,1,1h19.01c.53,23.47,19.52,42.46,42.99,42.99v19.01c0,.55.45,1,1,1s1-.45,1-1v-19.01c23.47-.53,42.46-19.52,42.99-42.99h19.01c.55,0,1-.45,1-1s-.45-1-1-1Zm-64,42.99c-22.37-.53-40.46-18.62-40.99-40.99h40.99v40.99Zm0-42.99h-40.99c.53-22.37,18.62-40.46,40.99-40.99v40.99Zm2,42.99v-40.99h40.99c-.53,22.37-18.62,40.46-40.99,40.99Zm0-42.99v-40.99c22.37.53,40.46,18.62,40.99,40.99h-40.99Z"/>
</svg>