<?xml version="1.0" encoding="utf-8"?>
<!-- Generator: Adobe Illustrator 27.5.0, SVG Export Plug-In . SVG Version: 6.00 Build 0)  -->
<svg version="1.1" id="Layer_1" xmlns="http://www.w3.org/2000/svg" xmlns:xlink="http://www.w3.org/1999/xlink" x="0px" y="0px"
	 width="192px" height="192px" viewBox="0 0 192 192" style="enable-background:new 0 0 192 192;" xml:space="preserve">
<style type="text/css">
	.st0{fill:#002836;}
	.st1{fill-rule:evenodd;clip-rule:evenodd;fill:#002836;}
	.st2{fill-rule:evenodd;clip-rule:evenodd;fill:#FFFFFF;}
</style>
<g>
	<path class="st0" d="M158,127H34c-1.7,0-3,1.3-3,3v28c0,1.7,1.3,3,3,3h124c1.7,0,3-1.3,3-3v-28C161,128.3,159.7,127,158,127z
		 M159,158c0,0.5-0.5,1-1,1H34c-0.5,0-1-0.5-1-1v-28c0-0.5,0.5-1,1-1h124c0.5,0,1,0.5,1,1V158z"/>
	<path class="st0" d="M152,142v4c0,0.5-0.5,1-1,1s-1-0.5-1-1v-4c0-0.5,0.5-1,1-1S152,141.5,152,142z"/>
	<path class="st0" d="M148,142v4c0,0.5-0.5,1-1,1s-1-0.5-1-1v-4c0-0.5,0.5-1,1-1S148,141.5,148,142z"/>
	<path class="st0" d="M144,135v18c0,0.5-0.5,1-1,1s-1-0.5-1-1v-18c0-0.5,0.5-1,1-1S144,134.5,144,135z"/>
	<path class="st0" d="M140,142v4c0,0.5-0.5,1-1,1s-1-0.5-1-1v-4c0-0.5,0.5-1,1-1S140,141.5,140,142z"/>
	<path class="st0" d="M136,138v12c0,0.5-0.5,1-1,1s-1-0.5-1-1v-12c0-0.5,0.5-1,1-1S136,137.5,136,138z"/>
	<path class="st0" d="M132,135v18c0,0.5-0.5,1-1,1s-1-0.5-1-1v-18c0-0.5,0.5-1,1-1S132,134.5,132,135z"/>
	<path class="st0" d="M128,140v8c0,0.5-0.5,1-1,1s-1-0.5-1-1v-8c0-0.5,0.5-1,1-1S128,139.5,128,140z"/>
	<path class="st0" d="M124,142v4c0,0.5-0.5,1-1,1s-1-0.5-1-1v-4c0-0.5,0.5-1,1-1S124,141.5,124,142z"/>
	<path class="st0" d="M120,138v12c0,0.5-0.5,1-1,1s-1-0.5-1-1v-12c0-0.5,0.5-1,1-1S120,137.5,120,138z"/>
	<path class="st0" d="M116,138v12c0,0.5-0.5,1-1,1s-1-0.5-1-1v-12c0-0.5,0.5-1,1-1S116,137.5,116,138z"/>
	<path class="st0" d="M112,135v18c0,0.5-0.5,1-1,1s-1-0.5-1-1v-18c0-0.5,0.5-1,1-1S112,134.5,112,135z"/>
	<path class="st0" d="M108,142v4c0,0.5-0.5,1-1,1s-1-0.5-1-1v-4c0-0.5,0.5-1,1-1S108,141.5,108,142z"/>
	<path class="st0" d="M104,140v8c0,0.5-0.5,1-1,1s-1-0.5-1-1v-8c0-0.5,0.5-1,1-1S104,139.5,104,140z"/>
	<path class="st0" d="M100,135v18c0,0.5-0.5,1-1,1s-1-0.5-1-1v-18c0-0.5,0.5-1,1-1S100,134.5,100,135z"/>
	<path class="st0" d="M96,142v4c0,0.5-0.5,1-1,1s-1-0.5-1-1v-4c0-0.5,0.5-1,1-1S96,141.5,96,142z"/>
	<path class="st0" d="M92,142v4c0,0.5-0.5,1-1,1s-1-0.5-1-1v-4c0-0.5,0.5-1,1-1S92,141.5,92,142z"/>
	<path class="st0" d="M88,135v18c0,0.5-0.5,1-1,1s-1-0.5-1-1v-18c0-0.5,0.5-1,1-1S88,134.5,88,135z"/>
	<path class="st0" d="M84,142v4c0,0.5-0.5,1-1,1s-1-0.5-1-1v-4c0-0.5,0.5-1,1-1S84,141.5,84,142z"/>
	<path class="st0" d="M80,138v12c0,0.5-0.5,1-1,1s-1-0.5-1-1v-12c0-0.5,0.5-1,1-1S80,137.5,80,138z"/>
	<path class="st0" d="M76,135v18c0,0.5-0.5,1-1,1s-1-0.5-1-1v-18c0-0.5,0.5-1,1-1S76,134.5,76,135z"/>
	<path class="st0" d="M72,140v8c0,0.5-0.5,1-1,1s-1-0.5-1-1v-8c0-0.5,0.5-1,1-1S72,139.5,72,140z"/>
	<path class="st0" d="M68,142v4c0,0.5-0.5,1-1,1s-1-0.5-1-1v-4c0-0.5,0.5-1,1-1S68,141.5,68,142z"/>
	<path class="st0" d="M64,138v12c0,0.5-0.5,1-1,1s-1-0.5-1-1v-12c0-0.5,0.5-1,1-1S64,137.5,64,138z"/>
	<path class="st0" d="M60,138v12c0,0.5-0.5,1-1,1s-1-0.5-1-1v-12c0-0.5,0.5-1,1-1S60,137.5,60,138z"/>
	<path class="st0" d="M56,135v18c0,0.5-0.5,1-1,1s-1-0.5-1-1v-18c0-0.5,0.5-1,1-1S56,134.5,56,135z"/>
	<path class="st0" d="M52,142v4c0,0.5-0.5,1-1,1s-1-0.5-1-1v-4c0-0.5,0.5-1,1-1S52,141.5,52,142z"/>
	<path class="st0" d="M48,140v8c0,0.5-0.5,1-1,1s-1-0.5-1-1v-8c0-0.5,0.5-1,1-1S48,139.5,48,140z"/>
	<path class="st0" d="M44,135v18c0,0.5-0.5,1-1,1s-1-0.5-1-1v-18c0-0.5,0.5-1,1-1S44,134.5,44,135z"/>
</g>
<g>
	<path class="st0" d="M95,79H35c-1.7,0-3,1.3-3,3v28c0,1.7,1.3,3,3,3h60c1.7,0,3-1.3,3-3V82C98,80.3,96.7,79,95,79z M84,103h-1v1
		c0,1.1-0.9,2-2,2h-2c-1.1,0-2-0.9-2-2v-1H46c-0.5,0-1-0.5-1-1s0.5-1,1-1h31v-1c0-1.1,0.9-2,2-2h2c1.1,0,2,0.9,2,2v1h1
		c0.5,0,1,0.5,1,1S84.5,103,84,103z M84,91H53v1c0,1.1-0.9,2-2,2h-2c-1.1,0-2-0.9-2-2v-1h-1c-0.5,0-1-0.5-1-1s0.5-1,1-1h1v-1
		c0-1.1,0.9-2,2-2h2c1.1,0,2,0.9,2,2v1h31c0.5,0,1,0.5,1,1S84.5,91,84,91z"/>
</g>
<g>
	<rect x="49" y="88" class="st0" width="2" height="4"/>
</g>
<g>
	<rect x="79" y="100" class="st0" width="2" height="4"/>
</g>
<g>
	<path class="st0" d="M95,31H35c-1.7,0-3,1.3-3,3v28c0,1.7,1.3,3,3,3h60c1.7,0,3-1.3,3-3V34C98,32.3,96.7,31,95,31z M96,62
		c0,0.5-0.5,1-1,1H35c-0.5,0-1-0.5-1-1V34c0-0.5,0.5-1,1-1h60c0.5,0,1,0.5,1,1V62z"/>
</g>
<g>
	<path class="st0" d="M70.5,48.9l-9,5.2C60.8,54.5,60,54,60,53.2V42.8c0-0.8,0.8-1.2,1.5-0.9l9,5.2C71.2,47.5,71.2,48.5,70.5,48.9z"
		/>
</g>
<g>
	<path class="st1" d="M162,54c0,7.9-3.9,14.8-10,18.9c-0.7,0.5-1,1.2-1,2.1c0,3,0,5.2-0.2,6.9c-0.2,1.7-0.6,2.8-1.3,3.6
		C148,87,145,87,139,87s-9,0-10.5-1.5S127,81,127,75c0-0.8-0.4-1.6-1-2.1c-6-4.1-10-11.1-10-18.9c0-12.7,10.3-23,23-23
		S162,41.3,162,54z"/>
</g>
<g>
	<path class="st0" d="M150,92c0,0.5-0.5,1-1,1h-20c-0.5,0-1-0.5-1-1s0.5-1,1-1h20C149.5,91,150,91.5,150,92z"/>
</g>
<g>
	<path class="st0" d="M150,98c0,0.5-0.5,1-1,1h-20c-0.5,0-1-0.5-1-1s0.5-1,1-1h20C149.5,97,150,97.5,150,98z"/>
</g>
<g>
	<path class="st0" d="M146,104c0,0.5-0.5,1-1,1h-12c-0.5,0-1-0.5-1-1s0.5-1,1-1h12C145.5,103,146,103.5,146,104z"/>
</g>
<g>
	<path class="st2" d="M105.8,20.4l1.2,1.2v0L105.8,20.4z"/>
	<rect x="138" y="109" class="st1" width="2" height="14"/>
	<path class="st1" d="M140,165v1c0,3.9-3.1,7-7,7H27c-3.9,0-7-3.1-7-7V26c0-3.9,3.1-7,7-7h77c0.3,0,0.5,0.1,0.7,0.3l1.1,1.1l1.2,1.2
		l12.7,12.7c0.4,0.4,0.4,1,0,1.4c-0.2,0.2-0.5,0.3-0.7,0.3s-0.5-0.1-0.7-0.3L103.6,21H27c-2.8,0-5,2.2-5,5v140c0,2.8,2.2,5,5,5h106
		c2.8,0,5-2.2,5-5v-1H140z"/>
</g>
<g>
	<path class="st0" d="M171.7,22.7l-13,13c-0.2,0.2-0.5,0.3-0.7,0.3s-0.5-0.1-0.7-0.3c-0.4-0.4-0.4-1,0-1.4l13-13
		c0.4-0.4,1-0.4,1.4,0C172.1,21.7,172.1,22.3,171.7,22.7z"/>
</g>
<g>
	<path class="st0" d="M173.7,85.7c-0.2,0.2-0.5,0.3-0.7,0.3s-0.5-0.1-0.7-0.3l-12-12c-0.4-0.4-0.4-1,0-1.4c0.4-0.4,1-0.4,1.4,0
		l12,12C174.1,84.7,174.1,85.3,173.7,85.7z"/>
</g>
<g>
	<path class="st0" d="M117.7,73.7l-12,12c-0.2,0.2-0.5,0.3-0.7,0.3s-0.5-0.1-0.7-0.3c-0.4-0.4-0.4-1,0-1.4l12-12
		c0.4-0.4,1-0.4,1.4,0C118.1,72.7,118.1,73.3,117.7,73.7z"/>
</g>
<g>
	<path class="st0" d="M174,53c0,0.5-0.5,1-1,1h-8c-0.5,0-1-0.5-1-1s0.5-1,1-1h8C173.5,52,174,52.5,174,53z"/>
</g>
<g>
	<path class="st0" d="M114,53c0,0.5-0.5,1-1,1h-8c-0.5,0-1-0.5-1-1s0.5-1,1-1h8C113.5,52,114,52.5,114,53z"/>
</g>
<g>
	<path class="st0" d="M140,20v7c0,0.5-0.5,1-1,1s-1-0.5-1-1v-7c0-0.5,0.5-1,1-1S140,19.5,140,20z"/>
</g>
</svg>
