<?xml version="1.0" encoding="utf-8"?>
<!-- Generator: Adobe Illustrator 27.5.0, SVG Export Plug-In . SVG Version: 6.00 Build 0)  -->
<svg version="1.1" id="Layer_1" xmlns="http://www.w3.org/2000/svg" xmlns:xlink="http://www.w3.org/1999/xlink" x="0px" y="0px"
	 width="192px" height="192px" viewBox="0 0 192 192" style="enable-background:new 0 0 192 192;" xml:space="preserve">
<style type="text/css">
	.st0{fill:#002836;}
</style>
<g>
	<path class="st0" d="M109.4,66H123l-16.3,56.3c-0.3,1.1-0.9,1.9-1.7,2.6c-0.8,0.7-1.8,1.1-3,1.1H90c-1.2,0-2.2-0.4-3-1.1
		s-1.3-1.6-1.6-2.6L69,66h13.6l12.2,49c0,0.2,0.2,0.3,0.4,0.3h1.7c0.2,0,0.3-0.1,0.4-0.3L109.4,66z"/>
</g>
<g>
	<path class="st0" d="M173,106v60c0,3.9-3.1,7-7,7h-60c-0.5,0-1-0.5-1-1s0.5-1,1-1h60c2.8,0,5-2.2,5-5v-60c0-0.5,0.5-1,1-1
		S173,105.5,173,106z"/>
</g>
<g>
	<path class="st0" d="M87,20c0,0.5-0.5,1-1,1H26c-2.8,0-5,2.2-5,5v60c0,0.5-0.5,1-1,1s-1-0.5-1-1V26c0-3.9,3.1-7,7-7h60
		C86.5,19,87,19.5,87,20z"/>
</g>
<g>
	<path class="st0" d="M87,172c0,0.5-0.5,1-1,1H26c-3.9,0-7-3.1-7-7v-60c0-0.5,0.5-1,1-1s1,0.5,1,1v60c0,2.8,2.2,5,5,5h60
		C86.5,171,87,171.5,87,172z"/>
</g>
<g>
	<path class="st0" d="M173,26v60c0,0.5-0.5,1-1,1s-1-0.5-1-1V26c0-2.8-2.2-5-5-5h-60c-0.5,0-1-0.5-1-1s0.5-1,1-1h60
		C169.9,19,173,22.1,173,26z"/>
</g>
<g>
	<path class="st0" d="M161,32v16c0,0.5-0.5,1-1,1s-1-0.5-1-1V34.4l-14.3,14.3c-0.2,0.2-0.5,0.3-0.7,0.3s-0.5-0.1-0.7-0.3
		c-0.4-0.4-0.4-1,0-1.4L157.6,33H144c-0.5,0-1-0.5-1-1s0.5-1,1-1h16c0.1,0,0.2,0,0.2,0h0.1c0.1,0,0.2,0.1,0.3,0.2s0.2,0.2,0.2,0.3
		v0.1C161,31.8,161,31.9,161,32z"/>
</g>
<g>
	<path class="st0" d="M172.6,96c0,0.1,0,0.2,0,0.2v0.1c0,0.1-0.1,0.1-0.1,0.2c0,0-0.1,0.1-0.1,0.2l0,0L161,108
		c-0.2,0.2-0.5,0.3-0.7,0.3s-0.5-0.1-0.7-0.3c-0.4-0.4-0.4-1,0-1.4l9.6-9.6H149c-0.5,0-1-0.5-1-1s0.5-1,1-1h20.2l-9.6-9.6
		c-0.4-0.4-0.4-1,0-1.4s1-0.4,1.4,0l11.3,11.3l0,0c0,0.1,0.1,0.1,0.1,0.2s0.1,0.1,0.1,0.2v0.1C172.6,95.8,172.6,95.9,172.6,96z"/>
</g>
<g>
	<path class="st0" d="M49,160c0,0.5-0.5,1-1,1H32c-0.1,0-0.2,0-0.2,0h-0.1c-0.1,0-0.2-0.1-0.3-0.2c-0.1-0.1-0.2-0.2-0.2-0.3v-0.1
		c0-0.1,0-0.2,0-0.2v-16c0-0.5,0.5-1,1-1c0.5,0,1,0.5,1,1v13.6l14.3-14.3c0.4-0.4,1-0.4,1.4,0s0.4,1,0,1.4L34.4,159H48
		C48.5,159,49,159.5,49,160z"/>
</g>
<g>
	<path class="st0" d="M43.6,96c0,0.5-0.5,1-1,1H22.4l9.6,9.6c0.4,0.4,0.4,1,0,1.4c-0.2,0.2-0.5,0.3-0.7,0.3s-0.5-0.1-0.7-0.3
		L19.3,96.7C19.1,96.5,19,96.3,19,96s0.1-0.5,0.3-0.7L30.6,84c0.4-0.4,1-0.4,1.4,0c0.4,0.4,0.4,1,0,1.4L22.4,95h20.2
		C43.2,95,43.6,95.5,43.6,96z"/>
</g>
<g>
	<path class="st0" d="M48.7,48.7C48.5,48.9,48.3,49,48,49s-0.5-0.1-0.7-0.3L33,34.4V48c0,0.5-0.5,1-1,1s-1-0.5-1-1V32
		c0-0.1,0-0.2,0-0.2v-0.1c0-0.1,0.1-0.2,0.2-0.3c0.1-0.1,0.2-0.2,0.3-0.2h0.1c0.1,0,0.2,0,0.2,0h16c0.5,0,1,0.5,1,1c0,0.5-0.5,1-1,1
		H34.4l14.3,14.3C49.1,47.7,49.1,48.3,48.7,48.7z"/>
</g>
<g>
	<path class="st0" d="M108,32c-0.2,0.2-0.5,0.3-0.7,0.3s-0.5-0.1-0.7-0.3L97,22.4v20.2c0,0.5-0.5,1-1,1s-1-0.5-1-1V22.4L85.4,32
		c-0.4,0.4-1,0.4-1.4,0c-0.4-0.4-0.4-1,0-1.4l11.3-11.3c0.1-0.1,0.2-0.2,0.3-0.2h0.1c0.1,0,0.2,0,0.2,0h0.2h0.1
		c0.1,0,0.2,0.1,0.3,0.2L108,30.6C108.4,31,108.4,31.6,108,32z"/>
</g>
<g>
	<path class="st0" d="M161,144v16c0,0.1,0,0.2,0,0.2v0.1c0,0.1-0.1,0.2-0.2,0.3c-0.1,0.1-0.2,0.2-0.3,0.2h-0.1c-0.1,0-0.2,0-0.2,0
		h-16c-0.5,0-1-0.5-1-1s0.5-1,1-1h13.6l-14.3-14.3c-0.4-0.4-0.4-1,0-1.4s1-0.4,1.4,0l14.3,14.3V144c0-0.5,0.5-1,1-1
		S161,143.5,161,144z"/>
</g>
<g>
	<path class="st0" d="M108,161l-11.3,11.3l0,0c-0.1,0-0.1,0.1-0.2,0.1s-0.1,0.1-0.2,0.1h-0.1c-0.1,0-0.2,0-0.2,0h-0.2h-0.1
		c-0.1,0-0.1-0.1-0.2-0.1c0,0-0.1-0.1-0.2-0.1l0,0L84,161c-0.4-0.4-0.4-1,0-1.4s1-0.4,1.4,0l9.6,9.6V149c0-0.5,0.5-1,1-1s1,0.5,1,1
		v20.2l9.6-9.6c0.4-0.4,1-0.4,1.4,0C108.4,160,108.4,160.6,108,161z"/>
</g>
</svg>
