<?xml version="1.0" encoding="UTF-8"?>
<svg id="Layer_2" data-name="Layer 2" xmlns="http://www.w3.org/2000/svg" viewBox="0 0 192 192">
  <defs>
    <style>
      .cls-1 {
        fill: #005a5b;
      }
    </style>
  </defs>
  <g>
    <path class="cls-1" d="m122,101c0,.55-.45,1-1,1h-50c-.55,0-1-.45-1-1s.45-1,1-1h50c.55,0,1,.45,1,1Z"/>
    <path class="cls-1" d="m122,111.67c0,.55-.45,1-1,1h-50c-.55,0-1-.45-1-1s.45-1,1-1h50c.55,0,1,.44,1,1Z"/>
    <path class="cls-1" d="m122,122.33c0,.56-.45,1-1,1h-50c-.55,0-1-.44-1-1s.45-1,1-1h50c.55,0,1,.45,1,1Z"/>
    <path class="cls-1" d="m122,133c0,.55-.45,1-1,1h-50c-.55,0-1-.45-1-1s.45-1,1-1h50c.55,0,1,.45,1,1Z"/>
  </g>
  <path class="cls-1" d="m122,32h-52c-3.86,0-7,3.14-7,7v114c0,3.86,3.14,7,7,7h52c3.86,0,7-3.14,7-7V39c0-3.86-3.14-7-7-7Zm5,121c0,2.76-2.24,5-5,5h-52c-2.76,0-5-2.24-5-5V44h62v109Zm0-111h-62v-3c0-2.76,2.24-5,5-5h52c2.76,0,5,2.24,5,5v3Z"/>
  <path class="cls-1" d="m102,38c0,.55-.45,1-1,1h-10c-.55,0-1-.45-1-1s.45-1,1-1h10c.55,0,1,.45,1,1Z"/>
  <g>
    <path class="cls-1" d="m120.58,51.45c-.1-.06-.2-.11-.31-.16-.38-.19-.82-.29-1.27-.29h-46c-.45,0-.89.1-1.27.29-.11.05-.21.1-.31.16-.85.53-1.42,1.48-1.42,2.55v34c0,1.07.57,2.02,1.42,2.55.1.06.2.11.31.16.38.19.82.29,1.27.29h46c.45,0,.89-.1,1.27-.29.11-.05.21-.1.31-.16.85-.53,1.42-1.48,1.42-2.55v-34c0-1.07-.57-2.02-1.42-2.55Zm-2.56,1.55l-22.02,16.74-22.02-16.74h44.04Zm-46.02,34.98v-33.96l22.34,16.98-22.34,16.98Zm1.98,1.02l22.02-16.74,22.02,16.74h-44.04Zm46.02-1.02l-22.34-16.98,22.34-16.98v33.96Z"/>
    <path class="cls-1" d="m120.58,51.45c-.1-.06-.2-.11-.31-.16l.12-.09.19.25Z"/>
  </g>
  <path class="cls-1" d="m89,139h-16c-1.65,0-3,1.35-3,3v6c0,1.65,1.35,3,3,3h16c1.65,0,3-1.35,3-3v-6c0-1.65-1.35-3-3-3Zm1,9c0,.55-.45,1-1,1h-16c-.55,0-1-.45-1-1v-6c0-.55.45-1,1-1h16c.55,0,1,.45,1,1v6Z"/>
  <path class="cls-1" d="m119,139h-16c-1.65,0-3,1.35-3,3v6c0,1.65,1.35,3,3,3h16c1.65,0,3-1.35,3-3v-6c0-1.65-1.35-3-3-3Zm1,9c0,.55-.45,1-1,1h-16c-.55,0-1-.45-1-1v-6c0-.55.45-1,1-1h16c.55,0,1,.45,1,1v6Z"/>
</svg>