<svg width="36" height="35" viewBox="0 0 36 35" fill="none" xmlns="http://www.w3.org/2000/svg">
<path d="M35.1016 2.71094V2.66797C35.1302 2.72526 35.1589 2.79688 35.1875 2.88281C35.2161 2.9401 35.2305 3.01172 35.2305 3.09766V32.4023C35.2305 33.0898 34.987 33.6771 34.5 34.1641C34.0417 34.6224 33.4688 34.8516 32.7812 34.8516H18.1289C16.8971 34.8516 15.6797 34.8516 14.4766 34.8516C13.2448 34.8516 12.013 34.8516 10.7812 34.8516C9.57812 34.8516 8.36068 34.8516 7.12891 34.8516C5.89714 34.8516 4.67969 34.8516 3.47656 34.8516C3.44792 34.8516 3.41927 34.8516 3.39062 34.8516C3.36198 34.8516 3.34766 34.8516 3.34766 34.8516C2.66016 34.8516 2.07292 34.6224 1.58594 34.1641C1.1276 33.6771 0.898438 33.0898 0.898438 32.4023C0.898438 29.9674 0.898438 27.5326 0.898438 25.0977C0.898438 22.6341 0.898438 20.1992 0.898438 17.793C0.898438 15.3581 0.898438 12.9232 0.898438 10.4883C0.898438 8.05339 0.898438 5.64714 0.898438 3.26953C0.898438 3.24089 0.898438 3.21224 0.898438 3.18359C0.898438 3.15495 0.898438 3.1263 0.898438 3.09766C0.898438 2.41016 1.1276 1.83724 1.58594 1.37891C2.07292 0.891927 2.66016 0.648438 3.34766 0.648438C3.3763 0.648438 3.40495 0.648438 3.43359 0.648438C3.46224 0.648438 3.49089 0.648438 3.51953 0.648438H32.5234C32.5521 0.648438 32.5807 0.648438 32.6094 0.648438C32.638 0.648438 32.6667 0.648438 32.6953 0.648438C33.2969 0.648438 33.8268 0.848958 34.2852 1.25C34.7435 1.6224 35.0156 2.10938 35.1016 2.71094ZM11.082 29.5664L10.9961 13.7969C10.9961 13.625 10.9674 13.5247 10.9102 13.4961C10.8815 13.4674 10.7956 13.4531 10.6523 13.4531H6.3125C6.11198 13.4531 5.98307 13.4818 5.92578 13.5391C5.89714 13.5677 5.88281 13.668 5.88281 13.8398V29.6094C5.88281 29.8099 5.91146 29.9245 5.96875 29.9531C6.02604 29.9818 6.14062 29.9961 6.3125 29.9961H10.6953C10.8958 29.9961 11.0104 29.9674 11.0391 29.9102C11.0677 29.8529 11.082 29.7383 11.082 29.5664ZM8.63281 11.3906L8.50391 11.2617C9.30599 11.2617 9.99349 10.9753 10.5664 10.4023C11.168 9.80078 11.4688 9.09896 11.4688 8.29688C11.4401 7.52344 11.1536 6.86458 10.6094 6.32031C10.0651 5.77604 9.40625 5.48958 8.63281 5.46094C7.85938 5.51823 7.21484 5.83333 6.69922 6.40625C6.18359 6.97917 5.92578 7.65234 5.92578 8.42578C5.92578 9.19922 6.18359 9.8724 6.69922 10.4453C7.21484 11.0182 7.85938 11.3333 8.63281 11.3906ZM29.7305 29.9531C29.8737 29.9531 29.9883 29.9245 30.0742 29.8672C30.1602 29.7812 30.2031 29.6667 30.2031 29.5234C30.2031 27.9193 30.2031 26.3151 30.2031 24.7109C30.2031 23.1068 30.2031 21.5026 30.2031 19.8984V19.8555C30.1745 19.3398 30.1029 18.8385 29.9883 18.3516C29.9023 17.8646 29.7878 17.4062 29.6445 16.9766C29.4727 16.1172 29.0859 15.3581 28.4844 14.6992C27.8828 14.0404 27.1523 13.5964 26.293 13.3672H26.4219C26.1068 13.3099 25.7917 13.2526 25.4766 13.1953C25.1901 13.138 24.875 13.0951 24.5312 13.0664H24.5742C24.431 13.0378 24.3021 13.0234 24.1875 13.0234C24.0729 13.0234 23.9583 13.0234 23.8438 13.0234C23.013 13.0234 22.2253 13.2096 21.4805 13.582C20.7643 13.9258 20.1484 14.3984 19.6328 15C19.5469 15.0859 19.4609 15.1862 19.375 15.3008C19.3177 15.3867 19.2461 15.5013 19.1602 15.6445C19.1602 15.3294 19.1602 15 19.1602 14.6562C19.1602 14.3125 19.1602 14.0404 19.1602 13.8398C19.1602 13.6393 19.1315 13.5247 19.0742 13.4961C19.0169 13.4674 18.9167 13.4531 18.7734 13.4531H14.5625C14.3906 13.4531 14.276 13.4818 14.2188 13.5391C14.1901 13.5964 14.1758 13.6966 14.1758 13.8398V29.5664C14.1758 29.7956 14.2044 29.9245 14.2617 29.9531C14.319 29.9818 14.4336 29.9961 14.6055 29.9961H18.9883C19.2174 29.9961 19.3464 29.9674 19.375 29.9102C19.4036 29.8529 19.418 29.7383 19.418 29.5664C19.418 28.2773 19.418 26.9883 19.418 25.6992C19.418 24.3815 19.418 23.0781 19.418 21.7891V21.832C19.418 21.6888 19.4036 21.5456 19.375 21.4023C19.375 21.2591 19.375 21.1159 19.375 20.9727C19.375 20.8294 19.375 20.7005 19.375 20.5859C19.4036 20.4427 19.418 20.2995 19.418 20.1562C19.4753 19.4401 19.7617 18.8385 20.2773 18.3516C20.8216 17.8646 21.4518 17.6211 22.168 17.6211C22.3112 17.6211 22.4544 17.6354 22.5977 17.6641C22.7409 17.6641 22.8698 17.6784 22.9844 17.707C23.4714 17.793 23.8724 18.0221 24.1875 18.3945C24.5312 18.7669 24.7174 19.1966 24.7461 19.6836V19.5977C24.8034 19.9701 24.8464 20.3424 24.875 20.7148C24.9036 21.0872 24.9323 21.474 24.9609 21.875C24.9609 23.1354 24.9609 24.4245 24.9609 25.7422C24.9609 27.0312 24.9609 28.306 24.9609 29.5664C24.9609 29.7669 24.9753 29.8815 25.0039 29.9102C25.0612 29.9388 25.1758 29.9531 25.3477 29.9531H29.7305Z" fill="#222222"/>
</svg>
