<svg width="736" height="56" viewBox="0 0 736 56" fill="none" xmlns="http://www.w3.org/2000/svg">
<path d="M30.409 28.5215C30.409 29.9942 30.1348 31.4903 29.5865 33.01C29.0382 34.5297 28.2 35.9397 27.072 37.24C25.9597 38.5247 24.5497 39.5587 22.842 40.342C21.1343 41.1253 19.129 41.517 16.826 41.517C13.7083 41.517 11.045 40.7572 8.836 39.2375C6.64267 37.7022 4.96633 35.595 3.807 32.916C2.66333 30.237 2.0915 27.1585 2.0915 23.6805C2.0915 20.1868 2.66333 17.1005 3.807 14.4215C4.96633 11.7425 6.64267 9.64317 8.836 8.1235C11.045 6.60383 13.7083 5.844 16.826 5.844C19.411 5.844 21.62 6.3375 23.453 7.3245C25.286 8.3115 26.7508 9.5805 27.8475 11.1315C28.9442 12.6825 29.6805 14.304 30.0565 15.996C30.2915 16.983 30.409 17.923 30.409 18.816H24.1815C24.1815 18.3617 24.1502 17.8917 24.0875 17.406C23.9152 16.2153 23.5157 15.1343 22.889 14.163C22.278 13.176 21.4633 12.4005 20.445 11.8365C19.4267 11.2568 18.2203 10.967 16.826 10.967C15.1653 10.967 13.7005 11.4292 12.4315 12.3535C11.1782 13.2778 10.1912 14.68 9.4705 16.56C8.74983 18.44 8.3895 20.8135 8.3895 23.6805C8.3895 26.5162 8.74983 28.8818 9.4705 30.7775C10.1912 32.6732 11.1782 34.091 12.4315 35.031C13.7005 35.971 15.1653 36.441 16.826 36.441C18.0167 36.441 19.0663 36.2217 19.975 35.783C20.8837 35.3443 21.6513 34.7568 22.278 34.0205C22.9047 33.2685 23.3747 32.4225 23.688 31.4825C24.017 30.5425 24.1815 29.5555 24.1815 28.5215H30.409ZM44.5751 41.47C42.8048 41.47 41.3321 41.1723 40.1571 40.577C38.9978 39.9817 38.0813 39.1983 37.4076 38.227C36.7496 37.2557 36.2796 36.1825 35.9976 35.0075C35.7313 33.8325 35.5981 32.6575 35.5981 31.4825C35.5981 30.9028 35.5981 30.2997 35.5981 29.673C35.5981 29.0463 35.5981 28.4118 35.5981 27.7695V16.043H41.8021V26.806C41.8021 27.37 41.8021 27.9105 41.8021 28.4275C41.8021 28.9445 41.8021 29.4302 41.8021 29.8845C41.8021 30.9968 41.9353 32.0308 42.2016 32.9865C42.4679 33.9265 42.9536 34.6863 43.6586 35.266C44.3793 35.8457 45.3898 36.1355 46.6901 36.1355C47.9278 36.1355 48.9931 35.7752 49.8861 35.0545C50.7791 34.3182 51.4684 33.3938 51.9541 32.2815C52.4554 31.1692 52.7061 30.0412 52.7061 28.8975L54.8211 30.3075C54.8211 31.8272 54.5861 33.2607 54.1161 34.608C53.6461 35.9397 52.9646 37.1225 52.0716 38.1565C51.1786 39.1905 50.0976 40.0052 48.8286 40.6005C47.5753 41.1802 46.1574 41.47 44.5751 41.47ZM52.7061 41V16.043H58.8866V41H52.7061ZM76.3034 41.47C75.4104 41.47 74.5017 41.3838 73.5774 41.2115C72.6531 41.0392 71.8071 40.718 71.0394 40.248C70.2717 39.778 69.6529 39.0887 69.1829 38.18C68.7129 37.2713 68.4779 36.0728 68.4779 34.5845C68.4779 34.2398 68.4779 33.8952 68.4779 33.5505C68.4779 33.1902 68.4779 32.822 68.4779 32.446V20.978H62.5794V16.043H64.9764C65.7911 16.043 66.4334 16.0117 66.9034 15.949C67.3734 15.8707 67.7181 15.6983 67.9374 15.432C68.1567 15.1657 68.2977 14.7505 68.3604 14.1865C68.4387 13.6068 68.4779 12.8078 68.4779 11.7895V7.818H74.6819V16.043H82.1079V20.978H74.6819V30.989C74.6819 31.2867 74.6819 31.5843 74.6819 31.882C74.6819 32.164 74.6819 32.4382 74.6819 32.7045C74.6819 33.8638 74.8229 34.796 75.1049 35.501C75.3869 36.206 76.0527 36.5585 77.1024 36.5585C77.6037 36.5585 78.0737 36.5115 78.5124 36.4175C78.9667 36.3235 79.3036 36.2295 79.5229 36.1355V40.9765C79.2252 41.0862 78.7944 41.1958 78.2304 41.3055C77.6664 41.4152 77.0241 41.47 76.3034 41.47ZM96.2692 41.47C95.3762 41.47 94.4676 41.3838 93.5432 41.2115C92.6189 41.0392 91.7729 40.718 91.0052 40.248C90.2376 39.778 89.6187 39.0887 89.1487 38.18C88.6787 37.2713 88.4437 36.0728 88.4437 34.5845C88.4437 34.2398 88.4437 33.8952 88.4437 33.5505C88.4437 33.1902 88.4437 32.822 88.4437 32.446V20.978H82.5452V16.043H84.9422C85.7569 16.043 86.3992 16.0117 86.8692 15.949C87.3392 15.8707 87.6839 15.6983 87.9032 15.432C88.1226 15.1657 88.2636 14.7505 88.3262 14.1865C88.4046 13.6068 88.4437 12.8078 88.4437 11.7895V7.818H94.6477V16.043H102.074V20.978H94.6477V30.989C94.6477 31.2867 94.6477 31.5843 94.6477 31.882C94.6477 32.164 94.6477 32.4382 94.6477 32.7045C94.6477 33.8638 94.7887 34.796 95.0707 35.501C95.3527 36.206 96.0186 36.5585 97.0682 36.5585C97.5696 36.5585 98.0396 36.5115 98.4782 36.4175C98.9326 36.3235 99.2694 36.2295 99.4887 36.1355V40.9765C99.1911 41.0862 98.7602 41.1958 98.1962 41.3055C97.6322 41.4152 96.9899 41.47 96.2692 41.47ZM106.623 41V16.043H112.733V41H106.623ZM109.702 11.437C108.699 11.437 107.822 11.1707 107.07 10.638C106.333 10.0897 105.965 9.32983 105.965 8.3585C105.965 7.40283 106.333 6.65867 107.07 6.126C107.822 5.59333 108.699 5.327 109.702 5.327C110.689 5.327 111.55 5.59333 112.287 6.126C113.023 6.65867 113.391 7.40283 113.391 8.3585C113.391 9.32983 113.023 10.0897 112.287 10.638C111.55 11.1707 110.689 11.437 109.702 11.437ZM136.506 41V29.9315C136.506 29.3048 136.506 28.7565 136.506 28.2865C136.506 27.8008 136.506 27.3622 136.506 26.9705C136.506 25.8425 136.342 24.832 136.013 23.939C135.7 23.0303 135.151 22.3175 134.368 21.8005C133.6 21.2835 132.535 21.025 131.172 21.025C129.981 21.025 128.924 21.3148 127.999 21.8945C127.075 22.4585 126.347 23.2418 125.814 24.2445C125.297 25.2315 125.038 26.3752 125.038 27.6755L122.947 26.383C122.947 24.2993 123.417 22.4507 124.357 20.837C125.313 19.2077 126.589 17.9308 128.187 17.0065C129.785 16.0822 131.556 15.62 133.498 15.62C135.504 15.62 137.188 16.0117 138.551 16.795C139.93 17.5783 140.964 18.6907 141.653 20.132C142.358 21.5733 142.71 23.2653 142.71 25.208C142.71 25.96 142.71 26.806 142.71 27.746C142.71 28.686 142.71 29.6103 142.71 30.519V41H136.506ZM118.858 41V16.043H125.038V41H118.858ZM165.425 38.5325C166.898 38.6735 168.19 38.9477 169.302 39.355C170.415 39.7623 171.284 40.3655 171.911 41.1645C172.538 41.9792 172.851 43.0602 172.851 44.4075C172.851 45.9115 172.342 47.2118 171.323 48.3085C170.305 49.4052 168.809 50.2512 166.835 50.8465C164.877 51.4418 162.464 51.7395 159.597 51.7395C155.43 51.7395 152.226 51.1363 149.985 49.93C147.745 48.7393 146.625 47.1178 146.625 45.0655C146.625 44.4858 146.695 43.961 146.836 43.491C146.977 43.021 147.15 42.6293 147.353 42.316L153.017 43.1385C152.923 43.2638 152.829 43.4597 152.735 43.726C152.641 44.008 152.594 44.3448 152.594 44.7365C152.594 45.7078 153.244 46.405 154.544 46.828C155.86 47.2667 157.607 47.486 159.785 47.486C161.383 47.486 162.715 47.3763 163.78 47.157C164.861 46.9377 165.676 46.6243 166.224 46.217C166.788 45.8097 167.07 45.3318 167.07 44.7835C167.07 43.9688 166.702 43.444 165.965 43.209C165.229 42.974 164.352 42.8173 163.333 42.739L153.863 41.8695C152.171 41.6972 150.777 41.1958 149.68 40.3655C148.599 39.5352 148.058 38.4385 148.058 37.0755C148.058 36.2452 148.278 35.4775 148.716 34.7725C149.171 34.0675 149.688 33.48 150.267 33.01C150.847 32.5243 151.341 32.2267 151.748 32.117L155.273 33.856C154.944 33.903 154.552 34.1145 154.098 34.4905C153.659 34.8665 153.44 35.313 153.44 35.83C153.44 36.3157 153.659 36.723 154.098 37.052C154.537 37.3653 155.383 37.5847 156.636 37.71L165.425 38.5325ZM168.221 16.043H173.767L171.511 25.725C171.088 27.5423 170.407 29.1717 169.467 30.613C168.527 32.0543 167.274 33.1902 165.707 34.0205C164.14 34.8508 162.166 35.266 159.785 35.266C157.31 35.266 155.171 34.8665 153.369 34.0675C151.583 33.2528 150.205 32.117 149.233 30.66C148.262 29.1873 147.776 27.4953 147.776 25.584C147.776 23.6257 148.27 21.9023 149.257 20.414C150.26 18.91 151.63 17.735 153.369 16.889C155.124 16.043 157.106 15.62 159.315 15.62C161.101 15.62 162.707 15.9177 164.132 16.513C165.558 17.0927 166.694 17.8525 167.54 18.7925C168.402 19.7325 168.864 20.7352 168.926 21.8005L167.54 22.059L168.221 16.043ZM159.761 30.4955C160.968 30.4955 162.01 30.2997 162.887 29.908C163.764 29.5163 164.446 28.9523 164.931 28.216C165.417 27.464 165.66 26.5553 165.66 25.49C165.66 24.4403 165.417 23.5395 164.931 22.7875C164.446 22.0355 163.764 21.4637 162.887 21.072C162.01 20.6647 160.976 20.461 159.785 20.461C158.626 20.461 157.599 20.6647 156.706 21.072C155.813 21.4793 155.108 22.0668 154.591 22.8345C154.09 23.5865 153.839 24.4873 153.839 25.537C153.839 26.5867 154.082 27.4875 154.568 28.2395C155.069 28.9758 155.759 29.5398 156.636 29.9315C157.529 30.3075 158.571 30.4955 159.761 30.4955ZM176.707 29.6025V25.772H193.557V29.6025H176.707ZM202.126 30.519V26.1245H219.586L218.881 27.2995C218.881 27.2055 218.881 27.1037 218.881 26.994C218.881 26.8687 218.881 26.7668 218.881 26.6885C218.881 25.6075 218.638 24.597 218.153 23.657C217.667 22.7013 216.931 21.9337 215.944 21.354C214.957 20.7587 213.703 20.461 212.184 20.461C210.68 20.461 209.372 20.7822 208.259 21.4245C207.163 22.0512 206.309 22.9598 205.698 24.1505C205.102 25.3412 204.805 26.7668 204.805 28.4275C204.805 30.1352 205.095 31.6078 205.674 32.8455C206.254 34.0675 207.1 35.0075 208.212 35.6655C209.34 36.3078 210.711 36.629 212.325 36.629C213.421 36.629 214.369 36.5272 215.168 36.3235C215.967 36.1198 216.617 35.8457 217.119 35.501C217.636 35.1407 218.02 34.7568 218.27 34.3495C218.537 33.9422 218.693 33.5348 218.74 33.1275H224.897C224.803 34.1772 224.451 35.2033 223.84 36.206C223.244 37.193 222.406 38.0938 221.325 38.9085C220.244 39.7075 218.928 40.3498 217.377 40.8355C215.842 41.3055 214.087 41.5405 212.113 41.5405C209.434 41.5405 207.092 40.9922 205.087 39.8955C203.081 38.7988 201.515 37.2713 200.387 35.313C199.274 33.3547 198.718 31.1143 198.718 28.592C198.718 26.007 199.282 23.7432 200.41 21.8005C201.554 19.8578 203.136 18.346 205.157 17.265C207.178 16.1683 209.497 15.62 212.113 15.62C214.808 15.62 217.134 16.1683 219.093 17.265C221.067 18.3617 222.586 19.8892 223.652 21.8475C224.717 23.7902 225.25 26.054 225.25 28.639C225.25 28.968 225.242 29.3205 225.226 29.6965C225.211 30.0725 225.187 30.3467 225.156 30.519H202.126ZM240.709 41.517C238.656 41.517 236.753 41.0235 234.998 40.0365C233.259 39.0338 231.865 37.5612 230.815 35.6185C229.765 33.6758 229.241 31.2867 229.241 28.451C229.241 25.6937 229.773 23.3593 230.839 21.448C231.92 19.5367 233.33 18.0875 235.069 17.1005C236.823 16.1135 238.703 15.62 240.709 15.62C242.667 15.62 244.476 16.1057 246.137 17.077C247.798 18.0327 249.129 19.3643 250.132 21.072C251.135 22.7797 251.636 24.738 251.636 26.947C251.636 27.0097 251.636 27.0723 251.636 27.135C251.636 27.1977 251.636 27.2603 251.636 27.323L248.581 27.3935C248.581 27.3465 248.581 27.2995 248.581 27.2525C248.581 27.1898 248.581 27.135 248.581 27.088C248.581 25.8503 248.268 24.7693 247.641 23.845C247.03 22.9207 246.231 22.2 245.244 21.683C244.273 21.1503 243.239 20.884 242.142 20.884C240.34 20.884 238.805 21.495 237.536 22.717C236.267 23.9233 235.633 25.8347 235.633 28.451C235.633 31.0517 236.267 32.9708 237.536 34.2085C238.805 35.4462 240.34 36.065 242.142 36.065C243.286 36.065 244.343 35.7908 245.315 35.2425C246.286 34.6942 247.069 33.9422 247.665 32.9865C248.276 32.0152 248.581 30.9028 248.581 29.6495L251.636 29.7905C251.636 31.9838 251.143 33.9735 250.156 35.7595C249.184 37.5298 247.876 38.932 246.231 39.966C244.586 41 242.745 41.517 240.709 41.517ZM248.581 41V4.2695H254.785V41H248.581ZM277.647 38.5325C279.119 38.6735 280.412 38.9477 281.524 39.355C282.636 39.7623 283.506 40.3655 284.133 41.1645C284.759 41.9792 285.073 43.0602 285.073 44.4075C285.073 45.9115 284.563 47.2118 283.545 48.3085C282.527 49.4052 281.031 50.2512 279.057 50.8465C277.098 51.4418 274.686 51.7395 271.819 51.7395C267.651 51.7395 264.447 51.1363 262.207 49.93C259.967 48.7393 258.847 47.1178 258.847 45.0655C258.847 44.4858 258.917 43.961 259.058 43.491C259.199 43.021 259.371 42.6293 259.575 42.316L265.239 43.1385C265.145 43.2638 265.051 43.4597 264.957 43.726C264.863 44.008 264.816 44.3448 264.816 44.7365C264.816 45.7078 265.466 46.405 266.766 46.828C268.082 47.2667 269.829 47.486 272.007 47.486C273.605 47.486 274.936 47.3763 276.002 47.157C277.083 46.9377 277.897 46.6243 278.446 46.217C279.01 45.8097 279.292 45.3318 279.292 44.7835C279.292 43.9688 278.923 43.444 278.187 43.209C277.451 42.974 276.573 42.8173 275.555 42.739L266.085 41.8695C264.393 41.6972 262.998 41.1958 261.902 40.3655C260.821 39.5352 260.28 38.4385 260.28 37.0755C260.28 36.2452 260.499 35.4775 260.938 34.7725C261.392 34.0675 261.909 33.48 262.489 33.01C263.069 32.5243 263.562 32.2267 263.97 32.117L267.495 33.856C267.166 33.903 266.774 34.1145 266.32 34.4905C265.881 34.8665 265.662 35.313 265.662 35.83C265.662 36.3157 265.881 36.723 266.32 37.052C266.758 37.3653 267.604 37.5847 268.858 37.71L277.647 38.5325ZM280.443 16.043H285.989L283.733 25.725C283.31 27.5423 282.629 29.1717 281.689 30.613C280.749 32.0543 279.495 33.1902 277.929 34.0205C276.362 34.8508 274.388 35.266 272.007 35.266C269.531 35.266 267.393 34.8665 265.591 34.0675C263.805 33.2528 262.426 32.117 261.455 30.66C260.484 29.1873 259.998 27.4953 259.998 25.584C259.998 23.6257 260.492 21.9023 261.479 20.414C262.481 18.91 263.852 17.735 265.591 16.889C267.346 16.043 269.328 15.62 271.537 15.62C273.323 15.62 274.928 15.9177 276.354 16.513C277.78 17.0927 278.916 17.8525 279.762 18.7925C280.623 19.7325 281.085 20.7352 281.148 21.8005L279.762 22.059L280.443 16.043ZM271.983 30.4955C273.189 30.4955 274.231 30.2997 275.109 29.908C275.986 29.5163 276.667 28.9523 277.153 28.216C277.639 27.464 277.882 26.5553 277.882 25.49C277.882 24.4403 277.639 23.5395 277.153 22.7875C276.667 22.0355 275.986 21.4637 275.109 21.072C274.231 20.6647 273.197 20.461 272.007 20.461C270.847 20.461 269.821 20.6647 268.928 21.072C268.035 21.4793 267.33 22.0668 266.813 22.8345C266.312 23.5865 266.061 24.4873 266.061 25.537C266.061 26.5867 266.304 27.4875 266.79 28.2395C267.291 28.9758 267.98 29.5398 268.858 29.9315C269.751 30.3075 270.792 30.4955 271.983 30.4955ZM291.444 30.519V26.1245H308.905L308.2 27.2995C308.2 27.2055 308.2 27.1037 308.2 26.994C308.2 26.8687 308.2 26.7668 308.2 26.6885C308.2 25.6075 307.957 24.597 307.471 23.657C306.985 22.7013 306.249 21.9337 305.262 21.354C304.275 20.7587 303.022 20.461 301.502 20.461C299.998 20.461 298.69 20.7822 297.578 21.4245C296.481 22.0512 295.627 22.9598 295.016 24.1505C294.421 25.3412 294.123 26.7668 294.123 28.4275C294.123 30.1352 294.413 31.6078 294.993 32.8455C295.572 34.0675 296.418 35.0075 297.531 35.6655C298.659 36.3078 300.029 36.629 301.643 36.629C302.74 36.629 303.688 36.5272 304.487 36.3235C305.286 36.1198 305.936 35.8457 306.437 35.501C306.954 35.1407 307.338 34.7568 307.589 34.3495C307.855 33.9422 308.012 33.5348 308.059 33.1275H314.216C314.122 34.1772 313.769 35.2033 313.158 36.206C312.563 37.193 311.725 38.0938 310.644 38.9085C309.563 39.7075 308.247 40.3498 306.696 40.8355C305.16 41.3055 303.406 41.5405 301.432 41.5405C298.753 41.5405 296.41 40.9922 294.405 39.8955C292.4 38.7988 290.833 37.2713 289.705 35.313C288.593 33.3547 288.037 31.1143 288.037 28.592C288.037 26.007 288.601 23.7432 289.729 21.8005C290.872 19.8578 292.455 18.346 294.476 17.265C296.497 16.1683 298.815 15.62 301.432 15.62C304.126 15.62 306.453 16.1683 308.411 17.265C310.385 18.3617 311.905 19.8892 312.97 21.8475C314.035 23.7902 314.568 26.054 314.568 28.639C314.568 28.968 314.56 29.3205 314.545 29.6965C314.529 30.0725 314.505 30.3467 314.474 30.519H291.444ZM353.316 16.043L345.49 41H337.195L329.181 16.043H335.573L341.848 38.838H340.861L346.924 16.043H353.316ZM357.183 41V16.043H363.293V41H357.183ZM360.261 11.437C359.259 11.437 358.381 11.1707 357.629 10.638C356.893 10.0897 356.525 9.32983 356.525 8.3585C356.525 7.40283 356.893 6.65867 357.629 6.126C358.381 5.59333 359.259 5.327 360.261 5.327C361.248 5.327 362.11 5.59333 362.846 6.126C363.583 6.65867 363.951 7.40283 363.951 8.3585C363.951 9.32983 363.583 10.0897 362.846 10.638C362.11 11.1707 361.248 11.437 360.261 11.437ZM379.781 41.517C377.729 41.517 375.825 41.0235 374.07 40.0365C372.331 39.0338 370.937 37.5612 369.887 35.6185C368.838 33.6758 368.313 31.2867 368.313 28.451C368.313 25.6937 368.846 23.3593 369.911 21.448C370.992 19.5367 372.402 18.0875 374.141 17.1005C375.896 16.1135 377.776 15.62 379.781 15.62C381.739 15.62 383.549 16.1057 385.209 17.077C386.87 18.0327 388.202 19.3643 389.204 21.072C390.207 22.7797 390.708 24.738 390.708 26.947C390.708 27.0097 390.708 27.0723 390.708 27.135C390.708 27.1977 390.708 27.2603 390.708 27.323L387.653 27.3935C387.653 27.3465 387.653 27.2995 387.653 27.2525C387.653 27.1898 387.653 27.135 387.653 27.088C387.653 25.8503 387.34 24.7693 386.713 23.845C386.102 22.9207 385.303 22.2 384.316 21.683C383.345 21.1503 382.311 20.884 381.214 20.884C379.413 20.884 377.877 21.495 376.608 22.717C375.339 23.9233 374.705 25.8347 374.705 28.451C374.705 31.0517 375.339 32.9708 376.608 34.2085C377.877 35.4462 379.413 36.065 381.214 36.065C382.358 36.065 383.416 35.7908 384.387 35.2425C385.358 34.6942 386.142 33.9422 386.737 32.9865C387.348 32.0152 387.653 30.9028 387.653 29.6495L390.708 29.7905C390.708 31.9838 390.215 33.9735 389.228 35.7595C388.257 37.5298 386.948 38.932 385.303 39.966C383.658 41 381.818 41.517 379.781 41.517ZM387.653 41V4.2695H393.857V41H387.653ZM402.243 30.519V26.1245H419.703L418.998 27.2995C418.998 27.2055 418.998 27.1037 418.998 26.994C418.998 26.8687 418.998 26.7668 418.998 26.6885C418.998 25.6075 418.756 24.597 418.27 23.657C417.784 22.7013 417.048 21.9337 416.061 21.354C415.074 20.7587 413.821 20.461 412.301 20.461C410.797 20.461 409.489 20.7822 408.376 21.4245C407.28 22.0512 406.426 22.9598 405.815 24.1505C405.22 25.3412 404.922 26.7668 404.922 28.4275C404.922 30.1352 405.212 31.6078 405.791 32.8455C406.371 34.0675 407.217 35.0075 408.329 35.6655C409.457 36.3078 410.828 36.629 412.442 36.629C413.539 36.629 414.486 36.5272 415.285 36.3235C416.084 36.1198 416.735 35.8457 417.236 35.501C417.753 35.1407 418.137 34.7568 418.387 34.3495C418.654 33.9422 418.81 33.5348 418.857 33.1275H425.014C424.92 34.1772 424.568 35.2033 423.957 36.206C423.362 37.193 422.523 38.0938 421.442 38.9085C420.361 39.7075 419.045 40.3498 417.494 40.8355C415.959 41.3055 414.204 41.5405 412.23 41.5405C409.551 41.5405 407.209 40.9922 405.204 39.8955C403.199 38.7988 401.632 37.2713 400.504 35.313C399.392 33.3547 398.835 31.1143 398.835 28.592C398.835 26.007 399.399 23.7432 400.527 21.8005C401.671 19.8578 403.253 18.346 405.274 17.265C407.295 16.1683 409.614 15.62 412.23 15.62C414.925 15.62 417.252 16.1683 419.21 17.265C421.184 18.3617 422.704 19.8892 423.769 21.8475C424.834 23.7902 425.367 26.054 425.367 28.639C425.367 28.968 425.359 29.3205 425.343 29.6965C425.328 30.0725 425.304 30.3467 425.273 30.519H402.243ZM442.729 41.4935C440.097 41.4935 437.779 40.9452 435.773 39.8485C433.768 38.7362 432.194 37.2008 431.05 35.2425C429.922 33.2842 429.358 31.0438 429.358 28.5215C429.358 25.9835 429.922 23.751 431.05 21.824C432.194 19.8813 433.768 18.3617 435.773 17.265C437.779 16.1683 440.097 15.62 442.729 15.62C445.361 15.62 447.68 16.1683 449.685 17.265C451.691 18.3617 453.257 19.8813 454.385 21.824C455.529 23.751 456.101 25.9835 456.101 28.5215C456.101 31.0438 455.529 33.2842 454.385 35.2425C453.257 37.2008 451.691 38.7362 449.685 39.8485C447.68 40.9452 445.361 41.4935 442.729 41.4935ZM442.729 36.441C444.155 36.441 445.401 36.112 446.466 35.454C447.531 34.796 448.362 33.8795 448.957 32.7045C449.552 31.5138 449.85 30.1195 449.85 28.5215C449.85 26.9235 449.552 25.5448 448.957 24.3855C448.362 23.2105 447.531 22.3018 446.466 21.6595C445.401 21.0172 444.155 20.696 442.729 20.696C441.319 20.696 440.074 21.0172 438.993 21.6595C437.928 22.3018 437.097 23.2105 436.502 24.3855C435.907 25.5448 435.609 26.9235 435.609 28.5215C435.609 30.1195 435.907 31.5138 436.502 32.7045C437.097 33.8795 437.928 34.796 438.993 35.454C440.074 36.112 441.319 36.441 442.729 36.441ZM472.964 51.2695V16.043H479.145V51.2695H472.964ZM487.017 41.517C485.075 41.517 483.273 41.0157 481.612 40.013C479.967 38.9947 478.636 37.6082 477.617 35.8535C476.615 34.0988 476.113 32.1248 476.113 29.9315C476.113 29.8688 476.113 29.814 476.113 29.767C476.113 29.7043 476.113 29.6495 476.113 29.6025L479.168 29.532C479.168 29.5633 479.168 29.6025 479.168 29.6495C479.168 29.6965 479.168 29.7357 479.168 29.767C479.168 30.989 479.474 32.0778 480.085 33.0335C480.696 33.9735 481.487 34.7177 482.458 35.266C483.445 35.7987 484.495 36.065 485.607 36.065C487.409 36.065 488.944 35.4462 490.213 34.2085C491.482 32.9708 492.117 31.0517 492.117 28.451C492.117 25.8347 491.482 23.9233 490.213 22.717C488.96 21.495 487.425 20.884 485.607 20.884C484.511 20.884 483.469 21.1503 482.482 21.683C481.51 22.2 480.711 22.9207 480.085 23.845C479.474 24.7693 479.168 25.8503 479.168 27.088L476.113 26.947C476.113 24.738 476.615 22.7797 477.617 21.072C478.636 19.3643 479.967 18.0327 481.612 17.077C483.273 16.1057 485.075 15.62 487.017 15.62C489.038 15.62 490.918 16.1135 492.657 17.1005C494.412 18.0875 495.822 19.5367 496.887 21.448C497.968 23.3593 498.509 25.6937 498.509 28.451C498.509 31.2867 497.984 33.6758 496.934 35.6185C495.885 37.5612 494.49 39.0338 492.751 40.0365C491.012 41.0235 489.101 41.517 487.017 41.517ZM503.624 41V16.043H509.805V24.3385L508.371 23.5395C508.528 22.4585 508.818 21.4402 509.241 20.4845C509.664 19.5132 510.228 18.6672 510.933 17.9465C511.638 17.2102 512.492 16.6383 513.494 16.231C514.497 15.8237 515.641 15.62 516.925 15.62C517.944 15.62 518.743 15.6983 519.322 15.855C519.918 15.996 520.286 16.1135 520.427 16.2075L519.299 21.871C519.142 21.7613 518.821 21.6282 518.335 21.4715C517.865 21.2992 517.231 21.213 516.432 21.213C515.163 21.213 514.098 21.4323 513.236 21.871C512.39 22.294 511.716 22.8737 511.215 23.61C510.714 24.3307 510.353 25.1297 510.134 26.007C509.915 26.8687 509.805 27.7303 509.805 28.592V41H503.624ZM536.133 41.4935C533.501 41.4935 531.182 40.9452 529.177 39.8485C527.171 38.7362 525.597 37.2008 524.453 35.2425C523.325 33.2842 522.761 31.0438 522.761 28.5215C522.761 25.9835 523.325 23.751 524.453 21.824C525.597 19.8813 527.171 18.3617 529.177 17.265C531.182 16.1683 533.501 15.62 536.133 15.62C538.765 15.62 541.083 16.1683 543.089 17.265C545.094 18.3617 546.661 19.8813 547.789 21.824C548.932 23.751 549.504 25.9835 549.504 28.5215C549.504 31.0438 548.932 33.2842 547.789 35.2425C546.661 37.2008 545.094 38.7362 543.089 39.8485C541.083 40.9452 538.765 41.4935 536.133 41.4935ZM536.133 36.441C537.558 36.441 538.804 36.112 539.869 35.454C540.935 34.796 541.765 33.8795 542.36 32.7045C542.956 31.5138 543.253 30.1195 543.253 28.5215C543.253 26.9235 542.956 25.5448 542.36 24.3855C541.765 23.2105 540.935 22.3018 539.869 21.6595C538.804 21.0172 537.558 20.696 536.133 20.696C534.723 20.696 533.477 21.0172 532.396 21.6595C531.331 22.3018 530.501 23.2105 529.905 24.3855C529.31 25.5448 529.012 26.9235 529.012 28.5215C529.012 30.1195 529.31 31.5138 529.905 32.7045C530.501 33.8795 531.331 34.796 532.396 35.454C533.477 36.112 534.723 36.441 536.133 36.441ZM564.981 41.517C562.929 41.517 561.025 41.0235 559.271 40.0365C557.532 39.0338 556.137 37.5612 555.088 35.6185C554.038 33.6758 553.513 31.2867 553.513 28.451C553.513 25.6937 554.046 23.3593 555.111 21.448C556.192 19.5367 557.602 18.0875 559.341 17.1005C561.096 16.1135 562.976 15.62 564.981 15.62C566.939 15.62 568.749 16.1057 570.41 17.077C572.07 18.0327 573.402 19.3643 574.405 21.072C575.407 22.7797 575.909 24.738 575.909 26.947C575.909 27.0097 575.909 27.0723 575.909 27.135C575.909 27.1977 575.909 27.2603 575.909 27.323L572.854 27.3935C572.854 27.3465 572.854 27.2995 572.854 27.2525C572.854 27.1898 572.854 27.135 572.854 27.088C572.854 25.8503 572.54 24.7693 571.914 23.845C571.303 22.9207 570.504 22.2 569.517 21.683C568.545 21.1503 567.511 20.884 566.415 20.884C564.613 20.884 563.078 21.495 561.809 22.717C560.54 23.9233 559.905 25.8347 559.905 28.451C559.905 31.0517 560.54 32.9708 561.809 34.2085C563.078 35.4462 564.613 36.065 566.415 36.065C567.558 36.065 568.616 35.7908 569.587 35.2425C570.558 34.6942 571.342 33.9422 571.937 32.9865C572.548 32.0152 572.854 30.9028 572.854 29.6495L575.909 29.7905C575.909 31.9838 575.415 33.9735 574.428 35.7595C573.457 37.5298 572.149 38.932 570.504 39.966C568.859 41 567.018 41.517 564.981 41.517ZM572.854 41V4.2695H579.058V41H572.854ZM594.117 41.47C592.347 41.47 590.874 41.1723 589.699 40.577C588.54 39.9817 587.623 39.1983 586.95 38.227C586.292 37.2557 585.822 36.1825 585.54 35.0075C585.273 33.8325 585.14 32.6575 585.14 31.4825C585.14 30.9028 585.14 30.2997 585.14 29.673C585.14 29.0463 585.14 28.4118 585.14 27.7695V16.043H591.344V26.806C591.344 27.37 591.344 27.9105 591.344 28.4275C591.344 28.9445 591.344 29.4302 591.344 29.8845C591.344 30.9968 591.477 32.0308 591.744 32.9865C592.01 33.9265 592.496 34.6863 593.201 35.266C593.921 35.8457 594.932 36.1355 596.232 36.1355C597.47 36.1355 598.535 35.7752 599.428 35.0545C600.321 34.3182 601.01 33.3938 601.496 32.2815C601.997 31.1692 602.248 30.0412 602.248 28.8975L604.363 30.3075C604.363 31.8272 604.128 33.2607 603.658 34.608C603.188 35.9397 602.507 37.1225 601.614 38.1565C600.721 39.1905 599.64 40.0052 598.371 40.6005C597.117 41.1802 595.699 41.47 594.117 41.47ZM602.248 41V16.043H608.429V41H602.248ZM626.715 41.517C624.083 41.517 621.756 40.9765 619.735 39.8955C617.714 38.8145 616.132 37.2948 614.988 35.3365C613.845 33.3782 613.273 31.083 613.273 28.451C613.273 25.8347 613.845 23.563 614.988 21.636C616.132 19.709 617.714 18.2285 619.735 17.1945C621.756 16.1448 624.083 15.62 626.715 15.62C628.689 15.62 630.436 15.9098 631.955 16.4895C633.475 17.0692 634.752 17.8447 635.786 18.816C636.836 19.7717 637.635 20.8292 638.183 21.9885C638.731 23.1322 639.005 24.2758 639.005 25.4195C639.005 25.4508 639.005 25.4822 639.005 25.5135C639.005 25.5448 639.005 25.5762 639.005 25.6075H632.872C632.872 25.5292 632.864 25.443 632.848 25.349C632.833 25.255 632.817 25.161 632.801 25.067C632.676 24.268 632.355 23.5473 631.838 22.905C631.321 22.247 630.632 21.7222 629.77 21.3305C628.908 20.9388 627.866 20.743 626.644 20.743C625.344 20.743 624.153 21.0328 623.072 21.6125C622.007 22.1765 621.153 23.0303 620.511 24.174C619.884 25.3177 619.571 26.7433 619.571 28.451C619.571 30.143 619.884 31.5843 620.511 32.775C621.138 33.95 621.984 34.8508 623.049 35.4775C624.13 36.0885 625.328 36.394 626.644 36.394C628.039 36.394 629.175 36.1825 630.052 35.7595C630.945 35.3208 631.619 34.7412 632.073 34.0205C632.527 33.2842 632.786 32.4852 632.848 31.6235H639.005C639.005 32.7828 638.739 33.95 638.206 35.125C637.674 36.2843 636.89 37.3497 635.856 38.321C634.822 39.2923 633.538 40.0678 632.002 40.6475C630.483 41.2272 628.72 41.517 626.715 41.517ZM655.312 41.47C654.419 41.47 653.511 41.3838 652.586 41.2115C651.662 41.0392 650.816 40.718 650.048 40.248C649.281 39.778 648.662 39.0887 648.192 38.18C647.722 37.2713 647.487 36.0728 647.487 34.5845C647.487 34.2398 647.487 33.8952 647.487 33.5505C647.487 33.1902 647.487 32.822 647.487 32.446V20.978H641.588V16.043H643.985C644.8 16.043 645.442 16.0117 645.912 15.949C646.382 15.8707 646.727 15.6983 646.946 15.432C647.166 15.1657 647.307 14.7505 647.369 14.1865C647.448 13.6068 647.487 12.8078 647.487 11.7895V7.818H653.691V16.043H661.117V20.978H653.691V30.989C653.691 31.2867 653.691 31.5843 653.691 31.882C653.691 32.164 653.691 32.4382 653.691 32.7045C653.691 33.8638 653.832 34.796 654.114 35.501C654.396 36.206 655.062 36.5585 656.111 36.5585C656.613 36.5585 657.083 36.5115 657.521 36.4175C657.976 36.3235 658.312 36.2295 658.532 36.1355V40.9765C658.234 41.0862 657.803 41.1958 657.239 41.3055C656.675 41.4152 656.033 41.47 655.312 41.47ZM665.666 41V16.043H671.776V41H665.666ZM668.745 11.437C667.742 11.437 666.865 11.1707 666.113 10.638C665.376 10.0897 665.008 9.32983 665.008 8.3585C665.008 7.40283 665.376 6.65867 666.113 6.126C666.865 5.59333 667.742 5.327 668.745 5.327C669.732 5.327 670.593 5.59333 671.33 6.126C672.066 6.65867 672.434 7.40283 672.434 8.3585C672.434 9.32983 672.066 10.0897 671.33 10.638C670.593 11.1707 669.732 11.437 668.745 11.437ZM690.168 41.4935C687.536 41.4935 685.217 40.9452 683.212 39.8485C681.206 38.7362 679.632 37.2008 678.488 35.2425C677.36 33.2842 676.796 31.0438 676.796 28.5215C676.796 25.9835 677.36 23.751 678.488 21.824C679.632 19.8813 681.206 18.3617 683.212 17.265C685.217 16.1683 687.536 15.62 690.168 15.62C692.8 15.62 695.118 16.1683 697.124 17.265C699.129 18.3617 700.696 19.8813 701.824 21.824C702.967 23.751 703.539 25.9835 703.539 28.5215C703.539 31.0438 702.967 33.2842 701.824 35.2425C700.696 37.2008 699.129 38.7362 697.124 39.8485C695.118 40.9452 692.8 41.4935 690.168 41.4935ZM690.168 36.441C691.593 36.441 692.839 36.112 693.904 35.454C694.97 34.796 695.8 33.8795 696.395 32.7045C696.991 31.5138 697.288 30.1195 697.288 28.5215C697.288 26.9235 696.991 25.5448 696.395 24.3855C695.8 23.2105 694.97 22.3018 693.904 21.6595C692.839 21.0172 691.593 20.696 690.168 20.696C688.758 20.696 687.512 21.0172 686.431 21.6595C685.366 22.3018 684.536 23.2105 683.94 24.3855C683.345 25.5448 683.047 26.9235 683.047 28.5215C683.047 30.1195 683.345 31.5138 683.94 32.7045C684.536 33.8795 685.366 34.796 686.431 35.454C687.512 36.112 688.758 36.441 690.168 36.441ZM726.301 41V29.9315C726.301 29.3048 726.301 28.7565 726.301 28.2865C726.301 27.8008 726.301 27.3622 726.301 26.9705C726.301 25.8425 726.137 24.832 725.808 23.939C725.494 23.0303 724.946 22.3175 724.163 21.8005C723.395 21.2835 722.33 21.025 720.967 21.025C719.776 21.025 718.719 21.3148 717.794 21.8945C716.87 22.4585 716.141 23.2418 715.609 24.2445C715.092 25.2315 714.833 26.3752 714.833 27.6755L712.742 26.383C712.742 24.2993 713.212 22.4507 714.152 20.837C715.107 19.2077 716.384 17.9308 717.982 17.0065C719.58 16.0822 721.351 15.62 723.293 15.62C725.299 15.62 726.983 16.0117 728.346 16.795C729.724 17.5783 730.758 18.6907 731.448 20.132C732.153 21.5733 732.505 23.2653 732.505 25.208C732.505 25.96 732.505 26.806 732.505 27.746C732.505 28.686 732.505 29.6103 732.505 30.519V41H726.301ZM708.653 41V16.043H714.833V41H708.653Z" fill="#222222"/>
</svg>
