<svg width="320" height="25" viewBox="0 0 320 25" fill="none" xmlns="http://www.w3.org/2000/svg">
<path d="M12.852 12.6135C12.852 13.2365 12.7365 13.877 12.5055 14.535C12.2745 15.186 11.9245 15.7915 11.4555 16.3515C10.9935 16.9045 10.409 17.3525 9.702 17.6955C8.995 18.0385 8.1655 18.21 7.2135 18.21C5.9045 18.21 4.7915 17.8705 3.8745 17.1915C2.9575 16.5055 2.2575 15.564 1.7745 14.367C1.2985 13.17 1.0605 11.8015 1.0605 10.2615C1.0605 8.7145 1.2985 7.346 1.7745 6.156C2.2575 4.959 2.9575 4.021 3.8745 3.342C4.7915 2.663 5.9045 2.3235 7.2135 2.3235C8.3055 2.3235 9.2365 2.5475 10.0065 2.9955C10.7765 3.4435 11.389 4.014 11.844 4.707C12.299 5.4 12.5965 6.114 12.7365 6.849C12.8135 7.22 12.852 7.57 12.852 7.899H11.0565C11.0565 7.71 11.039 7.493 11.004 7.248C10.92 6.66 10.717 6.1175 10.395 5.6205C10.08 5.1165 9.6565 4.714 9.1245 4.413C8.5925 4.105 7.9555 3.951 7.2135 3.951C6.3455 3.951 5.586 4.189 4.935 4.665C4.291 5.141 3.787 5.848 3.423 6.786C3.066 7.724 2.8875 8.8825 2.8875 10.2615C2.8875 11.6405 3.066 12.8025 3.423 13.7475C3.787 14.6855 4.291 15.396 4.935 15.879C5.586 16.355 6.3455 16.593 7.2135 16.593C7.8365 16.593 8.386 16.481 8.862 16.257C9.338 16.026 9.737 15.7215 10.059 15.3435C10.388 14.9585 10.6365 14.5315 10.8045 14.0625C10.9725 13.5865 11.0565 13.1035 11.0565 12.6135H12.852ZM19.6268 18.1995C18.8288 18.1995 18.1638 18.063 17.6318 17.79C17.0998 17.51 16.6763 17.1495 16.3613 16.7085C16.0533 16.2675 15.8328 15.7915 15.6998 15.2805C15.5738 14.7625 15.5108 14.2655 15.5108 13.7895C15.5108 13.5235 15.5108 13.2505 15.5108 12.9705C15.5108 12.6835 15.5108 12.3965 15.5108 12.1095V6.849H17.3063V11.8785C17.3063 12.1375 17.3063 12.393 17.3063 12.645C17.3063 12.897 17.3063 13.135 17.3063 13.359C17.3063 13.926 17.3833 14.451 17.5373 14.934C17.6983 15.417 17.9748 15.809 18.3668 16.11C18.7588 16.404 19.2978 16.551 19.9838 16.551C20.6278 16.551 21.1913 16.3585 21.6743 15.9735C22.1573 15.5815 22.5353 15.095 22.8083 14.514C23.0813 13.926 23.2178 13.3415 23.2178 12.7605L24.2573 13.191C24.2573 13.807 24.1488 14.4125 23.9318 15.0075C23.7148 15.5955 23.4033 16.131 22.9973 16.614C22.5983 17.097 22.1118 17.482 21.5378 17.769C20.9708 18.056 20.3338 18.1995 19.6268 18.1995ZM23.2178 18V6.849H25.0028V18H23.2178ZM32.5126 18.168C32.1696 18.168 31.8336 18.1295 31.5046 18.0525C31.1756 17.9755 30.8781 17.839 30.6121 17.643C30.3531 17.44 30.1466 17.1565 29.9926 16.7925C29.8386 16.4215 29.7616 15.9455 29.7616 15.3645C29.7616 15.2175 29.7616 15.067 29.7616 14.913C29.7616 14.752 29.7616 14.584 29.7616 14.409V8.424H27.0421V6.849H28.7851C29.0231 6.849 29.2086 6.842 29.3416 6.828C29.4746 6.807 29.5691 6.7615 29.6251 6.6915C29.6881 6.6145 29.7266 6.499 29.7406 6.345C29.7546 6.184 29.7616 5.9635 29.7616 5.6835V3.153H31.5571V6.849H35.0431V8.424H31.5571V13.8315C31.5571 13.9855 31.5571 14.136 31.5571 14.283C31.5571 14.43 31.5571 14.5665 31.5571 14.6925C31.5571 15.2875 31.6271 15.753 31.7671 16.089C31.9141 16.425 32.2396 16.593 32.7436 16.593C32.9466 16.593 33.1391 16.5755 33.3211 16.5405C33.5031 16.5055 33.6396 16.4705 33.7306 16.4355V17.9895C33.6116 18.0315 33.4436 18.07 33.2266 18.105C33.0166 18.147 32.7786 18.168 32.5126 18.168ZM40.8183 18.168C40.4753 18.168 40.1393 18.1295 39.8103 18.0525C39.4813 17.9755 39.1838 17.839 38.9178 17.643C38.6588 17.44 38.4523 17.1565 38.2983 16.7925C38.1443 16.4215 38.0673 15.9455 38.0673 15.3645C38.0673 15.2175 38.0673 15.067 38.0673 14.913C38.0673 14.752 38.0673 14.584 38.0673 14.409V8.424H35.3478V6.849H37.0908C37.3288 6.849 37.5143 6.842 37.6473 6.828C37.7803 6.807 37.8748 6.7615 37.9308 6.6915C37.9938 6.6145 38.0323 6.499 38.0463 6.345C38.0603 6.184 38.0673 5.9635 38.0673 5.6835V3.153H39.8628V6.849H43.3488V8.424H39.8628V13.8315C39.8628 13.9855 39.8628 14.136 39.8628 14.283C39.8628 14.43 39.8628 14.5665 39.8628 14.6925C39.8628 15.2875 39.9328 15.753 40.0728 16.089C40.2198 16.425 40.5453 16.593 41.0493 16.593C41.2523 16.593 41.4448 16.5755 41.6268 16.5405C41.8088 16.5055 41.9453 16.4705 42.0363 16.4355V17.9895C41.9173 18.0315 41.7493 18.07 41.5323 18.105C41.3223 18.147 41.0843 18.168 40.8183 18.168ZM45.7418 18V6.849H47.5058V18H45.7418ZM46.6343 4.287C46.3053 4.287 46.0183 4.196 45.7733 4.014C45.5353 3.825 45.4163 3.5695 45.4163 3.2475C45.4163 2.9325 45.5353 2.684 45.7733 2.502C46.0183 2.313 46.3053 2.2185 46.6343 2.2185C46.9633 2.2185 47.2468 2.313 47.4848 2.502C47.7228 2.684 47.8418 2.9325 47.8418 3.2475C47.8418 3.5695 47.7228 3.825 47.4848 4.014C47.2468 4.196 46.9633 4.287 46.6343 4.287ZM58.8053 18V12.6555C58.8053 12.3335 58.8053 12.071 58.8053 11.868C58.8053 11.658 58.8053 11.4585 58.8053 11.2695C58.8053 10.6885 58.7073 10.181 58.5113 9.747C58.3153 9.313 58.0073 8.977 57.5873 8.739C57.1673 8.501 56.6178 8.382 55.9388 8.382C55.3438 8.382 54.7908 8.536 54.2798 8.844C53.7758 9.145 53.3698 9.5545 53.0618 10.0725C52.7608 10.5835 52.6103 11.1575 52.6103 11.7945L51.5918 11.406C51.5918 10.531 51.8053 9.7365 52.2323 9.0225C52.6663 8.3085 53.2403 7.7415 53.9543 7.3215C54.6753 6.8945 55.4593 6.681 56.3063 6.681C57.1673 6.681 57.9198 6.8455 58.5638 7.1745C59.2078 7.5035 59.7048 7.976 60.0548 8.592C60.4118 9.201 60.5903 9.936 60.5903 10.797C60.5903 11.105 60.5903 11.441 60.5903 11.805C60.5903 12.169 60.5903 12.5085 60.5903 12.8235V18H58.8053ZM50.8253 18V6.849H52.6103V18H50.8253ZM70.8232 17.3175C71.4252 17.3665 71.9537 17.4785 72.4087 17.6535C72.8707 17.8215 73.2312 18.07 73.4902 18.399C73.7492 18.735 73.8787 19.1725 73.8787 19.7115C73.8787 20.3065 73.6757 20.8315 73.2697 21.2865C72.8637 21.7485 72.2477 22.109 71.4217 22.368C70.5957 22.627 69.5562 22.7565 68.3032 22.7565C66.5322 22.7565 65.1952 22.4975 64.2922 21.9795C63.3892 21.4685 62.9377 20.7685 62.9377 19.8795C62.9377 19.5995 62.9692 19.351 63.0322 19.134C63.1022 18.924 63.1792 18.7525 63.2632 18.6195L64.9642 18.8715C64.9082 18.9485 64.8522 19.064 64.7962 19.218C64.7472 19.379 64.7227 19.5645 64.7227 19.7745C64.7227 20.3345 65.0412 20.7265 65.6782 20.9505C66.3152 21.1815 67.2182 21.297 68.3872 21.297C69.2622 21.297 69.9797 21.2375 70.5397 21.1185C71.0997 20.9995 71.5162 20.828 71.7892 20.604C72.0622 20.38 72.1987 20.1175 72.1987 19.8165C72.1987 19.3615 72.0062 19.078 71.6212 18.966C71.2432 18.861 70.7742 18.7875 70.2142 18.7455L65.9722 18.4305C65.2652 18.3745 64.6877 18.1575 64.2397 17.7795C63.7987 17.3945 63.5782 16.929 63.5782 16.383C63.5782 16.047 63.6587 15.7285 63.8197 15.4275C63.9877 15.1265 64.1802 14.8745 64.3972 14.6715C64.6212 14.4615 64.8207 14.3355 64.9957 14.2935L66.4027 14.934C66.2277 14.962 66.0107 15.0845 65.7517 15.3015C65.4997 15.5115 65.3737 15.76 65.3737 16.047C65.3737 16.306 65.4752 16.5195 65.6782 16.6875C65.8812 16.8485 66.2837 16.9535 66.8857 17.0025L70.8232 17.3175ZM72.3667 6.849H74.0467L73.3537 11.238C73.2277 12.057 72.9652 12.799 72.5662 13.464C72.1672 14.122 71.6212 14.647 70.9282 15.039C70.2422 15.424 69.3917 15.6165 68.3767 15.6165C67.3197 15.6165 66.4167 15.424 65.6677 15.039C64.9187 14.654 64.3447 14.129 63.9457 13.464C63.5467 12.792 63.3472 12.036 63.3472 11.196C63.3472 10.342 63.5537 9.5755 63.9667 8.8965C64.3867 8.2105 64.9677 7.6715 65.7097 7.2795C66.4517 6.8805 67.3022 6.681 68.2612 6.681C69.1222 6.681 69.8747 6.8315 70.5187 7.1325C71.1627 7.4265 71.6702 7.7975 72.0412 8.2455C72.4192 8.6935 72.6292 9.145 72.6712 9.6L71.9992 9.642L72.3667 6.849ZM68.3662 14.0205C69.0452 14.0205 69.6262 13.9085 70.1092 13.6845C70.5992 13.4605 70.9737 13.135 71.2327 12.708C71.4987 12.281 71.6317 11.763 71.6317 11.154C71.6317 10.566 71.4987 10.0585 71.2327 9.6315C70.9737 9.1975 70.5992 8.865 70.1092 8.634C69.6262 8.396 69.0487 8.277 68.3767 8.277C67.7327 8.277 67.1622 8.3995 66.6652 8.6445C66.1752 8.8825 65.7902 9.2185 65.5102 9.6525C65.2372 10.0865 65.1007 10.5975 65.1007 11.1855C65.1007 11.7805 65.2302 12.2915 65.4892 12.7185C65.7552 13.1385 66.1297 13.4605 66.6127 13.6845C67.1027 13.9085 67.6872 14.0205 68.3662 14.0205ZM75.829 12.624V11.49H83.137V12.624H75.829ZM87.0248 13.1385V11.5425H95.6453L95.3303 12.0675C95.3303 12.0255 95.3303 11.987 95.3303 11.952C95.3303 11.91 95.3303 11.8715 95.3303 11.8365C95.3303 11.1925 95.1938 10.6045 94.9208 10.0725C94.6548 9.5335 94.2558 9.103 93.7238 8.781C93.1918 8.459 92.5338 8.298 91.7498 8.298C90.9588 8.298 90.2623 8.466 89.6603 8.802C89.0583 9.138 88.5893 9.614 88.2533 10.23C87.9173 10.839 87.7493 11.567 87.7493 12.414C87.7493 13.275 87.9103 14.017 88.2323 14.64C88.5613 15.263 89.0268 15.7425 89.6288 16.0785C90.2308 16.4145 90.9448 16.5825 91.7708 16.5825C92.3588 16.5825 92.8698 16.523 93.3038 16.404C93.7378 16.278 94.0948 16.1135 94.3748 15.9105C94.6618 15.7005 94.8788 15.473 95.0258 15.228C95.1728 14.983 95.2603 14.738 95.2883 14.493H97.0733C97.0383 14.941 96.8983 15.3855 96.6533 15.8265C96.4083 16.2675 96.0618 16.67 95.6138 17.034C95.1658 17.391 94.6163 17.678 93.9653 17.895C93.3143 18.112 92.5653 18.2205 91.7183 18.2205C90.5983 18.2205 89.6113 17.9755 88.7573 17.4855C87.9033 16.9955 87.2313 16.3165 86.7413 15.4485C86.2583 14.5805 86.0168 13.583 86.0168 12.456C86.0168 11.315 86.2618 10.314 86.7518 9.453C87.2418 8.585 87.9173 7.906 88.7783 7.416C89.6393 6.926 90.6228 6.681 91.7288 6.681C92.8558 6.681 93.8323 6.926 94.6583 7.416C95.4843 7.906 96.1213 8.578 96.5693 9.432C97.0173 10.279 97.2413 11.245 97.2413 12.33C97.2413 12.442 97.2378 12.589 97.2308 12.771C97.2238 12.953 97.2133 13.0755 97.1993 13.1385H87.0248ZM104.622 18.21C103.705 18.21 102.865 17.9895 102.102 17.5485C101.339 17.1005 100.73 16.446 100.275 15.585C99.8205 14.717 99.593 13.66 99.593 12.414C99.593 11.189 99.824 10.1495 100.286 9.2955C100.748 8.4415 101.36 7.794 102.123 7.353C102.886 6.905 103.719 6.681 104.622 6.681C105.483 6.681 106.288 6.8875 107.037 7.3005C107.793 7.7065 108.402 8.2735 108.864 9.0015C109.326 9.7295 109.557 10.573 109.557 11.532C109.557 11.553 109.557 11.574 109.557 11.595C109.557 11.616 109.557 11.637 109.557 11.658L108.276 11.7105C108.276 11.6895 108.276 11.6685 108.276 11.6475C108.276 11.6195 108.276 11.595 108.276 11.574C108.276 10.965 108.115 10.4155 107.793 9.9255C107.478 9.4355 107.062 9.047 106.544 8.76C106.026 8.466 105.469 8.319 104.874 8.319C103.88 8.319 103.058 8.655 102.407 9.327C101.756 9.992 101.43 11.021 101.43 12.414C101.43 13.8 101.756 14.8325 102.407 15.5115C103.065 16.1835 103.887 16.5195 104.874 16.5195C105.497 16.5195 106.064 16.369 106.575 16.068C107.093 15.767 107.506 15.3645 107.814 14.8605C108.122 14.3495 108.276 13.779 108.276 13.149L109.557 13.1805C109.557 14.1325 109.337 14.99 108.896 15.753C108.455 16.509 107.86 17.1075 107.111 17.5485C106.369 17.9895 105.539 18.21 104.622 18.21ZM108.276 18V1.5885H110.072V18H108.276ZM120.329 17.3175C120.931 17.3665 121.46 17.4785 121.915 17.6535C122.377 17.8215 122.737 18.07 122.996 18.399C123.255 18.735 123.385 19.1725 123.385 19.7115C123.385 20.3065 123.182 20.8315 122.776 21.2865C122.37 21.7485 121.754 22.109 120.928 22.368C120.102 22.627 119.062 22.7565 117.809 22.7565C116.038 22.7565 114.701 22.4975 113.798 21.9795C112.895 21.4685 112.444 20.7685 112.444 19.8795C112.444 19.5995 112.475 19.351 112.538 19.134C112.608 18.924 112.685 18.7525 112.769 18.6195L114.47 18.8715C114.414 18.9485 114.358 19.064 114.302 19.218C114.253 19.379 114.229 19.5645 114.229 19.7745C114.229 20.3345 114.547 20.7265 115.184 20.9505C115.821 21.1815 116.724 21.297 117.893 21.297C118.768 21.297 119.486 21.2375 120.046 21.1185C120.606 20.9995 121.022 20.828 121.295 20.604C121.568 20.38 121.705 20.1175 121.705 19.8165C121.705 19.3615 121.512 19.078 121.127 18.966C120.749 18.861 120.28 18.7875 119.72 18.7455L115.478 18.4305C114.771 18.3745 114.194 18.1575 113.746 17.7795C113.305 17.3945 113.084 16.929 113.084 16.383C113.084 16.047 113.165 15.7285 113.326 15.4275C113.494 15.1265 113.686 14.8745 113.903 14.6715C114.127 14.4615 114.327 14.3355 114.502 14.2935L115.909 14.934C115.734 14.962 115.517 15.0845 115.258 15.3015C115.006 15.5115 114.88 15.76 114.88 16.047C114.88 16.306 114.981 16.5195 115.184 16.6875C115.387 16.8485 115.79 16.9535 116.392 17.0025L120.329 17.3175ZM121.873 6.849H123.553L122.86 11.238C122.734 12.057 122.471 12.799 122.072 13.464C121.673 14.122 121.127 14.647 120.434 15.039C119.748 15.424 118.898 15.6165 117.883 15.6165C116.826 15.6165 115.923 15.424 115.174 15.039C114.425 14.654 113.851 14.129 113.452 13.464C113.053 12.792 112.853 12.036 112.853 11.196C112.853 10.342 113.06 9.5755 113.473 8.8965C113.893 8.2105 114.474 7.6715 115.216 7.2795C115.958 6.8805 116.808 6.681 117.767 6.681C118.628 6.681 119.381 6.8315 120.025 7.1325C120.669 7.4265 121.176 7.7975 121.547 8.2455C121.925 8.6935 122.135 9.145 122.177 9.6L121.505 9.642L121.873 6.849ZM117.872 14.0205C118.551 14.0205 119.132 13.9085 119.615 13.6845C120.105 13.4605 120.48 13.135 120.739 12.708C121.005 12.281 121.138 11.763 121.138 11.154C121.138 10.566 121.005 10.0585 120.739 9.6315C120.48 9.1975 120.105 8.865 119.615 8.634C119.132 8.396 118.555 8.277 117.883 8.277C117.239 8.277 116.668 8.3995 116.171 8.6445C115.681 8.8825 115.296 9.2185 115.016 9.6525C114.743 10.0865 114.607 10.5975 114.607 11.1855C114.607 11.7805 114.736 12.2915 114.995 12.7185C115.261 13.1385 115.636 13.4605 116.119 13.6845C116.609 13.9085 117.193 14.0205 117.872 14.0205ZM126.051 13.1385V11.5425H134.672L134.357 12.0675C134.357 12.0255 134.357 11.987 134.357 11.952C134.357 11.91 134.357 11.8715 134.357 11.8365C134.357 11.1925 134.22 10.6045 133.947 10.0725C133.681 9.5335 133.282 9.103 132.75 8.781C132.218 8.459 131.56 8.298 130.776 8.298C129.985 8.298 129.289 8.466 128.687 8.802C128.085 9.138 127.616 9.614 127.28 10.23C126.944 10.839 126.776 11.567 126.776 12.414C126.776 13.275 126.937 14.017 127.259 14.64C127.588 15.263 128.053 15.7425 128.655 16.0785C129.257 16.4145 129.971 16.5825 130.797 16.5825C131.385 16.5825 131.896 16.523 132.33 16.404C132.764 16.278 133.121 16.1135 133.401 15.9105C133.688 15.7005 133.905 15.473 134.052 15.228C134.199 14.983 134.287 14.738 134.315 14.493H136.1C136.065 14.941 135.925 15.3855 135.68 15.8265C135.435 16.2675 135.088 16.67 134.64 17.034C134.192 17.391 133.643 17.678 132.992 17.895C132.341 18.112 131.592 18.2205 130.745 18.2205C129.625 18.2205 128.638 17.9755 127.784 17.4855C126.93 16.9955 126.258 16.3165 125.768 15.4485C125.285 14.5805 125.043 13.583 125.043 12.456C125.043 11.315 125.288 10.314 125.778 9.453C126.268 8.585 126.944 7.906 127.805 7.416C128.666 6.926 129.649 6.681 130.755 6.681C131.882 6.681 132.859 6.926 133.685 7.416C134.511 7.906 135.148 8.578 135.596 9.432C136.044 10.279 136.268 11.245 136.268 12.33C136.268 12.442 136.264 12.589 136.257 12.771C136.25 12.953 136.24 13.0755 136.226 13.1385H126.051ZM153.214 6.849L149.476 18H147.135L143.313 6.849H145.161L148.447 17.055H148.164L151.366 6.849H153.214ZM155.561 18V6.849H157.325V18H155.561ZM156.454 4.287C156.125 4.287 155.838 4.196 155.593 4.014C155.355 3.825 155.236 3.5695 155.236 3.2475C155.236 2.9325 155.355 2.684 155.593 2.502C155.838 2.313 156.125 2.2185 156.454 2.2185C156.783 2.2185 157.066 2.313 157.304 2.502C157.542 2.684 157.661 2.9325 157.661 3.2475C157.661 3.5695 157.542 3.825 157.304 4.014C157.066 4.196 156.783 4.287 156.454 4.287ZM165.244 18.21C164.327 18.21 163.487 17.9895 162.724 17.5485C161.961 17.1005 161.352 16.446 160.897 15.585C160.442 14.717 160.214 13.66 160.214 12.414C160.214 11.189 160.445 10.1495 160.907 9.2955C161.369 8.4415 161.982 7.794 162.745 7.353C163.508 6.905 164.341 6.681 165.244 6.681C166.105 6.681 166.91 6.8875 167.659 7.3005C168.415 7.7065 169.024 8.2735 169.486 9.0015C169.948 9.7295 170.179 10.573 170.179 11.532C170.179 11.553 170.179 11.574 170.179 11.595C170.179 11.616 170.179 11.637 170.179 11.658L168.898 11.7105C168.898 11.6895 168.898 11.6685 168.898 11.6475C168.898 11.6195 168.898 11.595 168.898 11.574C168.898 10.965 168.737 10.4155 168.415 9.9255C168.1 9.4355 167.683 9.047 167.165 8.76C166.647 8.466 166.091 8.319 165.496 8.319C164.502 8.319 163.679 8.655 163.028 9.327C162.377 9.992 162.052 11.021 162.052 12.414C162.052 13.8 162.377 14.8325 163.028 15.5115C163.686 16.1835 164.509 16.5195 165.496 16.5195C166.119 16.5195 166.686 16.369 167.197 16.068C167.715 15.767 168.128 15.3645 168.436 14.8605C168.744 14.3495 168.898 13.779 168.898 13.149L170.179 13.1805C170.179 14.1325 169.958 14.99 169.517 15.753C169.076 16.509 168.481 17.1075 167.732 17.5485C166.99 17.9895 166.161 18.21 165.244 18.21ZM168.898 18V1.5885H170.693V18H168.898ZM174.409 13.1385V11.5425H183.029L182.714 12.0675C182.714 12.0255 182.714 11.987 182.714 11.952C182.714 11.91 182.714 11.8715 182.714 11.8365C182.714 11.1925 182.578 10.6045 182.305 10.0725C182.039 9.5335 181.64 9.103 181.108 8.781C180.576 8.459 179.918 8.298 179.134 8.298C178.343 8.298 177.646 8.466 177.044 8.802C176.442 9.138 175.973 9.614 175.637 10.23C175.301 10.839 175.133 11.567 175.133 12.414C175.133 13.275 175.294 14.017 175.616 14.64C175.945 15.263 176.411 15.7425 177.013 16.0785C177.615 16.4145 178.329 16.5825 179.155 16.5825C179.743 16.5825 180.254 16.523 180.688 16.404C181.122 16.278 181.479 16.1135 181.759 15.9105C182.046 15.7005 182.263 15.473 182.41 15.228C182.557 14.983 182.644 14.738 182.672 14.493H184.457C184.422 14.941 184.282 15.3855 184.037 15.8265C183.792 16.2675 183.446 16.67 182.998 17.034C182.55 17.391 182 17.678 181.349 17.895C180.698 18.112 179.949 18.2205 179.102 18.2205C177.982 18.2205 176.995 17.9755 176.141 17.4855C175.287 16.9955 174.615 16.3165 174.125 15.4485C173.642 14.5805 173.401 13.583 173.401 12.456C173.401 11.315 173.646 10.314 174.136 9.453C174.626 8.585 175.301 7.906 176.162 7.416C177.023 6.926 178.007 6.681 179.113 6.681C180.24 6.681 181.216 6.926 182.042 7.416C182.868 7.906 183.505 8.578 183.953 9.432C184.401 10.279 184.625 11.245 184.625 12.33C184.625 12.442 184.622 12.589 184.615 12.771C184.608 12.953 184.597 13.0755 184.583 13.1385H174.409ZM192.689 18.1995C191.569 18.1995 190.578 17.951 189.717 17.454C188.863 16.95 188.191 16.264 187.701 15.396C187.218 14.521 186.977 13.527 186.977 12.414C186.977 11.301 187.218 10.314 187.701 9.453C188.191 8.592 188.863 7.9165 189.717 7.4265C190.578 6.9365 191.569 6.6915 192.689 6.6915C193.809 6.6915 194.796 6.9365 195.65 7.4265C196.511 7.9165 197.183 8.592 197.666 9.453C198.156 10.314 198.401 11.301 198.401 12.414C198.401 13.527 198.156 14.521 197.666 15.396C197.183 16.264 196.511 16.95 195.65 17.454C194.796 17.951 193.809 18.1995 192.689 18.1995ZM192.689 16.5615C193.459 16.5615 194.138 16.39 194.726 16.047C195.314 15.704 195.772 15.221 196.101 14.598C196.437 13.975 196.605 13.247 196.605 12.414C196.605 11.581 196.437 10.86 196.101 10.251C195.772 9.635 195.314 9.1625 194.726 8.8335C194.138 8.4975 193.459 8.3295 192.689 8.3295C191.926 8.3295 191.247 8.4975 190.652 8.8335C190.064 9.1625 189.602 9.635 189.266 10.251C188.937 10.86 188.772 11.581 188.772 12.414C188.772 13.247 188.937 13.975 189.266 14.598C189.602 15.221 190.064 15.704 190.652 16.047C191.247 16.39 191.926 16.5615 192.689 16.5615ZM206.439 22.5885V6.849H208.224V22.5885H206.439ZM211.888 18.21C211.027 18.21 210.222 18 209.473 17.58C208.724 17.153 208.115 16.5685 207.646 15.8265C207.184 15.0845 206.953 14.2375 206.953 13.2855C206.953 13.2645 206.953 13.247 206.953 13.233C206.953 13.219 206.953 13.2015 206.953 13.1805L208.234 13.149C208.234 13.163 208.234 13.1805 208.234 13.2015C208.234 13.2155 208.234 13.2295 208.234 13.2435C208.234 13.8455 208.392 14.395 208.707 14.892C209.029 15.389 209.449 15.7845 209.967 16.0785C210.485 16.3725 211.041 16.5195 211.636 16.5195C212.623 16.5195 213.442 16.1835 214.093 15.5115C214.751 14.8325 215.08 13.8 215.08 12.414C215.08 11.021 214.755 9.992 214.104 9.327C213.453 8.655 212.63 8.319 211.636 8.319C211.041 8.319 210.485 8.466 209.967 8.76C209.449 9.047 209.029 9.4355 208.707 9.9255C208.392 10.4155 208.234 10.965 208.234 11.574L206.953 11.532C206.953 10.573 207.184 9.7295 207.646 9.0015C208.115 8.2735 208.724 7.7065 209.473 7.3005C210.222 6.8875 211.027 6.681 211.888 6.681C212.791 6.681 213.624 6.905 214.387 7.353C215.15 7.794 215.763 8.4415 216.225 9.2955C216.687 10.1495 216.918 11.189 216.918 12.414C216.918 13.66 216.69 14.717 216.235 15.585C215.78 16.446 215.171 17.1005 214.408 17.5485C213.645 17.9895 212.805 18.21 211.888 18.21ZM219.707 18V6.849H221.492V10.272L220.904 10.062C220.946 9.649 221.051 9.243 221.219 8.844C221.387 8.438 221.618 8.074 221.912 7.752C222.213 7.423 222.588 7.164 223.036 6.975C223.484 6.779 224.009 6.681 224.611 6.681C225.059 6.681 225.423 6.7195 225.703 6.7965C225.99 6.8665 226.168 6.9225 226.238 6.9645L225.776 8.718C225.706 8.669 225.563 8.606 225.346 8.529C225.136 8.452 224.835 8.4135 224.443 8.4135C223.862 8.4135 223.379 8.5185 222.994 8.7285C222.616 8.9385 222.315 9.2185 222.091 9.5685C221.874 9.9115 221.72 10.286 221.629 10.692C221.538 11.098 221.492 11.5005 221.492 11.8995V18H219.707ZM233.233 18.1995C232.113 18.1995 231.122 17.951 230.261 17.454C229.407 16.95 228.735 16.264 228.245 15.396C227.762 14.521 227.521 13.527 227.521 12.414C227.521 11.301 227.762 10.314 228.245 9.453C228.735 8.592 229.407 7.9165 230.261 7.4265C231.122 6.9365 232.113 6.6915 233.233 6.6915C234.353 6.6915 235.34 6.9365 236.194 7.4265C237.055 7.9165 237.727 8.592 238.21 9.453C238.7 10.314 238.945 11.301 238.945 12.414C238.945 13.527 238.7 14.521 238.21 15.396C237.727 16.264 237.055 16.95 236.194 17.454C235.34 17.951 234.353 18.1995 233.233 18.1995ZM233.233 16.5615C234.003 16.5615 234.682 16.39 235.27 16.047C235.858 15.704 236.316 15.221 236.645 14.598C236.981 13.975 237.149 13.247 237.149 12.414C237.149 11.581 236.981 10.86 236.645 10.251C236.316 9.635 235.858 9.1625 235.27 8.8335C234.682 8.4975 234.003 8.3295 233.233 8.3295C232.47 8.3295 231.791 8.4975 231.196 8.8335C230.608 9.1625 230.146 9.635 229.81 10.251C229.481 10.86 229.316 11.581 229.316 12.414C229.316 13.247 229.481 13.975 229.81 14.598C230.146 15.221 230.608 15.704 231.196 16.047C231.791 16.39 232.47 16.5615 233.233 16.5615ZM246.331 18.21C245.414 18.21 244.574 17.9895 243.811 17.5485C243.048 17.1005 242.439 16.446 241.984 15.585C241.529 14.717 241.302 13.66 241.302 12.414C241.302 11.189 241.533 10.1495 241.995 9.2955C242.457 8.4415 243.069 7.794 243.832 7.353C244.595 6.905 245.428 6.681 246.331 6.681C247.192 6.681 247.997 6.8875 248.746 7.3005C249.502 7.7065 250.111 8.2735 250.573 9.0015C251.035 9.7295 251.266 10.573 251.266 11.532C251.266 11.553 251.266 11.574 251.266 11.595C251.266 11.616 251.266 11.637 251.266 11.658L249.985 11.7105C249.985 11.6895 249.985 11.6685 249.985 11.6475C249.985 11.6195 249.985 11.595 249.985 11.574C249.985 10.965 249.824 10.4155 249.502 9.9255C249.187 9.4355 248.771 9.047 248.253 8.76C247.735 8.466 247.178 8.319 246.583 8.319C245.589 8.319 244.767 8.655 244.116 9.327C243.465 9.992 243.139 11.021 243.139 12.414C243.139 13.8 243.465 14.8325 244.116 15.5115C244.774 16.1835 245.596 16.5195 246.583 16.5195C247.206 16.5195 247.773 16.369 248.284 16.068C248.802 15.767 249.215 15.3645 249.523 14.8605C249.831 14.3495 249.985 13.779 249.985 13.149L251.266 13.1805C251.266 14.1325 251.046 14.99 250.605 15.753C250.164 16.509 249.569 17.1075 248.82 17.5485C248.078 17.9895 247.248 18.21 246.331 18.21ZM249.985 18V1.5885H251.781V18H249.985ZM259.035 18.1995C258.237 18.1995 257.572 18.063 257.04 17.79C256.508 17.51 256.085 17.1495 255.77 16.7085C255.462 16.2675 255.241 15.7915 255.108 15.2805C254.982 14.7625 254.919 14.2655 254.919 13.7895C254.919 13.5235 254.919 13.2505 254.919 12.9705C254.919 12.6835 254.919 12.3965 254.919 12.1095V6.849H256.715V11.8785C256.715 12.1375 256.715 12.393 256.715 12.645C256.715 12.897 256.715 13.135 256.715 13.359C256.715 13.926 256.792 14.451 256.946 14.934C257.107 15.417 257.383 15.809 257.775 16.11C258.167 16.404 258.706 16.551 259.392 16.551C260.036 16.551 260.6 16.3585 261.083 15.9735C261.566 15.5815 261.944 15.095 262.217 14.514C262.49 13.926 262.626 13.3415 262.626 12.7605L263.666 13.191C263.666 13.807 263.557 14.4125 263.34 15.0075C263.123 15.5955 262.812 16.131 262.406 16.614C262.007 17.097 261.52 17.482 260.946 17.769C260.379 18.056 259.742 18.1995 259.035 18.1995ZM262.626 18V6.849H264.411V18H262.626ZM272.803 18.21C271.739 18.21 270.773 17.979 269.905 17.517C269.037 17.048 268.347 16.3795 267.836 15.5115C267.332 14.6435 267.08 13.611 267.08 12.414C267.08 11.217 267.332 10.1915 267.836 9.3375C268.347 8.4765 269.037 7.8185 269.905 7.3635C270.773 6.9085 271.739 6.681 272.803 6.681C273.615 6.681 274.339 6.807 274.976 7.059C275.613 7.304 276.152 7.633 276.593 8.046C277.034 8.459 277.37 8.914 277.601 9.411C277.839 9.901 277.958 10.391 277.958 10.881C277.958 10.888 277.958 10.8985 277.958 10.9125C277.958 10.9265 277.958 10.9405 277.958 10.9545H276.184C276.184 10.9195 276.18 10.881 276.173 10.839C276.166 10.79 276.159 10.741 276.152 10.692C276.096 10.223 275.918 9.8135 275.617 9.4635C275.316 9.1065 274.924 8.8265 274.441 8.6235C273.958 8.4205 273.408 8.319 272.792 8.319C272.099 8.319 271.455 8.4695 270.86 8.7705C270.272 9.0645 269.796 9.516 269.432 10.125C269.075 10.727 268.897 11.49 268.897 12.414C268.897 13.331 269.075 14.0975 269.432 14.7135C269.789 15.3295 270.262 15.795 270.85 16.11C271.445 16.418 272.092 16.572 272.792 16.572C273.548 16.572 274.171 16.453 274.661 16.215C275.151 15.977 275.519 15.662 275.764 15.27C276.016 14.871 276.156 14.444 276.184 13.989H277.958C277.958 14.493 277.846 14.997 277.622 15.501C277.398 15.998 277.069 16.453 276.635 16.866C276.201 17.272 275.662 17.5975 275.018 17.8425C274.381 18.0875 273.643 18.21 272.803 18.21ZM284.923 18.168C284.58 18.168 284.244 18.1295 283.915 18.0525C283.586 17.9755 283.288 17.839 283.022 17.643C282.763 17.44 282.557 17.1565 282.403 16.7925C282.249 16.4215 282.172 15.9455 282.172 15.3645C282.172 15.2175 282.172 15.067 282.172 14.913C282.172 14.752 282.172 14.584 282.172 14.409V8.424H279.452V6.849H281.195C281.433 6.849 281.619 6.842 281.752 6.828C281.885 6.807 281.979 6.7615 282.035 6.6915C282.098 6.6145 282.137 6.499 282.151 6.345C282.165 6.184 282.172 5.9635 282.172 5.6835V3.153H283.967V6.849H287.453V8.424H283.967V13.8315C283.967 13.9855 283.967 14.136 283.967 14.283C283.967 14.43 283.967 14.5665 283.967 14.6925C283.967 15.2875 284.037 15.753 284.177 16.089C284.324 16.425 284.65 16.593 285.154 16.593C285.357 16.593 285.549 16.5755 285.731 16.5405C285.913 16.5055 286.05 16.4705 286.141 16.4355V17.9895C286.022 18.0315 285.854 18.07 285.637 18.105C285.427 18.147 285.189 18.168 284.923 18.168ZM289.846 18V6.849H291.61V18H289.846ZM290.739 4.287C290.41 4.287 290.123 4.196 289.878 4.014C289.64 3.825 289.521 3.5695 289.521 3.2475C289.521 2.9325 289.64 2.684 289.878 2.502C290.123 2.313 290.41 2.2185 290.739 2.2185C291.068 2.2185 291.351 2.313 291.589 2.502C291.827 2.684 291.946 2.9325 291.946 3.2475C291.946 3.5695 291.827 3.825 291.589 4.014C291.351 4.196 291.068 4.287 290.739 4.287ZM300.211 18.1995C299.091 18.1995 298.101 17.951 297.24 17.454C296.386 16.95 295.714 16.264 295.224 15.396C294.741 14.521 294.499 13.527 294.499 12.414C294.499 11.301 294.741 10.314 295.224 9.453C295.714 8.592 296.386 7.9165 297.24 7.4265C298.101 6.9365 299.091 6.6915 300.211 6.6915C301.331 6.6915 302.318 6.9365 303.172 7.4265C304.033 7.9165 304.705 8.592 305.188 9.453C305.678 10.314 305.923 11.301 305.923 12.414C305.923 13.527 305.678 14.521 305.188 15.396C304.705 16.264 304.033 16.95 303.172 17.454C302.318 17.951 301.331 18.1995 300.211 18.1995ZM300.211 16.5615C300.981 16.5615 301.66 16.39 302.248 16.047C302.836 15.704 303.295 15.221 303.624 14.598C303.96 13.975 304.128 13.247 304.128 12.414C304.128 11.581 303.96 10.86 303.624 10.251C303.295 9.635 302.836 9.1625 302.248 8.8335C301.66 8.4975 300.981 8.3295 300.211 8.3295C299.448 8.3295 298.769 8.4975 298.174 8.8335C297.586 9.1625 297.124 9.635 296.788 10.251C296.459 10.86 296.295 11.581 296.295 12.414C296.295 13.247 296.459 13.975 296.788 14.598C297.124 15.221 297.586 15.704 298.174 16.047C298.769 16.39 299.448 16.5615 300.211 16.5615ZM316.691 18V12.6555C316.691 12.3335 316.691 12.071 316.691 11.868C316.691 11.658 316.691 11.4585 316.691 11.2695C316.691 10.6885 316.593 10.181 316.397 9.747C316.201 9.313 315.893 8.977 315.473 8.739C315.053 8.501 314.503 8.382 313.824 8.382C313.229 8.382 312.676 8.536 312.165 8.844C311.661 9.145 311.255 9.5545 310.947 10.0725C310.646 10.5835 310.496 11.1575 310.496 11.7945L309.477 11.406C309.477 10.531 309.691 9.7365 310.118 9.0225C310.552 8.3085 311.126 7.7415 311.84 7.3215C312.561 6.8945 313.345 6.681 314.192 6.681C315.053 6.681 315.805 6.8455 316.449 7.1745C317.093 7.5035 317.59 7.976 317.94 8.592C318.297 9.201 318.476 9.936 318.476 10.797C318.476 11.105 318.476 11.441 318.476 11.805C318.476 12.169 318.476 12.5085 318.476 12.8235V18H316.691ZM308.711 18V6.849H310.496V18H308.711Z" fill="#222222"/>
</svg>
