<svg width="556" height="43" viewBox="0 0 556 43" fill="none" xmlns="http://www.w3.org/2000/svg">
<path d="M22.662 21.604C22.662 22.708 22.458 23.83 22.05 24.97C21.642 26.11 21.024 27.166 20.196 28.138C19.368 29.11 18.324 29.896 17.064 30.496C15.804 31.084 14.322 31.378 12.618 31.378C10.302 31.378 8.328 30.796 6.696 29.632C5.076 28.456 3.84 26.842 2.988 24.79C2.136 22.738 1.71 20.386 1.71 17.734C1.71 15.07 2.136 12.718 2.988 10.678C3.84 8.626 5.076 7.018 6.696 5.854C8.328 4.69 10.302 4.108 12.618 4.108C14.55 4.108 16.194 4.486 17.55 5.242C18.918 5.998 20.004 6.97 20.808 8.158C21.624 9.346 22.164 10.582 22.428 11.866C22.584 12.562 22.662 13.222 22.662 13.846H18.738C18.738 13.51 18.708 13.144 18.648 12.748C18.516 11.788 18.192 10.906 17.676 10.102C17.172 9.298 16.494 8.656 15.642 8.176C14.802 7.696 13.794 7.456 12.618 7.456C11.25 7.456 10.044 7.84 9 8.608C7.956 9.364 7.14 10.504 6.552 12.028C5.976 13.552 5.688 15.454 5.688 17.734C5.688 20.002 5.976 21.904 6.552 23.44C7.14 24.964 7.956 26.116 9 26.896C10.044 27.664 11.25 28.048 12.618 28.048C13.614 28.048 14.49 27.868 15.246 27.508C16.002 27.148 16.638 26.662 17.154 26.05C17.67 25.438 18.06 24.748 18.324 23.98C18.6 23.212 18.738 22.42 18.738 21.604H22.662ZM33.8853 31.342C32.5293 31.342 31.4013 31.114 30.5013 30.658C29.6013 30.19 28.8873 29.584 28.3593 28.84C27.8313 28.084 27.4593 27.262 27.2433 26.374C27.0273 25.474 26.9193 24.598 26.9193 23.746C26.9193 23.302 26.9193 22.84 26.9193 22.36C26.9193 21.868 26.9193 21.376 26.9193 20.884V11.884H30.8433V20.326C30.8433 20.758 30.8433 21.184 30.8433 21.604C30.8433 22.012 30.8433 22.396 30.8433 22.756C30.8433 23.68 30.9633 24.532 31.2033 25.312C31.4433 26.08 31.8633 26.704 32.4633 27.184C33.0753 27.652 33.9273 27.886 35.0193 27.886C36.0393 27.886 36.9273 27.586 37.6833 26.986C38.4393 26.374 39.0273 25.606 39.4473 24.682C39.8673 23.746 40.0773 22.81 40.0773 21.874L41.7873 22.792C41.7873 23.896 41.6013 24.958 41.2293 25.978C40.8693 26.998 40.3473 27.916 39.6633 28.732C38.9793 29.536 38.1453 30.172 37.1613 30.64C36.1893 31.108 35.0973 31.342 33.8853 31.342ZM40.0773 31V11.884H43.9833V31H40.0773ZM57.0991 31.324C56.4631 31.324 55.8271 31.258 55.1911 31.126C54.5671 30.994 53.9911 30.754 53.4631 30.406C52.9471 30.046 52.5331 29.536 52.2211 28.876C51.9091 28.216 51.7531 27.352 51.7531 26.284C51.7531 26.032 51.7531 25.768 51.7531 25.492C51.7531 25.216 51.7531 24.934 51.7531 24.646V15.124H47.1631V11.884H49.5751C50.0911 11.884 50.4931 11.866 50.7811 11.83C51.0811 11.782 51.2971 11.68 51.4291 11.524C51.5731 11.356 51.6631 11.092 51.6991 10.732C51.7351 10.372 51.7531 9.88 51.7531 9.256V5.566H55.6591V11.884H61.5091V15.124H55.6591V23.602C55.6591 23.842 55.6591 24.082 55.6591 24.322C55.6591 24.562 55.6591 24.784 55.6591 24.988C55.6591 25.948 55.7731 26.704 56.0011 27.256C56.2411 27.808 56.7811 28.084 57.6211 28.084C57.9811 28.084 58.3231 28.054 58.6471 27.994C58.9711 27.934 59.2171 27.868 59.3851 27.796V30.982C59.1691 31.066 58.8631 31.144 58.4671 31.216C58.0711 31.288 57.6151 31.324 57.0991 31.324ZM71.8647 31.324C71.2287 31.324 70.5927 31.258 69.9567 31.126C69.3327 30.994 68.7567 30.754 68.2287 30.406C67.7127 30.046 67.2987 29.536 66.9867 28.876C66.6747 28.216 66.5187 27.352 66.5187 26.284C66.5187 26.032 66.5187 25.768 66.5187 25.492C66.5187 25.216 66.5187 24.934 66.5187 24.646V15.124H61.9287V11.884H64.3407C64.8567 11.884 65.2587 11.866 65.5467 11.83C65.8467 11.782 66.0627 11.68 66.1947 11.524C66.3387 11.356 66.4287 11.092 66.4647 10.732C66.5007 10.372 66.5187 9.88 66.5187 9.256V5.566H70.4247V11.884H76.2747V15.124H70.4247V23.602C70.4247 23.842 70.4247 24.082 70.4247 24.322C70.4247 24.562 70.4247 24.784 70.4247 24.988C70.4247 25.948 70.5387 26.704 70.7667 27.256C71.0067 27.808 71.5467 28.084 72.3867 28.084C72.7467 28.084 73.0887 28.054 73.4127 27.994C73.7367 27.934 73.9827 27.868 74.1507 27.796V30.982C73.9347 31.066 73.6287 31.144 73.2327 31.216C72.8367 31.288 72.3807 31.324 71.8647 31.324ZM80.0592 31V11.884H83.9112V31H80.0592ZM82.0032 7.924C81.3312 7.924 80.7492 7.744 80.2572 7.384C79.7772 7.012 79.5372 6.502 79.5372 5.854C79.5372 5.218 79.7772 4.72 80.2572 4.36C80.7492 3.988 81.3312 3.802 82.0032 3.802C82.6632 3.802 83.2332 3.988 83.7132 4.36C84.2052 4.72 84.4512 5.218 84.4512 5.854C84.4512 6.502 84.2052 7.012 83.7132 7.384C83.2332 7.744 82.6632 7.924 82.0032 7.924ZM102.719 31V22.18C102.719 21.664 102.719 21.226 102.719 20.866C102.719 20.506 102.719 20.17 102.719 19.858C102.719 18.922 102.575 18.1 102.287 17.392C101.999 16.672 101.525 16.114 100.865 15.718C100.205 15.31 99.3227 15.106 98.2187 15.106C97.2467 15.106 96.3647 15.346 95.5727 15.826C94.7927 16.306 94.1687 16.96 93.7007 17.788C93.2447 18.604 93.0167 19.534 93.0167 20.578L91.3427 19.75C91.3427 18.202 91.7087 16.816 92.4407 15.592C93.1727 14.356 94.1507 13.378 95.3747 12.658C96.6107 11.938 97.9607 11.578 99.4247 11.578C100.937 11.578 102.227 11.872 103.295 12.46C104.375 13.036 105.197 13.864 105.761 14.944C106.337 16.012 106.625 17.29 106.625 18.778C106.625 19.33 106.625 19.942 106.625 20.614C106.625 21.286 106.625 21.934 106.625 22.558V31H102.719ZM89.1107 31V11.884H93.0167V31H89.1107ZM124.086 29.47C125.166 29.566 126.114 29.77 126.93 30.082C127.746 30.382 128.382 30.826 128.838 31.414C129.306 32.014 129.54 32.8 129.54 33.772C129.54 34.864 129.168 35.812 128.424 36.616C127.692 37.432 126.594 38.062 125.13 38.506C123.666 38.962 121.848 39.19 119.676 39.19C116.568 39.19 114.198 38.74 112.566 37.84C110.934 36.94 110.118 35.716 110.118 34.168C110.118 33.7 110.172 33.286 110.28 32.926C110.388 32.566 110.52 32.266 110.676 32.026L114.312 32.566C114.228 32.686 114.144 32.86 114.06 33.088C113.976 33.328 113.934 33.616 113.934 33.952C113.934 34.804 114.456 35.41 115.5 35.77C116.544 36.13 117.99 36.31 119.838 36.31C121.194 36.31 122.316 36.214 123.204 36.022C124.104 35.842 124.776 35.578 125.22 35.23C125.664 34.882 125.886 34.474 125.886 34.006C125.886 33.298 125.58 32.854 124.968 32.674C124.356 32.494 123.618 32.368 122.754 32.296L115.5 31.702C114.24 31.594 113.208 31.216 112.404 30.568C111.612 29.92 111.216 29.104 111.216 28.12C111.216 27.508 111.372 26.938 111.684 26.41C111.996 25.882 112.356 25.438 112.764 25.078C113.184 24.718 113.544 24.496 113.844 24.412L116.4 25.636C116.124 25.672 115.788 25.858 115.392 26.194C115.008 26.518 114.816 26.902 114.816 27.346C114.816 27.754 114.984 28.09 115.32 28.354C115.668 28.618 116.34 28.792 117.336 28.876L124.086 29.47ZM126.48 11.884H130.026L128.568 19.354C128.304 20.746 127.818 22.006 127.11 23.134C126.414 24.25 125.466 25.132 124.266 25.78C123.078 26.428 121.596 26.752 119.82 26.752C117.972 26.752 116.382 26.434 115.05 25.798C113.718 25.162 112.692 24.28 111.972 23.152C111.264 22.012 110.91 20.716 110.91 19.264C110.91 17.788 111.276 16.468 112.008 15.304C112.752 14.14 113.772 13.228 115.068 12.568C116.376 11.908 117.87 11.578 119.55 11.578C120.966 11.578 122.22 11.818 123.312 12.298C124.416 12.778 125.292 13.39 125.94 14.134C126.588 14.878 126.942 15.652 127.002 16.456L125.886 16.582L126.48 11.884ZM119.802 23.566C120.846 23.566 121.746 23.398 122.502 23.062C123.258 22.714 123.84 22.216 124.248 21.568C124.656 20.908 124.86 20.116 124.86 19.192C124.86 18.28 124.656 17.5 124.248 16.852C123.84 16.192 123.258 15.688 122.502 15.34C121.746 14.98 120.852 14.8 119.82 14.8C118.824 14.8 117.942 14.986 117.174 15.358C116.418 15.718 115.824 16.228 115.392 16.888C114.96 17.548 114.744 18.334 114.744 19.246C114.744 20.158 114.948 20.938 115.356 21.586C115.764 22.222 116.346 22.714 117.102 23.062C117.858 23.398 118.758 23.566 119.802 23.566ZM132.68 22.036V19.588H145.406V22.036H132.68ZM152.02 22.81V19.768H166.096L165.556 20.668C165.556 20.596 165.556 20.524 165.556 20.452C165.556 20.368 165.556 20.296 165.556 20.236C165.556 19.264 165.346 18.37 164.926 17.554C164.506 16.726 163.876 16.066 163.036 15.574C162.208 15.07 161.17 14.818 159.922 14.818C158.674 14.818 157.576 15.088 156.628 15.628C155.692 16.156 154.96 16.912 154.432 17.896C153.916 18.868 153.658 20.038 153.658 21.406C153.658 22.798 153.91 23.998 154.414 25.006C154.918 26.002 155.644 26.77 156.592 27.31C157.54 27.85 158.674 28.12 159.994 28.12C160.918 28.12 161.716 28.03 162.388 27.85C163.072 27.658 163.63 27.406 164.062 27.094C164.506 26.782 164.842 26.446 165.07 26.086C165.298 25.714 165.43 25.348 165.466 24.988H169.354C169.282 25.768 169.024 26.542 168.58 27.31C168.148 28.066 167.53 28.756 166.726 29.38C165.934 29.992 164.962 30.484 163.81 30.856C162.67 31.216 161.356 31.396 159.868 31.396C157.876 31.396 156.13 30.976 154.63 30.136C153.13 29.296 151.96 28.132 151.12 26.644C150.28 25.144 149.86 23.428 149.86 21.496C149.86 19.528 150.286 17.8 151.138 16.312C151.99 14.824 153.172 13.666 154.684 12.838C156.196 11.998 157.93 11.578 159.886 11.578C161.878 11.578 163.6 11.998 165.052 12.838C166.516 13.678 167.644 14.836 168.436 16.312C169.228 17.788 169.624 19.486 169.624 21.406C169.624 21.634 169.618 21.898 169.606 22.198C169.594 22.498 169.576 22.702 169.552 22.81H152.02ZM181.898 31.378C180.326 31.378 178.88 31 177.56 30.244C176.24 29.476 175.184 28.348 174.392 26.86C173.6 25.372 173.204 23.554 173.204 21.406C173.204 19.306 173.606 17.524 174.41 16.06C175.214 14.596 176.276 13.486 177.596 12.73C178.916 11.962 180.35 11.578 181.898 11.578C183.386 11.578 184.766 11.938 186.038 12.658C187.322 13.378 188.354 14.38 189.134 15.664C189.914 16.936 190.304 18.406 190.304 20.074C190.304 20.122 190.304 20.17 190.304 20.218C190.304 20.254 190.304 20.29 190.304 20.326L188.036 20.398C188.036 20.362 188.036 20.326 188.036 20.29C188.036 20.242 188.036 20.2 188.036 20.164C188.036 19.168 187.784 18.286 187.28 17.518C186.776 16.738 186.11 16.126 185.282 15.682C184.466 15.226 183.596 14.998 182.672 14.998C181.124 14.998 179.828 15.52 178.784 16.564C177.74 17.596 177.218 19.21 177.218 21.406C177.218 23.59 177.74 25.21 178.784 26.266C179.84 27.31 181.136 27.832 182.672 27.832C183.632 27.832 184.52 27.604 185.336 27.148C186.152 26.68 186.806 26.044 187.298 25.24C187.79 24.436 188.036 23.518 188.036 22.486L190.304 22.576C190.304 24.232 189.926 25.726 189.17 27.058C188.426 28.39 187.418 29.446 186.146 30.226C184.886 30.994 183.47 31.378 181.898 31.378ZM188.036 31V2.866H191.96V31H188.036ZM209.516 29.47C210.596 29.566 211.544 29.77 212.36 30.082C213.176 30.382 213.812 30.826 214.268 31.414C214.736 32.014 214.97 32.8 214.97 33.772C214.97 34.864 214.598 35.812 213.854 36.616C213.122 37.432 212.024 38.062 210.56 38.506C209.096 38.962 207.278 39.19 205.106 39.19C201.998 39.19 199.628 38.74 197.996 37.84C196.364 36.94 195.548 35.716 195.548 34.168C195.548 33.7 195.602 33.286 195.71 32.926C195.818 32.566 195.95 32.266 196.106 32.026L199.742 32.566C199.658 32.686 199.574 32.86 199.49 33.088C199.406 33.328 199.364 33.616 199.364 33.952C199.364 34.804 199.886 35.41 200.93 35.77C201.974 36.13 203.42 36.31 205.268 36.31C206.624 36.31 207.746 36.214 208.634 36.022C209.534 35.842 210.206 35.578 210.65 35.23C211.094 34.882 211.316 34.474 211.316 34.006C211.316 33.298 211.01 32.854 210.398 32.674C209.786 32.494 209.048 32.368 208.184 32.296L200.93 31.702C199.67 31.594 198.638 31.216 197.834 30.568C197.042 29.92 196.646 29.104 196.646 28.12C196.646 27.508 196.802 26.938 197.114 26.41C197.426 25.882 197.786 25.438 198.194 25.078C198.614 24.718 198.974 24.496 199.274 24.412L201.83 25.636C201.554 25.672 201.218 25.858 200.822 26.194C200.438 26.518 200.246 26.902 200.246 27.346C200.246 27.754 200.414 28.09 200.75 28.354C201.098 28.618 201.77 28.792 202.766 28.876L209.516 29.47ZM211.91 11.884H215.456L213.998 19.354C213.734 20.746 213.248 22.006 212.54 23.134C211.844 24.25 210.896 25.132 209.696 25.78C208.508 26.428 207.026 26.752 205.25 26.752C203.402 26.752 201.812 26.434 200.48 25.798C199.148 25.162 198.122 24.28 197.402 23.152C196.694 22.012 196.34 20.716 196.34 19.264C196.34 17.788 196.706 16.468 197.438 15.304C198.182 14.14 199.202 13.228 200.498 12.568C201.806 11.908 203.3 11.578 204.98 11.578C206.396 11.578 207.65 11.818 208.742 12.298C209.846 12.778 210.722 13.39 211.37 14.134C212.018 14.878 212.372 15.652 212.432 16.456L211.316 16.582L211.91 11.884ZM205.232 23.566C206.276 23.566 207.176 23.398 207.932 23.062C208.688 22.714 209.27 22.216 209.678 21.568C210.086 20.908 210.29 20.116 210.29 19.192C210.29 18.28 210.086 17.5 209.678 16.852C209.27 16.192 208.688 15.688 207.932 15.34C207.176 14.98 206.282 14.8 205.25 14.8C204.254 14.8 203.372 14.986 202.604 15.358C201.848 15.718 201.254 16.228 200.822 16.888C200.39 17.548 200.174 18.334 200.174 19.246C200.174 20.158 200.378 20.938 200.786 21.586C201.194 22.222 201.776 22.714 202.532 23.062C203.288 23.398 204.188 23.566 205.232 23.566ZM219.696 22.81V19.768H233.772L233.232 20.668C233.232 20.596 233.232 20.524 233.232 20.452C233.232 20.368 233.232 20.296 233.232 20.236C233.232 19.264 233.022 18.37 232.602 17.554C232.182 16.726 231.552 16.066 230.712 15.574C229.884 15.07 228.846 14.818 227.598 14.818C226.35 14.818 225.252 15.088 224.304 15.628C223.368 16.156 222.636 16.912 222.108 17.896C221.592 18.868 221.334 20.038 221.334 21.406C221.334 22.798 221.586 23.998 222.09 25.006C222.594 26.002 223.32 26.77 224.268 27.31C225.216 27.85 226.35 28.12 227.67 28.12C228.594 28.12 229.392 28.03 230.064 27.85C230.748 27.658 231.306 27.406 231.738 27.094C232.182 26.782 232.518 26.446 232.746 26.086C232.974 25.714 233.106 25.348 233.142 24.988H237.03C236.958 25.768 236.7 26.542 236.256 27.31C235.824 28.066 235.206 28.756 234.402 29.38C233.61 29.992 232.638 30.484 231.486 30.856C230.346 31.216 229.032 31.396 227.544 31.396C225.552 31.396 223.806 30.976 222.306 30.136C220.806 29.296 219.636 28.132 218.796 26.644C217.956 25.144 217.536 23.428 217.536 21.496C217.536 19.528 217.962 17.8 218.814 16.312C219.666 14.824 220.848 13.666 222.36 12.838C223.872 11.998 225.606 11.578 227.562 11.578C229.554 11.578 231.276 11.998 232.728 12.838C234.192 13.678 235.32 14.836 236.112 16.312C236.904 17.788 237.3 19.486 237.3 21.406C237.3 21.634 237.294 21.898 237.282 22.198C237.27 22.498 237.252 22.702 237.228 22.81H219.696ZM266.692 11.884L260.5 31H255.316L248.962 11.884H252.994L258.214 29.362H257.602L262.66 11.884H266.692ZM270.184 31V11.884H274.036V31H270.184ZM272.128 7.924C271.456 7.924 270.874 7.744 270.382 7.384C269.902 7.012 269.662 6.502 269.662 5.854C269.662 5.218 269.902 4.72 270.382 4.36C270.874 3.988 271.456 3.802 272.128 3.802C272.788 3.802 273.358 3.988 273.838 4.36C274.33 4.72 274.576 5.218 274.576 5.854C274.576 6.502 274.33 7.012 273.838 7.384C273.358 7.744 272.788 7.924 272.128 7.924ZM287.156 31.378C285.584 31.378 284.138 31 282.818 30.244C281.498 29.476 280.442 28.348 279.65 26.86C278.858 25.372 278.462 23.554 278.462 21.406C278.462 19.306 278.864 17.524 279.668 16.06C280.472 14.596 281.534 13.486 282.854 12.73C284.174 11.962 285.608 11.578 287.156 11.578C288.644 11.578 290.024 11.938 291.296 12.658C292.58 13.378 293.612 14.38 294.392 15.664C295.172 16.936 295.562 18.406 295.562 20.074C295.562 20.122 295.562 20.17 295.562 20.218C295.562 20.254 295.562 20.29 295.562 20.326L293.294 20.398C293.294 20.362 293.294 20.326 293.294 20.29C293.294 20.242 293.294 20.2 293.294 20.164C293.294 19.168 293.042 18.286 292.538 17.518C292.034 16.738 291.368 16.126 290.54 15.682C289.724 15.226 288.854 14.998 287.93 14.998C286.382 14.998 285.086 15.52 284.042 16.564C282.998 17.596 282.476 19.21 282.476 21.406C282.476 23.59 282.998 25.21 284.042 26.266C285.098 27.31 286.394 27.832 287.93 27.832C288.89 27.832 289.778 27.604 290.594 27.148C291.41 26.68 292.064 26.044 292.556 25.24C293.048 24.436 293.294 23.518 293.294 22.486L295.562 22.576C295.562 24.232 295.184 25.726 294.428 27.058C293.684 28.39 292.676 29.446 291.404 30.226C290.144 30.994 288.728 31.378 287.156 31.378ZM293.294 31V2.866H297.218V31H293.294ZM303.614 22.81V19.768H317.69L317.15 20.668C317.15 20.596 317.15 20.524 317.15 20.452C317.15 20.368 317.15 20.296 317.15 20.236C317.15 19.264 316.94 18.37 316.52 17.554C316.1 16.726 315.47 16.066 314.63 15.574C313.802 15.07 312.764 14.818 311.516 14.818C310.268 14.818 309.17 15.088 308.222 15.628C307.286 16.156 306.554 16.912 306.026 17.896C305.51 18.868 305.252 20.038 305.252 21.406C305.252 22.798 305.504 23.998 306.008 25.006C306.512 26.002 307.238 26.77 308.186 27.31C309.134 27.85 310.268 28.12 311.588 28.12C312.512 28.12 313.31 28.03 313.982 27.85C314.666 27.658 315.224 27.406 315.656 27.094C316.1 26.782 316.436 26.446 316.664 26.086C316.892 25.714 317.024 25.348 317.06 24.988H320.948C320.876 25.768 320.618 26.542 320.174 27.31C319.742 28.066 319.124 28.756 318.32 29.38C317.528 29.992 316.556 30.484 315.404 30.856C314.264 31.216 312.95 31.396 311.462 31.396C309.47 31.396 307.724 30.976 306.224 30.136C304.724 29.296 303.554 28.132 302.714 26.644C301.874 25.144 301.454 23.428 301.454 21.496C301.454 19.528 301.88 17.8 302.732 16.312C303.584 14.824 304.766 13.666 306.278 12.838C307.79 11.998 309.524 11.578 311.48 11.578C313.472 11.578 315.194 11.998 316.646 12.838C318.11 13.678 319.238 14.836 320.03 16.312C320.822 17.788 321.218 19.486 321.218 21.406C321.218 21.634 321.212 21.898 321.2 22.198C321.188 22.498 321.17 22.702 321.146 22.81H303.614ZM334.806 31.36C332.838 31.36 331.098 30.934 329.586 30.082C328.086 29.23 326.91 28.06 326.058 26.572C325.218 25.072 324.798 23.356 324.798 21.424C324.798 19.504 325.218 17.806 326.058 16.33C326.91 14.842 328.086 13.684 329.586 12.856C331.098 12.016 332.838 11.596 334.806 11.596C336.774 11.596 338.508 12.016 340.008 12.856C341.52 13.684 342.696 14.842 343.536 16.33C344.388 17.806 344.814 19.504 344.814 21.424C344.814 23.356 344.388 25.072 343.536 26.572C342.696 28.06 341.52 29.23 340.008 30.082C338.508 30.934 336.774 31.36 334.806 31.36ZM334.806 28.012C336.006 28.012 337.062 27.742 337.974 27.202C338.886 26.662 339.6 25.9 340.116 24.916C340.632 23.92 340.89 22.756 340.89 21.424C340.89 20.104 340.632 18.958 340.116 17.986C339.6 17.014 338.886 16.264 337.974 15.736C337.062 15.208 336.006 14.944 334.806 14.944C333.618 14.944 332.562 15.208 331.638 15.736C330.726 16.264 330.012 17.014 329.496 17.986C328.98 18.958 328.722 20.104 328.722 21.424C328.722 22.756 328.98 23.92 329.496 24.916C330.012 25.9 330.726 26.662 331.638 27.202C332.562 27.742 333.618 28.012 334.806 28.012ZM358.161 38.866V11.884H362.067V38.866H358.161ZM368.223 31.378C366.735 31.378 365.355 31.006 364.083 30.262C362.811 29.506 361.779 28.474 360.987 27.166C360.207 25.858 359.817 24.376 359.817 22.72C359.817 22.672 359.817 22.636 359.817 22.612C359.817 22.576 359.817 22.54 359.817 22.504L362.085 22.45C362.085 22.474 362.085 22.504 362.085 22.54C362.085 22.564 362.085 22.594 362.085 22.63C362.085 23.614 362.337 24.502 362.841 25.294C363.357 26.074 364.023 26.692 364.839 27.148C365.655 27.604 366.531 27.832 367.467 27.832C369.003 27.832 370.293 27.31 371.337 26.266C372.393 25.21 372.921 23.59 372.921 21.406C372.921 19.21 372.399 17.596 371.355 16.564C370.311 15.52 369.015 14.998 367.467 14.998C366.531 14.998 365.655 15.226 364.839 15.682C364.023 16.126 363.357 16.738 362.841 17.518C362.337 18.286 362.085 19.168 362.085 20.164L359.817 20.074C359.817 18.406 360.207 16.936 360.987 15.664C361.779 14.38 362.811 13.378 364.083 12.658C365.355 11.938 366.735 11.578 368.223 11.578C369.771 11.578 371.205 11.962 372.525 12.73C373.845 13.486 374.907 14.596 375.711 16.06C376.527 17.524 376.935 19.306 376.935 21.406C376.935 23.554 376.539 25.372 375.747 26.86C374.955 28.348 373.899 29.476 372.579 30.244C371.259 31 369.807 31.378 368.223 31.378ZM381.259 31V11.884H385.165V17.986L384.121 17.518C384.205 16.738 384.403 15.994 384.715 15.286C385.027 14.578 385.441 13.948 385.957 13.396C386.485 12.832 387.133 12.388 387.901 12.064C388.669 11.74 389.557 11.578 390.565 11.578C391.333 11.578 391.951 11.638 392.419 11.758C392.899 11.878 393.193 11.974 393.301 12.046L392.473 15.718C392.353 15.634 392.107 15.526 391.735 15.394C391.375 15.262 390.871 15.196 390.223 15.196C389.239 15.196 388.423 15.37 387.775 15.718C387.127 16.066 386.611 16.528 386.227 17.104C385.843 17.68 385.567 18.31 385.399 18.994C385.243 19.666 385.165 20.344 385.165 21.028V31H381.259ZM405.329 31.36C403.361 31.36 401.621 30.934 400.109 30.082C398.609 29.23 397.433 28.06 396.581 26.572C395.741 25.072 395.321 23.356 395.321 21.424C395.321 19.504 395.741 17.806 396.581 16.33C397.433 14.842 398.609 13.684 400.109 12.856C401.621 12.016 403.361 11.596 405.329 11.596C407.297 11.596 409.031 12.016 410.531 12.856C412.043 13.684 413.219 14.842 414.059 16.33C414.911 17.806 415.337 19.504 415.337 21.424C415.337 23.356 414.911 25.072 414.059 26.572C413.219 28.06 412.043 29.23 410.531 30.082C409.031 30.934 407.297 31.36 405.329 31.36ZM405.329 28.012C406.529 28.012 407.585 27.742 408.497 27.202C409.409 26.662 410.123 25.9 410.639 24.916C411.155 23.92 411.413 22.756 411.413 21.424C411.413 20.104 411.155 18.958 410.639 17.986C410.123 17.014 409.409 16.264 408.497 15.736C407.585 15.208 406.529 14.944 405.329 14.944C404.141 14.944 403.085 15.208 402.161 15.736C401.249 16.264 400.535 17.014 400.019 17.986C399.503 18.958 399.245 20.104 399.245 21.424C399.245 22.756 399.503 23.92 400.019 24.916C400.535 25.9 401.249 26.662 402.161 27.202C403.085 27.742 404.141 28.012 405.329 28.012ZM427.605 31.378C426.033 31.378 424.587 31 423.267 30.244C421.947 29.476 420.891 28.348 420.099 26.86C419.307 25.372 418.911 23.554 418.911 21.406C418.911 19.306 419.313 17.524 420.117 16.06C420.921 14.596 421.983 13.486 423.303 12.73C424.623 11.962 426.057 11.578 427.605 11.578C429.093 11.578 430.473 11.938 431.745 12.658C433.029 13.378 434.061 14.38 434.841 15.664C435.621 16.936 436.011 18.406 436.011 20.074C436.011 20.122 436.011 20.17 436.011 20.218C436.011 20.254 436.011 20.29 436.011 20.326L433.743 20.398C433.743 20.362 433.743 20.326 433.743 20.29C433.743 20.242 433.743 20.2 433.743 20.164C433.743 19.168 433.491 18.286 432.987 17.518C432.483 16.738 431.817 16.126 430.989 15.682C430.173 15.226 429.303 14.998 428.379 14.998C426.831 14.998 425.535 15.52 424.491 16.564C423.447 17.596 422.925 19.21 422.925 21.406C422.925 23.59 423.447 25.21 424.491 26.266C425.547 27.31 426.843 27.832 428.379 27.832C429.339 27.832 430.227 27.604 431.043 27.148C431.859 26.68 432.513 26.044 433.005 25.24C433.497 24.436 433.743 23.518 433.743 22.486L436.011 22.576C436.011 24.232 435.633 25.726 434.877 27.058C434.133 28.39 433.125 29.446 431.853 30.226C430.593 30.994 429.177 31.378 427.605 31.378ZM433.743 31V2.866H437.667V31H433.743ZM449.643 31.342C448.287 31.342 447.159 31.114 446.259 30.658C445.359 30.19 444.645 29.584 444.117 28.84C443.589 28.084 443.217 27.262 443.001 26.374C442.785 25.474 442.677 24.598 442.677 23.746C442.677 23.302 442.677 22.84 442.677 22.36C442.677 21.868 442.677 21.376 442.677 20.884V11.884H446.601V20.326C446.601 20.758 446.601 21.184 446.601 21.604C446.601 22.012 446.601 22.396 446.601 22.756C446.601 23.68 446.721 24.532 446.961 25.312C447.201 26.08 447.621 26.704 448.221 27.184C448.833 27.652 449.685 27.886 450.777 27.886C451.797 27.886 452.685 27.586 453.441 26.986C454.197 26.374 454.785 25.606 455.205 24.682C455.625 23.746 455.835 22.81 455.835 21.874L457.545 22.792C457.545 23.896 457.359 24.958 456.987 25.978C456.627 26.998 456.105 27.916 455.421 28.732C454.737 29.536 453.903 30.172 452.919 30.64C451.947 31.108 450.855 31.342 449.643 31.342ZM455.835 31V11.884H459.741V31H455.835ZM473.955 31.378C472.035 31.378 470.313 30.976 468.789 30.172C467.277 29.356 466.083 28.198 465.207 26.698C464.343 25.198 463.911 23.434 463.911 21.406C463.911 19.378 464.343 17.632 465.207 16.168C466.083 14.692 467.277 13.558 468.789 12.766C470.313 11.974 472.035 11.578 473.955 11.578C475.407 11.578 476.697 11.8 477.825 12.244C478.953 12.676 479.907 13.252 480.687 13.972C481.467 14.692 482.061 15.484 482.469 16.348C482.877 17.212 483.081 18.076 483.081 18.94C483.081 18.952 483.081 18.97 483.081 18.994C483.081 19.018 483.081 19.042 483.081 19.066H479.211C479.211 19.006 479.205 18.94 479.193 18.868C479.181 18.784 479.169 18.706 479.157 18.634C479.061 17.926 478.785 17.296 478.329 16.744C477.873 16.192 477.273 15.754 476.529 15.43C475.785 15.106 474.915 14.944 473.919 14.944C472.827 14.944 471.819 15.184 470.895 15.664C469.983 16.132 469.251 16.846 468.699 17.806C468.147 18.766 467.871 19.966 467.871 21.406C467.871 22.846 468.141 24.058 468.681 25.042C469.233 26.014 469.965 26.752 470.877 27.256C471.801 27.76 472.815 28.012 473.919 28.012C475.107 28.012 476.079 27.832 476.835 27.472C477.591 27.1 478.161 26.608 478.545 25.996C478.929 25.372 479.151 24.7 479.211 23.98H483.081C483.081 24.844 482.883 25.72 482.487 26.608C482.091 27.484 481.509 28.282 480.741 29.002C479.973 29.722 479.019 30.298 477.879 30.73C476.751 31.162 475.443 31.378 473.955 31.378ZM495.251 31.324C494.615 31.324 493.979 31.258 493.343 31.126C492.719 30.994 492.143 30.754 491.615 30.406C491.099 30.046 490.685 29.536 490.373 28.876C490.061 28.216 489.905 27.352 489.905 26.284C489.905 26.032 489.905 25.768 489.905 25.492C489.905 25.216 489.905 24.934 489.905 24.646V15.124H485.315V11.884H487.727C488.243 11.884 488.645 11.866 488.933 11.83C489.233 11.782 489.449 11.68 489.581 11.524C489.725 11.356 489.815 11.092 489.851 10.732C489.887 10.372 489.905 9.88 489.905 9.256V5.566H493.811V11.884H499.661V15.124H493.811V23.602C493.811 23.842 493.811 24.082 493.811 24.322C493.811 24.562 493.811 24.784 493.811 24.988C493.811 25.948 493.925 26.704 494.153 27.256C494.393 27.808 494.933 28.084 495.773 28.084C496.133 28.084 496.475 28.054 496.799 27.994C497.123 27.934 497.369 27.868 497.537 27.796V30.982C497.321 31.066 497.015 31.144 496.619 31.216C496.223 31.288 495.767 31.324 495.251 31.324ZM503.446 31V11.884H507.298V31H503.446ZM505.39 7.924C504.718 7.924 504.136 7.744 503.644 7.384C503.164 7.012 502.924 6.502 502.924 5.854C502.924 5.218 503.164 4.72 503.644 4.36C504.136 3.988 504.718 3.802 505.39 3.802C506.05 3.802 506.62 3.988 507.1 4.36C507.592 4.72 507.838 5.218 507.838 5.854C507.838 6.502 507.592 7.012 507.1 7.384C506.62 7.744 506.05 7.924 505.39 7.924ZM521.731 31.36C519.763 31.36 518.023 30.934 516.511 30.082C515.011 29.23 513.835 28.06 512.983 26.572C512.143 25.072 511.723 23.356 511.723 21.424C511.723 19.504 512.143 17.806 512.983 16.33C513.835 14.842 515.011 13.684 516.511 12.856C518.023 12.016 519.763 11.596 521.731 11.596C523.699 11.596 525.433 12.016 526.933 12.856C528.445 13.684 529.621 14.842 530.461 16.33C531.313 17.806 531.739 19.504 531.739 21.424C531.739 23.356 531.313 25.072 530.461 26.572C529.621 28.06 528.445 29.23 526.933 30.082C525.433 30.934 523.699 31.36 521.731 31.36ZM521.731 28.012C522.931 28.012 523.987 27.742 524.899 27.202C525.811 26.662 526.525 25.9 527.041 24.916C527.557 23.92 527.815 22.756 527.815 21.424C527.815 20.104 527.557 18.958 527.041 17.986C526.525 17.014 525.811 16.264 524.899 15.736C523.987 15.208 522.931 14.944 521.731 14.944C520.543 14.944 519.487 15.208 518.563 15.736C517.651 16.264 516.937 17.014 516.421 17.986C515.905 18.958 515.647 20.104 515.647 21.424C515.647 22.756 515.905 23.92 516.421 24.916C516.937 25.9 517.651 26.662 518.563 27.202C519.487 27.742 520.543 28.012 521.731 28.012ZM549.695 31V22.18C549.695 21.664 549.695 21.226 549.695 20.866C549.695 20.506 549.695 20.17 549.695 19.858C549.695 18.922 549.551 18.1 549.263 17.392C548.975 16.672 548.501 16.114 547.841 15.718C547.181 15.31 546.299 15.106 545.195 15.106C544.223 15.106 543.341 15.346 542.549 15.826C541.769 16.306 541.145 16.96 540.677 17.788C540.221 18.604 539.993 19.534 539.993 20.578L538.319 19.75C538.319 18.202 538.685 16.816 539.417 15.592C540.149 14.356 541.127 13.378 542.351 12.658C543.587 11.938 544.937 11.578 546.401 11.578C547.913 11.578 549.203 11.872 550.271 12.46C551.351 13.036 552.173 13.864 552.737 14.944C553.313 16.012 553.601 17.29 553.601 18.778C553.601 19.33 553.601 19.942 553.601 20.614C553.601 21.286 553.601 21.934 553.601 22.558V31H549.695ZM536.087 31V11.884H539.993V31H536.087Z" fill="#222222"/>
</svg>
