<svg width="412" height="32" viewBox="0 0 412 32" fill="none" xmlns="http://www.w3.org/2000/svg">
<path d="M16.524 16.0745C16.524 16.8755 16.3755 17.699 16.0785 18.545C15.7815 19.382 15.3315 20.1605 14.7285 20.8805C14.1345 21.5915 13.383 22.1675 12.474 22.6085C11.565 23.0495 10.4985 23.27 9.2745 23.27C7.5915 23.27 6.1605 22.8335 4.9815 21.9605C3.8025 21.0785 2.9025 19.868 2.2815 18.329C1.6695 16.79 1.3635 15.0305 1.3635 13.0505C1.3635 11.0615 1.6695 9.302 2.2815 7.772C2.9025 6.233 3.8025 5.027 4.9815 4.154C6.1605 3.281 7.5915 2.8445 9.2745 2.8445C10.6785 2.8445 11.8755 3.1325 12.8655 3.7085C13.8555 4.2845 14.643 5.018 15.228 5.909C15.813 6.8 16.1955 7.718 16.3755 8.663C16.4745 9.14 16.524 9.59 16.524 10.013H14.2155C14.2155 9.77 14.193 9.491 14.148 9.176C14.04 8.42 13.779 7.7225 13.365 7.0835C12.96 6.4355 12.4155 5.918 11.7315 5.531C11.0475 5.135 10.2285 4.937 9.2745 4.937C8.1585 4.937 7.182 5.243 6.345 5.855C5.517 6.467 4.869 7.376 4.401 8.582C3.942 9.788 3.7125 11.2775 3.7125 13.0505C3.7125 14.8235 3.942 16.3175 4.401 17.5325C4.869 18.7385 5.517 19.652 6.345 20.273C7.182 20.885 8.1585 21.191 9.2745 21.191C10.0755 21.191 10.782 21.047 11.394 20.759C12.006 20.462 12.519 20.0705 12.933 19.5845C13.356 19.0895 13.6755 18.5405 13.8915 17.9375C14.1075 17.3255 14.2155 16.7045 14.2155 16.0745H16.524ZM25.2345 23.2565C24.2085 23.2565 23.3535 23.081 22.6695 22.73C21.9855 22.37 21.441 21.9065 21.036 21.3395C20.64 20.7725 20.3565 20.1605 20.1855 19.5035C20.0235 18.8375 19.9425 18.1985 19.9425 17.5865C19.9425 17.2445 19.9425 16.8935 19.9425 16.5335C19.9425 16.1645 19.9425 15.7955 19.9425 15.4265V8.663H22.251V15.1295C22.251 15.4625 22.251 15.791 22.251 16.115C22.251 16.439 22.251 16.745 22.251 17.033C22.251 17.762 22.35 18.437 22.548 19.058C22.755 19.679 23.1105 20.183 23.6145 20.57C24.1185 20.948 24.8115 21.137 25.6935 21.137C26.5215 21.137 27.246 20.8895 27.867 20.3945C28.488 19.8905 28.974 19.265 29.325 18.518C29.676 17.762 29.8515 17.0105 29.8515 16.2635L31.188 16.817C31.188 17.609 31.0485 18.3875 30.7695 19.1525C30.4905 19.9085 30.09 20.597 29.568 21.218C29.055 21.839 28.4295 22.334 27.6915 22.703C26.9625 23.072 26.1435 23.2565 25.2345 23.2565ZM29.8515 23V8.663H32.1465V23H29.8515ZM41.8019 23.216C41.3609 23.216 40.9289 23.1665 40.5059 23.0675C40.0829 22.9685 39.7004 22.793 39.3584 22.541C39.0254 22.28 38.7599 21.9155 38.5619 21.4475C38.3639 20.9705 38.2649 20.3585 38.2649 19.6115C38.2649 19.4225 38.2649 19.229 38.2649 19.031C38.2649 18.824 38.2649 18.608 38.2649 18.383V10.688H34.7684V8.663H37.0094C37.3154 8.663 37.5539 8.654 37.7249 8.636C37.8959 8.609 38.0174 8.5505 38.0894 8.4605C38.1704 8.3615 38.2199 8.213 38.2379 8.015C38.2559 7.808 38.2649 7.5245 38.2649 7.1645V3.911H40.5734V8.663H45.0554V10.688H40.5734V17.6405C40.5734 17.8385 40.5734 18.032 40.5734 18.221C40.5734 18.41 40.5734 18.5855 40.5734 18.7475C40.5734 19.5125 40.6634 20.111 40.8434 20.543C41.0324 20.975 41.4509 21.191 42.0989 21.191C42.3599 21.191 42.6074 21.1685 42.8414 21.1235C43.0754 21.0785 43.2509 21.0335 43.3679 20.9885V22.9865C43.2149 23.0405 42.9989 23.09 42.7199 23.135C42.4499 23.189 42.1439 23.216 41.8019 23.216ZM52.4806 23.216C52.0396 23.216 51.6076 23.1665 51.1846 23.0675C50.7616 22.9685 50.3791 22.793 50.0371 22.541C49.7041 22.28 49.4386 21.9155 49.2406 21.4475C49.0426 20.9705 48.9436 20.3585 48.9436 19.6115C48.9436 19.4225 48.9436 19.229 48.9436 19.031C48.9436 18.824 48.9436 18.608 48.9436 18.383V10.688H45.4471V8.663H47.6881C47.9941 8.663 48.2326 8.654 48.4036 8.636C48.5746 8.609 48.6961 8.5505 48.7681 8.4605C48.8491 8.3615 48.8986 8.213 48.9166 8.015C48.9346 7.808 48.9436 7.5245 48.9436 7.1645V3.911H51.2521V8.663H55.7341V10.688H51.2521V17.6405C51.2521 17.8385 51.2521 18.032 51.2521 18.221C51.2521 18.41 51.2521 18.5855 51.2521 18.7475C51.2521 19.5125 51.3421 20.111 51.5221 20.543C51.7111 20.975 52.1296 21.191 52.7776 21.191C53.0386 21.191 53.2861 21.1685 53.5201 21.1235C53.7541 21.0785 53.9296 21.0335 54.0466 20.9885V22.9865C53.8936 23.0405 53.6776 23.09 53.3986 23.135C53.1286 23.189 52.8226 23.216 52.4806 23.216ZM58.8109 23V8.663H61.0789V23H58.8109ZM59.9584 5.369C59.5354 5.369 59.1664 5.252 58.8514 5.018C58.5454 4.775 58.3924 4.4465 58.3924 4.0325C58.3924 3.6275 58.5454 3.308 58.8514 3.074C59.1664 2.831 59.5354 2.7095 59.9584 2.7095C60.3814 2.7095 60.7459 2.831 61.0519 3.074C61.3579 3.308 61.5109 3.6275 61.5109 4.0325C61.5109 4.4465 61.3579 4.775 61.0519 5.018C60.7459 5.252 60.3814 5.369 59.9584 5.369ZM75.6068 23V16.1285C75.6068 15.7145 75.6068 15.377 75.6068 15.116C75.6068 14.846 75.6068 14.5895 75.6068 14.3465C75.6068 13.5995 75.4808 12.947 75.2288 12.389C74.9768 11.831 74.5808 11.399 74.0408 11.093C73.5008 10.787 72.7943 10.634 71.9213 10.634C71.1563 10.634 70.4453 10.832 69.7883 11.228C69.1403 11.615 68.6183 12.1415 68.2223 12.8075C67.8353 13.4645 67.6418 14.2025 67.6418 15.0215L66.3323 14.522C66.3323 13.397 66.6068 12.3755 67.1558 11.4575C67.7138 10.5395 68.4518 9.8105 69.3698 9.2705C70.2968 8.7215 71.3048 8.447 72.3938 8.447C73.5008 8.447 74.4683 8.6585 75.2963 9.0815C76.1243 9.5045 76.7633 10.112 77.2133 10.904C77.6723 11.687 77.9018 12.632 77.9018 13.739C77.9018 14.135 77.9018 14.567 77.9018 15.035C77.9018 15.503 77.9018 15.9395 77.9018 16.3445V23H75.6068ZM65.3468 23V8.663H67.6418V23H65.3468ZM91.0583 22.1225C91.8323 22.1855 92.5118 22.3295 93.0968 22.5545C93.6908 22.7705 94.1543 23.09 94.4873 23.513C94.8203 23.945 94.9868 24.5075 94.9868 25.2005C94.9868 25.9655 94.7258 26.6405 94.2038 27.2255C93.6818 27.8195 92.8898 28.283 91.8278 28.616C90.7658 28.949 89.4293 29.1155 87.8183 29.1155C85.5413 29.1155 83.8223 28.7825 82.6613 28.1165C81.5003 27.4595 80.9198 26.5595 80.9198 25.4165C80.9198 25.0565 80.9603 24.737 81.0413 24.458C81.1313 24.188 81.2303 23.9675 81.3383 23.7965L83.5253 24.1205C83.4533 24.2195 83.3813 24.368 83.3093 24.566C83.2463 24.773 83.2148 25.0115 83.2148 25.2815C83.2148 26.0015 83.6243 26.5055 84.4433 26.7935C85.2623 27.0905 86.4233 27.239 87.9263 27.239C89.0513 27.239 89.9738 27.1625 90.6938 27.0095C91.4138 26.8565 91.9493 26.636 92.3003 26.348C92.6513 26.06 92.8268 25.7225 92.8268 25.3355C92.8268 24.7505 92.5793 24.386 92.0843 24.242C91.5983 24.107 90.9953 24.0125 90.2753 23.9585L84.8213 23.5535C83.9123 23.4815 83.1698 23.2025 82.5938 22.7165C82.0268 22.2215 81.7433 21.623 81.7433 20.921C81.7433 20.489 81.8468 20.0795 82.0538 19.6925C82.2698 19.3055 82.5173 18.9815 82.7963 18.7205C83.0843 18.4505 83.3408 18.2885 83.5658 18.2345L85.3748 19.058C85.1498 19.094 84.8708 19.2515 84.5378 19.5305C84.2138 19.8005 84.0518 20.12 84.0518 20.489C84.0518 20.822 84.1823 21.0965 84.4433 21.3125C84.7043 21.5195 85.2218 21.6545 85.9958 21.7175L91.0583 22.1225ZM93.0428 8.663H95.2028L94.3118 14.306C94.1498 15.359 93.8123 16.313 93.2993 17.168C92.7863 18.014 92.0843 18.689 91.1933 19.193C90.3113 19.688 89.2178 19.9355 87.9128 19.9355C86.5538 19.9355 85.3928 19.688 84.4298 19.193C83.4668 18.698 82.7288 18.023 82.2158 17.168C81.7028 16.304 81.4463 15.332 81.4463 14.252C81.4463 13.154 81.7118 12.1685 82.2428 11.2955C82.7828 10.4135 83.5298 9.7205 84.4838 9.2165C85.4378 8.7035 86.5313 8.447 87.7643 8.447C88.8713 8.447 89.8388 8.6405 90.6668 9.0275C91.4948 9.4055 92.1473 9.8825 92.6243 10.4585C93.1103 11.0345 93.3803 11.615 93.4343 12.2L92.5703 12.254L93.0428 8.663ZM87.8993 17.8835C88.7723 17.8835 89.5193 17.7395 90.1403 17.4515C90.7703 17.1635 91.2518 16.745 91.5848 16.196C91.9268 15.647 92.0978 14.981 92.0978 14.198C92.0978 13.442 91.9268 12.7895 91.5848 12.2405C91.2518 11.6825 90.7703 11.255 90.1403 10.958C89.5193 10.652 88.7768 10.499 87.9128 10.499C87.0848 10.499 86.3513 10.6565 85.7123 10.9715C85.0823 11.2775 84.5873 11.7095 84.2273 12.2675C83.8763 12.8255 83.7008 13.4825 83.7008 14.2385C83.7008 15.0035 83.8673 15.6605 84.2003 16.2095C84.5423 16.7495 85.0238 17.1635 85.6448 17.4515C86.2748 17.7395 87.0263 17.8835 87.8993 17.8835ZM97.4945 16.088V14.63H106.89V16.088H97.4945ZM111.889 16.7495V14.6975H122.973L122.568 15.3725C122.568 15.3185 122.568 15.269 122.568 15.224C122.568 15.17 122.568 15.1205 122.568 15.0755C122.568 14.2475 122.392 13.4915 122.041 12.8075C121.699 12.1145 121.186 11.561 120.502 11.147C119.818 10.733 118.972 10.526 117.964 10.526C116.947 10.526 116.052 10.742 115.278 11.174C114.504 11.606 113.901 12.218 113.469 13.01C113.037 13.793 112.821 14.729 112.821 15.818C112.821 16.925 113.028 17.879 113.442 18.68C113.865 19.481 114.463 20.0975 115.237 20.5295C116.011 20.9615 116.929 21.1775 117.991 21.1775C118.747 21.1775 119.404 21.101 119.962 20.948C120.52 20.786 120.979 20.5745 121.339 20.3135C121.708 20.0435 121.987 19.751 122.176 19.436C122.365 19.121 122.478 18.806 122.514 18.491H124.809C124.764 19.067 124.584 19.6385 124.269 20.2055C123.954 20.7725 123.508 21.29 122.932 21.758C122.356 22.217 121.65 22.586 120.813 22.865C119.976 23.144 119.013 23.2835 117.924 23.2835C116.484 23.2835 115.215 22.9685 114.117 22.3385C113.019 21.7085 112.155 20.8355 111.525 19.7195C110.904 18.6035 110.593 17.321 110.593 15.872C110.593 14.405 110.908 13.118 111.538 12.011C112.168 10.895 113.037 10.022 114.144 9.392C115.251 8.762 116.515 8.447 117.937 8.447C119.386 8.447 120.642 8.762 121.704 9.392C122.766 10.022 123.585 10.886 124.161 11.984C124.737 13.073 125.025 14.315 125.025 15.71C125.025 15.854 125.02 16.043 125.011 16.277C125.002 16.511 124.989 16.6685 124.971 16.7495H111.889ZM134.515 23.27C133.336 23.27 132.256 22.9865 131.275 22.4195C130.294 21.8435 129.511 21.002 128.926 19.895C128.341 18.779 128.048 17.42 128.048 15.818C128.048 14.243 128.345 12.9065 128.939 11.8085C129.533 10.7105 130.321 9.878 131.302 9.311C132.283 8.735 133.354 8.447 134.515 8.447C135.622 8.447 136.657 8.7125 137.62 9.2435C138.592 9.7655 139.375 10.4945 139.969 11.4305C140.563 12.3665 140.86 13.451 140.86 14.684C140.86 14.711 140.86 14.738 140.86 14.765C140.86 14.792 140.86 14.819 140.86 14.846L139.213 14.9135C139.213 14.8865 139.213 14.8595 139.213 14.8325C139.213 14.7965 139.213 14.765 139.213 14.738C139.213 13.955 139.006 13.2485 138.592 12.6185C138.187 11.9885 137.651 11.489 136.985 11.12C136.319 10.742 135.604 10.553 134.839 10.553C133.561 10.553 132.503 10.985 131.666 11.849C130.829 12.704 130.411 14.027 130.411 15.818C130.411 17.6 130.829 18.9275 131.666 19.8005C132.512 20.6645 133.57 21.0965 134.839 21.0965C135.64 21.0965 136.369 20.903 137.026 20.516C137.692 20.129 138.223 19.6115 138.619 18.9635C139.015 18.3065 139.213 17.573 139.213 16.763L140.86 16.8035C140.86 18.0275 140.576 19.13 140.009 20.111C139.442 21.083 138.677 21.8525 137.714 22.4195C136.76 22.9865 135.694 23.27 134.515 23.27ZM139.213 23V1.8995H141.521V23H139.213ZM154.709 22.1225C155.483 22.1855 156.162 22.3295 156.747 22.5545C157.341 22.7705 157.805 23.09 158.138 23.513C158.471 23.945 158.637 24.5075 158.637 25.2005C158.637 25.9655 158.376 26.6405 157.854 27.2255C157.332 27.8195 156.54 28.283 155.478 28.616C154.416 28.949 153.08 29.1155 151.469 29.1155C149.192 29.1155 147.473 28.7825 146.312 28.1165C145.151 27.4595 144.57 26.5595 144.57 25.4165C144.57 25.0565 144.611 24.737 144.692 24.458C144.782 24.188 144.881 23.9675 144.989 23.7965L147.176 24.1205C147.104 24.2195 147.032 24.368 146.96 24.566C146.897 24.773 146.865 25.0115 146.865 25.2815C146.865 26.0015 147.275 26.5055 148.094 26.7935C148.913 27.0905 150.074 27.239 151.577 27.239C152.702 27.239 153.624 27.1625 154.344 27.0095C155.064 26.8565 155.6 26.636 155.951 26.348C156.302 26.06 156.477 25.7225 156.477 25.3355C156.477 24.7505 156.23 24.386 155.735 24.242C155.249 24.107 154.646 24.0125 153.926 23.9585L148.472 23.5535C147.563 23.4815 146.82 23.2025 146.244 22.7165C145.677 22.2215 145.394 21.623 145.394 20.921C145.394 20.489 145.497 20.0795 145.704 19.6925C145.92 19.3055 146.168 18.9815 146.447 18.7205C146.735 18.4505 146.991 18.2885 147.216 18.2345L149.025 19.058C148.8 19.094 148.521 19.2515 148.188 19.5305C147.864 19.8005 147.702 20.12 147.702 20.489C147.702 20.822 147.833 21.0965 148.094 21.3125C148.355 21.5195 148.872 21.6545 149.646 21.7175L154.709 22.1225ZM156.693 8.663H158.853L157.962 14.306C157.8 15.359 157.463 16.313 156.95 17.168C156.437 18.014 155.735 18.689 154.844 19.193C153.962 19.688 152.868 19.9355 151.563 19.9355C150.204 19.9355 149.043 19.688 148.08 19.193C147.117 18.698 146.379 18.023 145.866 17.168C145.353 16.304 145.097 15.332 145.097 14.252C145.097 13.154 145.362 12.1685 145.893 11.2955C146.433 10.4135 147.18 9.7205 148.134 9.2165C149.088 8.7035 150.182 8.447 151.415 8.447C152.522 8.447 153.489 8.6405 154.317 9.0275C155.145 9.4055 155.798 9.8825 156.275 10.4585C156.761 11.0345 157.031 11.615 157.085 12.2L156.221 12.254L156.693 8.663ZM151.55 17.8835C152.423 17.8835 153.17 17.7395 153.791 17.4515C154.421 17.1635 154.902 16.745 155.235 16.196C155.577 15.647 155.748 14.981 155.748 14.198C155.748 13.442 155.577 12.7895 155.235 12.2405C154.902 11.6825 154.421 11.255 153.791 10.958C153.17 10.652 152.427 10.499 151.563 10.499C150.735 10.499 150.002 10.6565 149.363 10.9715C148.733 11.2775 148.238 11.7095 147.878 12.2675C147.527 12.8255 147.351 13.4825 147.351 14.2385C147.351 15.0035 147.518 15.6605 147.851 16.2095C148.193 16.7495 148.674 17.1635 149.295 17.4515C149.925 17.7395 150.677 17.8835 151.55 17.8835ZM162.066 16.7495V14.6975H173.149L172.744 15.3725C172.744 15.3185 172.744 15.269 172.744 15.224C172.744 15.17 172.744 15.1205 172.744 15.0755C172.744 14.2475 172.569 13.4915 172.218 12.8075C171.876 12.1145 171.363 11.561 170.679 11.147C169.995 10.733 169.149 10.526 168.141 10.526C167.124 10.526 166.228 10.742 165.454 11.174C164.68 11.606 164.077 12.218 163.645 13.01C163.213 13.793 162.997 14.729 162.997 15.818C162.997 16.925 163.204 17.879 163.618 18.68C164.041 19.481 164.64 20.0975 165.414 20.5295C166.188 20.9615 167.106 21.1775 168.168 21.1775C168.924 21.1775 169.581 21.101 170.139 20.948C170.697 20.786 171.156 20.5745 171.516 20.3135C171.885 20.0435 172.164 19.751 172.353 19.436C172.542 19.121 172.654 18.806 172.69 18.491H174.985C174.94 19.067 174.76 19.6385 174.445 20.2055C174.13 20.7725 173.685 21.29 173.109 21.758C172.533 22.217 171.826 22.586 170.989 22.865C170.152 23.144 169.189 23.2835 168.1 23.2835C166.66 23.2835 165.391 22.9685 164.293 22.3385C163.195 21.7085 162.331 20.8355 161.701 19.7195C161.08 18.6035 160.77 17.321 160.77 15.872C160.77 14.405 161.085 13.118 161.715 12.011C162.345 10.895 163.213 10.022 164.32 9.392C165.427 8.762 166.692 8.447 168.114 8.447C169.563 8.447 170.818 8.762 171.88 9.392C172.942 10.022 173.761 10.886 174.337 11.984C174.913 13.073 175.201 14.315 175.201 15.71C175.201 15.854 175.197 16.043 175.188 16.277C175.179 16.511 175.165 16.6685 175.147 16.7495H162.066ZM196.99 8.663L192.184 23H189.173L184.259 8.663H186.635L190.861 21.785H190.496L194.614 8.663H196.99ZM200.007 23V8.663H202.275V23H200.007ZM201.155 5.369C200.732 5.369 200.363 5.252 200.048 5.018C199.742 4.775 199.589 4.4465 199.589 4.0325C199.589 3.6275 199.742 3.308 200.048 3.074C200.363 2.831 200.732 2.7095 201.155 2.7095C201.578 2.7095 201.942 2.831 202.248 3.074C202.554 3.308 202.707 3.6275 202.707 4.0325C202.707 4.4465 202.554 4.775 202.248 5.018C201.942 5.252 201.578 5.369 201.155 5.369ZM212.456 23.27C211.277 23.27 210.197 22.9865 209.216 22.4195C208.235 21.8435 207.452 21.002 206.867 19.895C206.282 18.779 205.99 17.42 205.99 15.818C205.99 14.243 206.287 12.9065 206.881 11.8085C207.475 10.7105 208.262 9.878 209.243 9.311C210.224 8.735 211.295 8.447 212.456 8.447C213.563 8.447 214.598 8.7125 215.561 9.2435C216.533 9.7655 217.316 10.4945 217.91 11.4305C218.504 12.3665 218.801 13.451 218.801 14.684C218.801 14.711 218.801 14.738 218.801 14.765C218.801 14.792 218.801 14.819 218.801 14.846L217.154 14.9135C217.154 14.8865 217.154 14.8595 217.154 14.8325C217.154 14.7965 217.154 14.765 217.154 14.738C217.154 13.955 216.947 13.2485 216.533 12.6185C216.128 11.9885 215.593 11.489 214.927 11.12C214.261 10.742 213.545 10.553 212.78 10.553C211.502 10.553 210.445 10.985 209.608 11.849C208.771 12.704 208.352 14.027 208.352 15.818C208.352 17.6 208.771 18.9275 209.608 19.8005C210.454 20.6645 211.511 21.0965 212.78 21.0965C213.581 21.0965 214.31 20.903 214.967 20.516C215.633 20.129 216.164 19.6115 216.56 18.9635C216.956 18.3065 217.154 17.573 217.154 16.763L218.801 16.8035C218.801 18.0275 218.518 19.13 217.951 20.111C217.384 21.083 216.619 21.8525 215.656 22.4195C214.702 22.9865 213.635 23.27 212.456 23.27ZM217.154 23V1.8995H219.463V23H217.154ZM224.24 16.7495V14.6975H235.323L234.918 15.3725C234.918 15.3185 234.918 15.269 234.918 15.224C234.918 15.17 234.918 15.1205 234.918 15.0755C234.918 14.2475 234.743 13.4915 234.392 12.8075C234.05 12.1145 233.537 11.561 232.853 11.147C232.169 10.733 231.323 10.526 230.315 10.526C229.298 10.526 228.402 10.742 227.628 11.174C226.854 11.606 226.251 12.218 225.819 13.01C225.387 13.793 225.171 14.729 225.171 15.818C225.171 16.925 225.378 17.879 225.792 18.68C226.215 19.481 226.814 20.0975 227.588 20.5295C228.362 20.9615 229.28 21.1775 230.342 21.1775C231.098 21.1775 231.755 21.101 232.313 20.948C232.871 20.786 233.33 20.5745 233.69 20.3135C234.059 20.0435 234.338 19.751 234.527 19.436C234.716 19.121 234.828 18.806 234.864 18.491H237.159C237.114 19.067 236.934 19.6385 236.619 20.2055C236.304 20.7725 235.859 21.29 235.283 21.758C234.707 22.217 234 22.586 233.163 22.865C232.326 23.144 231.363 23.2835 230.274 23.2835C228.834 23.2835 227.565 22.9685 226.467 22.3385C225.369 21.7085 224.505 20.8355 223.875 19.7195C223.254 18.6035 222.944 17.321 222.944 15.872C222.944 14.405 223.259 13.118 223.889 12.011C224.519 10.895 225.387 10.022 226.494 9.392C227.601 8.762 228.866 8.447 230.288 8.447C231.737 8.447 232.992 8.762 234.054 9.392C235.116 10.022 235.935 10.886 236.511 11.984C237.087 13.073 237.375 14.315 237.375 15.71C237.375 15.854 237.371 16.043 237.362 16.277C237.353 16.511 237.339 16.6685 237.321 16.7495H224.24ZM247.743 23.2565C246.303 23.2565 245.029 22.937 243.922 22.298C242.824 21.65 241.96 20.768 241.33 19.652C240.709 18.527 240.399 17.249 240.399 15.818C240.399 14.387 240.709 13.118 241.33 12.011C241.96 10.904 242.824 10.0355 243.922 9.4055C245.029 8.7755 246.303 8.4605 247.743 8.4605C249.183 8.4605 250.452 8.7755 251.55 9.4055C252.657 10.0355 253.521 10.904 254.142 12.011C254.772 13.118 255.087 14.387 255.087 15.818C255.087 17.249 254.772 18.527 254.142 19.652C253.521 20.768 252.657 21.65 251.55 22.298C250.452 22.937 249.183 23.2565 247.743 23.2565ZM247.743 21.1505C248.733 21.1505 249.606 20.93 250.362 20.489C251.118 20.048 251.707 19.427 252.13 18.626C252.562 17.825 252.778 16.889 252.778 15.818C252.778 14.747 252.562 13.82 252.13 13.037C251.707 12.245 251.118 11.6375 250.362 11.2145C249.606 10.7825 248.733 10.5665 247.743 10.5665C246.762 10.5665 245.889 10.7825 245.124 11.2145C244.368 11.6375 243.774 12.245 243.342 13.037C242.919 13.82 242.707 14.747 242.707 15.818C242.707 16.889 242.919 17.825 243.342 18.626C243.774 19.427 244.368 20.048 245.124 20.489C245.889 20.93 246.762 21.1505 247.743 21.1505ZM265.421 28.8995V8.663H267.716V28.8995H265.421ZM272.427 23.27C271.32 23.27 270.285 23 269.322 22.46C268.359 21.911 267.576 21.1595 266.973 20.2055C266.379 19.2515 266.082 18.1625 266.082 16.9385C266.082 16.9115 266.082 16.889 266.082 16.871C266.082 16.853 266.082 16.8305 266.082 16.8035L267.729 16.763C267.729 16.781 267.729 16.8035 267.729 16.8305C267.729 16.8485 267.729 16.8665 267.729 16.8845C267.729 17.6585 267.932 18.365 268.337 19.004C268.751 19.643 269.291 20.1515 269.957 20.5295C270.623 20.9075 271.338 21.0965 272.103 21.0965C273.372 21.0965 274.425 20.6645 275.262 19.8005C276.108 18.9275 276.531 17.6 276.531 15.818C276.531 14.027 276.113 12.704 275.276 11.849C274.439 10.985 273.381 10.553 272.103 10.553C271.338 10.553 270.623 10.742 269.957 11.12C269.291 11.489 268.751 11.9885 268.337 12.6185C267.932 13.2485 267.729 13.955 267.729 14.738L266.082 14.684C266.082 13.451 266.379 12.3665 266.973 11.4305C267.576 10.4945 268.359 9.7655 269.322 9.2435C270.285 8.7125 271.32 8.447 272.427 8.447C273.588 8.447 274.659 8.735 275.64 9.311C276.621 9.878 277.409 10.7105 278.003 11.8085C278.597 12.9065 278.894 14.243 278.894 15.818C278.894 17.42 278.601 18.779 278.016 19.895C277.431 21.002 276.648 21.8435 275.667 22.4195C274.686 22.9865 273.606 23.27 272.427 23.27ZM282.481 23V8.663H284.776V13.064L284.02 12.794C284.074 12.263 284.209 11.741 284.425 11.228C284.641 10.706 284.938 10.238 285.316 9.824C285.703 9.401 286.184 9.068 286.76 8.825C287.336 8.573 288.011 8.447 288.785 8.447C289.361 8.447 289.829 8.4965 290.189 8.5955C290.558 8.6855 290.788 8.7575 290.878 8.8115L290.284 11.066C290.194 11.003 290.009 10.922 289.73 10.823C289.46 10.724 289.073 10.6745 288.569 10.6745C287.822 10.6745 287.201 10.8095 286.706 11.0795C286.22 11.3495 285.833 11.7095 285.545 12.1595C285.266 12.6005 285.068 13.082 284.951 13.604C284.834 14.126 284.776 14.6435 284.776 15.1565V23H282.481ZM299.871 23.2565C298.431 23.2565 297.157 22.937 296.05 22.298C294.952 21.65 294.088 20.768 293.458 19.652C292.837 18.527 292.527 17.249 292.527 15.818C292.527 14.387 292.837 13.118 293.458 12.011C294.088 10.904 294.952 10.0355 296.05 9.4055C297.157 8.7755 298.431 8.4605 299.871 8.4605C301.311 8.4605 302.58 8.7755 303.678 9.4055C304.785 10.0355 305.649 10.904 306.27 12.011C306.9 13.118 307.215 14.387 307.215 15.818C307.215 17.249 306.9 18.527 306.27 19.652C305.649 20.768 304.785 21.65 303.678 22.298C302.58 22.937 301.311 23.2565 299.871 23.2565ZM299.871 21.1505C300.861 21.1505 301.734 20.93 302.49 20.489C303.246 20.048 303.835 19.427 304.258 18.626C304.69 17.825 304.906 16.889 304.906 15.818C304.906 14.747 304.69 13.82 304.258 13.037C303.835 12.245 303.246 11.6375 302.49 11.2145C301.734 10.7825 300.861 10.5665 299.871 10.5665C298.89 10.5665 298.017 10.7825 297.252 11.2145C296.496 11.6375 295.902 12.245 295.47 13.037C295.047 13.82 294.835 14.747 294.835 15.818C294.835 16.889 295.047 17.825 295.47 18.626C295.902 19.427 296.496 20.048 297.252 20.489C298.017 20.93 298.89 21.1505 299.871 21.1505ZM316.712 23.27C315.533 23.27 314.453 22.9865 313.472 22.4195C312.491 21.8435 311.708 21.002 311.123 19.895C310.538 18.779 310.245 17.42 310.245 15.818C310.245 14.243 310.542 12.9065 311.136 11.8085C311.73 10.7105 312.518 9.878 313.499 9.311C314.48 8.735 315.551 8.447 316.712 8.447C317.819 8.447 318.854 8.7125 319.817 9.2435C320.789 9.7655 321.572 10.4945 322.166 11.4305C322.76 12.3665 323.057 13.451 323.057 14.684C323.057 14.711 323.057 14.738 323.057 14.765C323.057 14.792 323.057 14.819 323.057 14.846L321.41 14.9135C321.41 14.8865 321.41 14.8595 321.41 14.8325C321.41 14.7965 321.41 14.765 321.41 14.738C321.41 13.955 321.203 13.2485 320.789 12.6185C320.384 11.9885 319.848 11.489 319.182 11.12C318.516 10.742 317.801 10.553 317.036 10.553C315.758 10.553 314.7 10.985 313.863 11.849C313.026 12.704 312.608 14.027 312.608 15.818C312.608 17.6 313.026 18.9275 313.863 19.8005C314.709 20.6645 315.767 21.0965 317.036 21.0965C317.837 21.0965 318.566 20.903 319.223 20.516C319.889 20.129 320.42 19.6115 320.816 18.9635C321.212 18.3065 321.41 17.573 321.41 16.763L323.057 16.8035C323.057 18.0275 322.773 19.13 322.206 20.111C321.639 21.083 320.874 21.8525 319.911 22.4195C318.957 22.9865 317.891 23.27 316.712 23.27ZM321.41 23V1.8995H323.718V23H321.41ZM333.045 23.2565C332.019 23.2565 331.164 23.081 330.48 22.73C329.796 22.37 329.252 21.9065 328.847 21.3395C328.451 20.7725 328.167 20.1605 327.996 19.5035C327.834 18.8375 327.753 18.1985 327.753 17.5865C327.753 17.2445 327.753 16.8935 327.753 16.5335C327.753 16.1645 327.753 15.7955 327.753 15.4265V8.663H330.062V15.1295C330.062 15.4625 330.062 15.791 330.062 16.115C330.062 16.439 330.062 16.745 330.062 17.033C330.062 17.762 330.161 18.437 330.359 19.058C330.566 19.679 330.921 20.183 331.425 20.57C331.929 20.948 332.622 21.137 333.504 21.137C334.332 21.137 335.057 20.8895 335.678 20.3945C336.299 19.8905 336.785 19.265 337.136 18.518C337.487 17.762 337.662 17.0105 337.662 16.2635L338.999 16.817C338.999 17.609 338.859 18.3875 338.58 19.1525C338.301 19.9085 337.901 20.597 337.379 21.218C336.866 21.839 336.24 22.334 335.502 22.703C334.773 23.072 333.954 23.2565 333.045 23.2565ZM337.662 23V8.663H339.957V23H337.662ZM350.746 23.27C349.378 23.27 348.136 22.973 347.02 22.379C345.904 21.776 345.018 20.9165 344.361 19.8005C343.713 18.6845 343.389 17.357 343.389 15.818C343.389 14.279 343.713 12.9605 344.361 11.8625C345.018 10.7555 345.904 9.9095 347.02 9.3245C348.136 8.7395 349.378 8.447 350.746 8.447C351.79 8.447 352.722 8.609 353.541 8.933C354.36 9.248 355.053 9.671 355.62 10.202C356.187 10.733 356.619 11.318 356.916 11.957C357.222 12.587 357.375 13.217 357.375 13.847C357.375 13.856 357.375 13.8695 357.375 13.8875C357.375 13.9055 357.375 13.9235 357.375 13.9415H355.093C355.093 13.8965 355.089 13.847 355.08 13.793C355.071 13.73 355.062 13.667 355.053 13.604C354.981 13.001 354.751 12.4745 354.364 12.0245C353.977 11.5655 353.473 11.2055 352.852 10.9445C352.231 10.6835 351.525 10.553 350.733 10.553C349.842 10.553 349.014 10.7465 348.249 11.1335C347.493 11.5115 346.881 12.092 346.413 12.875C345.954 13.649 345.724 14.63 345.724 15.818C345.724 16.997 345.954 17.9825 346.413 18.7745C346.872 19.5665 347.479 20.165 348.235 20.57C349 20.966 349.833 21.164 350.733 21.164C351.705 21.164 352.506 21.011 353.136 20.705C353.766 20.399 354.238 19.994 354.553 19.49C354.877 18.977 355.057 18.428 355.093 17.843H357.375C357.375 18.491 357.231 19.139 356.943 19.787C356.655 20.426 356.232 21.011 355.674 21.542C355.116 22.064 354.423 22.4825 353.595 22.7975C352.776 23.1125 351.826 23.27 350.746 23.27ZM366.329 23.216C365.888 23.216 365.456 23.1665 365.033 23.0675C364.61 22.9685 364.228 22.793 363.886 22.541C363.553 22.28 363.287 21.9155 363.089 21.4475C362.891 20.9705 362.792 20.3585 362.792 19.6115C362.792 19.4225 362.792 19.229 362.792 19.031C362.792 18.824 362.792 18.608 362.792 18.383V10.688H359.296V8.663H361.537C361.843 8.663 362.081 8.654 362.252 8.636C362.423 8.609 362.545 8.5505 362.617 8.4605C362.698 8.3615 362.747 8.213 362.765 8.015C362.783 7.808 362.792 7.5245 362.792 7.1645V3.911H365.101V8.663H369.583V10.688H365.101V17.6405C365.101 17.8385 365.101 18.032 365.101 18.221C365.101 18.41 365.101 18.5855 365.101 18.7475C365.101 19.5125 365.191 20.111 365.371 20.543C365.56 20.975 365.978 21.191 366.626 21.191C366.887 21.191 367.135 21.1685 367.369 21.1235C367.603 21.0785 367.778 21.0335 367.895 20.9885V22.9865C367.742 23.0405 367.526 23.09 367.247 23.135C366.977 23.189 366.671 23.216 366.329 23.216ZM372.659 23V8.663H374.927V23H372.659ZM373.807 5.369C373.384 5.369 373.015 5.252 372.7 5.018C372.394 4.775 372.241 4.4465 372.241 4.0325C372.241 3.6275 372.394 3.308 372.7 3.074C373.015 2.831 373.384 2.7095 373.807 2.7095C374.23 2.7095 374.594 2.831 374.9 3.074C375.206 3.308 375.359 3.6275 375.359 4.0325C375.359 4.4465 375.206 4.775 374.9 5.018C374.594 5.252 374.23 5.369 373.807 5.369ZM385.986 23.2565C384.546 23.2565 383.272 22.937 382.165 22.298C381.067 21.65 380.203 20.768 379.573 19.652C378.952 18.527 378.642 17.249 378.642 15.818C378.642 14.387 378.952 13.118 379.573 12.011C380.203 10.904 381.067 10.0355 382.165 9.4055C383.272 8.7755 384.546 8.4605 385.986 8.4605C387.426 8.4605 388.695 8.7755 389.793 9.4055C390.9 10.0355 391.764 10.904 392.385 12.011C393.015 13.118 393.33 14.387 393.33 15.818C393.33 17.249 393.015 18.527 392.385 19.652C391.764 20.768 390.9 21.65 389.793 22.298C388.695 22.937 387.426 23.2565 385.986 23.2565ZM385.986 21.1505C386.976 21.1505 387.849 20.93 388.605 20.489C389.361 20.048 389.95 19.427 390.373 18.626C390.805 17.825 391.021 16.889 391.021 15.818C391.021 14.747 390.805 13.82 390.373 13.037C389.95 12.245 389.361 11.6375 388.605 11.2145C387.849 10.7825 386.976 10.5665 385.986 10.5665C385.005 10.5665 384.132 10.7825 383.367 11.2145C382.611 11.6375 382.017 12.245 381.585 13.037C381.162 13.82 380.95 14.747 380.95 15.818C380.95 16.889 381.162 17.825 381.585 18.626C382.017 19.427 382.611 20.048 383.367 20.489C384.132 20.93 385.005 21.1505 385.986 21.1505ZM407.174 23V16.1285C407.174 15.7145 407.174 15.377 407.174 15.116C407.174 14.846 407.174 14.5895 407.174 14.3465C407.174 13.5995 407.048 12.947 406.796 12.389C406.544 11.831 406.148 11.399 405.608 11.093C405.068 10.787 404.362 10.634 403.489 10.634C402.724 10.634 402.013 10.832 401.356 11.228C400.708 11.615 400.186 12.1415 399.79 12.8075C399.403 13.4645 399.209 14.2025 399.209 15.0215L397.9 14.522C397.9 13.397 398.174 12.3755 398.723 11.4575C399.281 10.5395 400.019 9.8105 400.937 9.2705C401.864 8.7215 402.872 8.447 403.961 8.447C405.068 8.447 406.036 8.6585 406.864 9.0815C407.692 9.5045 408.331 10.112 408.781 10.904C409.24 11.687 409.469 12.632 409.469 13.739C409.469 14.135 409.469 14.567 409.469 15.035C409.469 15.503 409.469 15.9395 409.469 16.3445V23H407.174ZM396.914 23V8.663H399.209V23H396.914Z" fill="#222222"/>
</svg>
