<svg width="955" height="73" viewBox="0 0 955 73" fill="none" xmlns="http://www.w3.org/2000/svg">
<path d="M39.467 36.8045C39.467 38.7158 39.1112 40.6577 38.3995 42.63C37.6878 44.6023 36.6 46.4323 35.136 48.12C33.6923 49.7873 31.8623 51.1293 29.646 52.146C27.4297 53.1627 24.827 53.671 21.838 53.671C17.7917 53.671 14.335 52.6848 11.468 50.7125C8.62133 48.7198 6.44567 45.985 4.941 42.508C3.45667 39.031 2.7145 35.0355 2.7145 30.5215C2.7145 25.9872 3.45667 21.9815 4.941 18.5045C6.44567 15.0275 8.62133 12.3028 11.468 10.3305C14.335 8.35817 17.7917 7.372 21.838 7.372C25.193 7.372 28.06 8.0125 30.439 9.2935C32.818 10.5745 34.7192 12.2215 36.1425 14.2345C37.5658 16.2475 38.5215 18.352 39.0095 20.548C39.3145 21.829 39.467 23.049 39.467 24.208H31.3845C31.3845 23.6183 31.3438 23.0083 31.2625 22.378C31.0388 20.8327 30.5203 19.4297 29.707 18.169C28.914 16.888 27.8567 15.8815 26.535 15.1495C25.2133 14.3972 23.6477 14.021 21.838 14.021C19.6827 14.021 17.7815 14.6208 16.1345 15.8205C14.5078 17.0202 13.2268 18.84 12.2915 21.28C11.3562 23.72 10.8885 26.8005 10.8885 30.5215C10.8885 34.2018 11.3562 37.2722 12.2915 39.7325C13.2268 42.1928 14.5078 44.033 16.1345 45.253C17.7815 46.473 19.6827 47.083 21.838 47.083C23.3833 47.083 24.7457 46.7983 25.925 46.229C27.1043 45.6597 28.1007 44.8972 28.914 43.9415C29.7273 42.9655 30.3373 41.8675 30.744 40.6475C31.171 39.4275 31.3845 38.1465 31.3845 36.8045H39.467ZM57.8528 53.61C55.5551 53.61 53.6438 53.2237 52.1188 52.451C50.6141 51.6783 49.4246 50.6617 48.5503 49.401C47.6963 48.1403 47.0863 46.7475 46.7203 45.2225C46.3746 43.6975 46.2018 42.1725 46.2018 40.6475C46.2018 39.8952 46.2018 39.1123 46.2018 38.299C46.2018 37.4857 46.2018 36.6622 46.2018 35.8285V20.609H54.2538V34.578C54.2538 35.31 54.2538 36.0115 54.2538 36.6825C54.2538 37.3535 54.2538 37.9838 54.2538 38.5735C54.2538 40.0172 54.4266 41.3592 54.7723 42.5995C55.1179 43.8195 55.7483 44.8057 56.6633 45.558C57.5986 46.3103 58.9101 46.6865 60.5978 46.6865C62.2041 46.6865 63.5868 46.2188 64.7458 45.2835C65.9048 44.3278 66.7994 43.1282 67.4298 41.6845C68.0804 40.2408 68.4058 38.7768 68.4058 37.2925L71.1508 39.1225C71.1508 41.0948 70.8458 42.9553 70.2358 44.704C69.6258 46.4323 68.7413 47.9675 67.5823 49.3095C66.4233 50.6515 65.0203 51.7088 63.3733 52.4815C61.7466 53.2338 59.9064 53.61 57.8528 53.61ZM68.4058 53V20.609H76.4273V53H68.4058ZM99.0321 53.61C97.8731 53.61 96.6937 53.4982 95.4941 53.2745C94.2944 53.0508 93.1964 52.634 92.2001 52.024C91.2037 51.414 90.4006 50.5193 89.7906 49.34C89.1806 48.1607 88.8756 46.6052 88.8756 44.6735C88.8756 44.2262 88.8756 43.7788 88.8756 43.3315C88.8756 42.8638 88.8756 42.386 88.8756 41.898V27.014H81.2201V20.609H84.3311C85.3884 20.609 86.2221 20.5683 86.8321 20.487C87.4421 20.3853 87.8894 20.1617 88.1741 19.816C88.4587 19.4703 88.6417 18.9315 88.7231 18.1995C88.8247 17.4472 88.8756 16.4102 88.8756 15.0885V9.934H96.9276V20.609H106.566V27.014H96.9276V40.007C96.9276 40.3933 96.9276 40.7797 96.9276 41.166C96.9276 41.532 96.9276 41.8878 96.9276 42.2335C96.9276 43.7382 97.1106 44.948 97.4766 45.863C97.8426 46.778 98.7067 47.2355 100.069 47.2355C100.72 47.2355 101.33 47.1745 101.899 47.0525C102.489 46.9305 102.926 46.8085 103.211 46.6865V52.9695C102.824 53.1118 102.265 53.2542 101.533 53.3965C100.801 53.5388 99.9674 53.61 99.0321 53.61ZM124.945 53.61C123.786 53.61 122.607 53.4982 121.407 53.2745C120.207 53.0508 119.109 52.634 118.113 52.024C117.117 51.414 116.314 50.5193 115.704 49.34C115.094 48.1607 114.789 46.6052 114.789 44.6735C114.789 44.2262 114.789 43.7788 114.789 43.3315C114.789 42.8638 114.789 42.386 114.789 41.898V27.014H107.133V20.609H110.244C111.301 20.609 112.135 20.5683 112.745 20.487C113.355 20.3853 113.802 20.1617 114.087 19.816C114.372 19.4703 114.555 18.9315 114.636 18.1995C114.738 17.4472 114.789 16.4102 114.789 15.0885V9.934H122.841V20.609H132.479V27.014H122.841V40.007C122.841 40.3933 122.841 40.7797 122.841 41.166C122.841 41.532 122.841 41.8878 122.841 42.2335C122.841 43.7382 123.024 44.948 123.39 45.863C123.756 46.778 124.62 47.2355 125.982 47.2355C126.633 47.2355 127.243 47.1745 127.812 47.0525C128.402 46.9305 128.839 46.8085 129.124 46.6865V52.9695C128.737 53.1118 128.178 53.2542 127.446 53.3965C126.714 53.5388 125.88 53.61 124.945 53.61ZM138.383 53V20.609H146.313V53H138.383ZM142.379 14.631C141.077 14.631 139.939 14.2853 138.963 13.594C138.007 12.8823 137.529 11.8962 137.529 10.6355C137.529 9.39517 138.007 8.42933 138.963 7.738C139.939 7.04666 141.077 6.701 142.379 6.701C143.66 6.701 144.778 7.04666 145.734 7.738C146.689 8.42933 147.167 9.39517 147.167 10.6355C147.167 11.8962 146.689 12.8823 145.734 13.594C144.778 14.2853 143.66 14.631 142.379 14.631ZM177.168 53V38.6345C177.168 37.8212 177.168 37.1095 177.168 36.4995C177.168 35.8692 177.168 35.2998 177.168 34.7915C177.168 33.3275 176.954 32.016 176.527 30.857C176.121 29.6777 175.409 28.7525 174.392 28.0815C173.396 27.4105 172.013 27.075 170.244 27.075C168.699 27.075 167.326 27.4512 166.127 28.2035C164.927 28.9355 163.982 29.9522 163.29 31.2535C162.619 32.5345 162.284 34.0188 162.284 35.7065L159.569 34.029C159.569 31.3247 160.179 28.9253 161.399 26.831C162.64 24.7163 164.297 23.0592 166.371 21.8595C168.445 20.6598 170.742 20.06 173.264 20.06C175.866 20.06 178.052 20.5683 179.821 21.585C181.611 22.6017 182.953 24.0453 183.847 25.916C184.762 27.7867 185.22 29.9827 185.22 32.504C185.22 33.48 185.22 34.578 185.22 35.798C185.22 37.018 185.22 38.2177 185.22 39.397V53H177.168ZM154.262 53V20.609H162.284V53H154.262ZM214.7 49.7975C216.612 49.9805 218.289 50.3363 219.733 50.865C221.177 51.3937 222.305 52.1765 223.118 53.2135C223.932 54.2708 224.338 55.6738 224.338 57.4225C224.338 59.3745 223.678 61.0622 222.356 62.4855C221.034 63.9088 219.092 65.0068 216.53 65.7795C213.989 66.5522 210.857 66.9385 207.136 66.9385C201.728 66.9385 197.57 66.1557 194.662 64.59C191.754 63.0447 190.3 60.9402 190.3 58.2765C190.3 57.5242 190.392 56.843 190.575 56.233C190.758 55.623 190.982 55.1147 191.246 54.708L198.596 55.7755C198.474 55.9382 198.352 56.1923 198.23 56.538C198.108 56.904 198.047 57.3412 198.047 57.8495C198.047 59.1102 198.891 60.015 200.579 60.564C202.287 61.1333 204.554 61.418 207.38 61.418C209.454 61.418 211.183 61.2757 212.565 60.991C213.968 60.7063 215.026 60.2997 215.737 59.771C216.469 59.2423 216.835 58.6222 216.835 57.9105C216.835 56.8532 216.358 56.172 215.402 55.867C214.446 55.562 213.308 55.3587 211.986 55.257L199.694 54.1285C197.498 53.9048 195.689 53.2542 194.265 52.1765C192.862 51.0988 192.161 49.6755 192.161 47.9065C192.161 46.8288 192.446 45.8325 193.015 44.9175C193.605 44.0025 194.276 43.24 195.028 42.63C195.78 41.9997 196.421 41.6133 196.949 41.471L201.524 43.728C201.097 43.789 200.589 44.0635 199.999 44.5515C199.43 45.0395 199.145 45.619 199.145 46.29C199.145 46.9203 199.43 47.449 199.999 47.876C200.569 48.2827 201.667 48.5673 203.293 48.73L214.7 49.7975ZM218.33 20.609H225.528L222.6 33.175C222.051 35.5337 221.166 37.6483 219.946 39.519C218.726 41.3897 217.1 42.8638 215.066 43.9415C213.033 45.0192 210.471 45.558 207.38 45.558C204.168 45.558 201.392 45.0395 199.054 44.0025C196.736 42.9452 194.947 41.471 193.686 39.58C192.425 37.6687 191.795 35.4727 191.795 32.992C191.795 30.4503 192.435 28.2137 193.716 26.282C195.018 24.33 196.797 22.805 199.054 21.707C201.331 20.609 203.903 20.06 206.77 20.06C209.088 20.06 211.173 20.4463 213.023 21.219C214.873 21.9713 216.347 22.9575 217.445 24.1775C218.564 25.3975 219.164 26.6988 219.245 28.0815L217.445 28.417L218.33 20.609ZM207.35 39.3665C208.916 39.3665 210.268 39.1123 211.406 38.604C212.545 38.0957 213.43 37.3637 214.06 36.408C214.69 35.432 215.005 34.2527 215.005 32.87C215.005 31.5077 214.69 30.3385 214.06 29.3625C213.43 28.3865 212.545 27.6443 211.406 27.136C210.268 26.6073 208.926 26.343 207.38 26.343C205.876 26.343 204.544 26.6073 203.385 27.136C202.226 27.6647 201.311 28.4272 200.64 29.4235C199.989 30.3995 199.664 31.5687 199.664 32.931C199.664 34.2933 199.979 35.4625 200.609 36.4385C201.26 37.3942 202.155 38.1262 203.293 38.6345C204.452 39.1225 205.805 39.3665 207.35 39.3665ZM229.343 38.2075V33.236H251.212V38.2075H229.343ZM262.333 39.397V33.6935H284.995L284.08 35.2185C284.08 35.0965 284.08 34.9643 284.08 34.822C284.08 34.6593 284.08 34.5272 284.08 34.4255C284.08 33.0225 283.765 31.711 283.134 30.491C282.504 29.2507 281.548 28.2543 280.267 27.502C278.986 26.7293 277.36 26.343 275.387 26.343C273.435 26.343 271.738 26.7598 270.294 27.5935C268.871 28.4068 267.762 29.5862 266.969 31.1315C266.197 32.6768 265.81 34.5272 265.81 36.6825C265.81 38.8988 266.187 40.8102 266.939 42.4165C267.691 44.0025 268.789 45.2225 270.233 46.0765C271.697 46.9102 273.476 47.327 275.57 47.327C276.994 47.327 278.224 47.1948 279.261 46.9305C280.298 46.6662 281.142 46.3103 281.792 45.863C282.463 45.3953 282.962 44.8972 283.287 44.3685C283.633 43.8398 283.836 43.3112 283.897 42.7825H291.888C291.766 44.1448 291.308 45.4767 290.515 46.778C289.743 48.059 288.655 49.2282 287.252 50.2855C285.849 51.3225 284.141 52.1562 282.128 52.7865C280.135 53.3965 277.858 53.7015 275.296 53.7015C271.819 53.7015 268.779 52.9898 266.176 51.5665C263.574 50.1432 261.54 48.1607 260.076 45.619C258.633 43.0773 257.911 40.1697 257.911 36.896C257.911 33.541 258.643 30.6028 260.107 28.0815C261.591 25.5602 263.645 23.598 266.268 22.195C268.891 20.7717 271.9 20.06 275.296 20.06C278.793 20.06 281.813 20.7717 284.354 22.195C286.916 23.6183 288.889 25.6008 290.271 28.1425C291.654 30.6638 292.345 33.602 292.345 36.957C292.345 37.384 292.335 37.8415 292.315 38.3295C292.295 38.8175 292.264 39.1733 292.223 39.397H262.333ZM312.409 53.671C309.745 53.671 307.275 53.0305 304.998 51.7495C302.741 50.4482 300.931 48.5368 299.569 46.0155C298.206 43.4942 297.525 40.3933 297.525 36.713C297.525 33.1343 298.216 30.1047 299.599 27.624C301.002 25.1433 302.832 23.2625 305.089 21.9815C307.366 20.7005 309.806 20.06 312.409 20.06C314.951 20.06 317.299 20.6903 319.455 21.951C321.61 23.1913 323.338 24.9197 324.64 27.136C325.941 29.3523 326.592 31.894 326.592 34.761C326.592 34.8423 326.592 34.9237 326.592 35.005C326.592 35.0863 326.592 35.1677 326.592 35.249L322.627 35.3405C322.627 35.2795 322.627 35.2185 322.627 35.1575C322.627 35.0762 322.627 35.005 322.627 34.944C322.627 33.3377 322.22 31.9347 321.407 30.735C320.614 29.5353 319.577 28.6 318.296 27.929C317.035 27.2377 315.693 26.892 314.27 26.892C311.931 26.892 309.939 27.685 308.292 29.271C306.645 30.8367 305.821 33.3173 305.821 36.713C305.821 40.0883 306.645 42.5792 308.292 44.1855C309.939 45.7918 311.931 46.595 314.27 46.595C315.754 46.595 317.126 46.2392 318.387 45.5275C319.648 44.8158 320.664 43.8398 321.437 42.5995C322.23 41.3388 322.627 39.8952 322.627 38.2685L326.592 38.4515C326.592 41.2982 325.951 43.8805 324.67 46.1985C323.409 48.4962 321.712 50.316 319.577 51.658C317.442 53 315.052 53.671 312.409 53.671ZM322.627 53V5.3285H330.679V53H322.627ZM360.35 49.7975C362.261 49.9805 363.939 50.3363 365.382 50.865C366.826 51.3937 367.955 52.1765 368.768 53.2135C369.581 54.2708 369.988 55.6738 369.988 57.4225C369.988 59.3745 369.327 61.0622 368.005 62.4855C366.684 63.9088 364.742 65.0068 362.18 65.7795C359.638 66.5522 356.507 66.9385 352.786 66.9385C347.377 66.9385 343.219 66.1557 340.311 64.59C337.404 63.0447 335.95 60.9402 335.95 58.2765C335.95 57.5242 336.041 56.843 336.224 56.233C336.407 55.623 336.631 55.1147 336.895 54.708L344.246 55.7755C344.124 55.9382 344.002 56.1923 343.88 56.538C343.758 56.904 343.697 57.3412 343.697 57.8495C343.697 59.1102 344.541 60.015 346.228 60.564C347.936 61.1333 350.204 61.418 353.03 61.418C355.104 61.418 356.832 61.2757 358.215 60.991C359.618 60.7063 360.675 60.2997 361.387 59.771C362.119 59.2423 362.485 58.6222 362.485 57.9105C362.485 56.8532 362.007 56.172 361.051 55.867C360.096 55.562 358.957 55.3587 357.635 55.257L345.344 54.1285C343.148 53.9048 341.338 53.2542 339.915 52.1765C338.512 51.0988 337.81 49.6755 337.81 47.9065C337.81 46.8288 338.095 45.8325 338.664 44.9175C339.254 44.0025 339.925 43.24 340.677 42.63C341.43 41.9997 342.07 41.6133 342.599 41.471L347.174 43.728C346.747 43.789 346.239 44.0635 345.649 44.5515C345.08 45.0395 344.795 45.619 344.795 46.29C344.795 46.9203 345.08 47.449 345.649 47.876C346.218 48.2827 347.316 48.5673 348.943 48.73L360.35 49.7975ZM363.979 20.609H371.177L368.249 33.175C367.7 35.5337 366.816 37.6483 365.596 39.519C364.376 41.3897 362.749 42.8638 360.716 43.9415C358.683 45.0192 356.121 45.558 353.03 45.558C349.817 45.558 347.042 45.0395 344.703 44.0025C342.385 42.9452 340.596 41.471 339.335 39.58C338.075 37.6687 337.444 35.4727 337.444 32.992C337.444 30.4503 338.085 28.2137 339.366 26.282C340.667 24.33 342.446 22.805 344.703 21.707C346.981 20.609 349.553 20.06 352.42 20.06C354.738 20.06 356.822 20.4463 358.672 21.219C360.523 21.9713 361.997 22.9575 363.095 24.1775C364.213 25.3975 364.813 26.6988 364.894 28.0815L363.095 28.417L363.979 20.609ZM352.999 39.3665C354.565 39.3665 355.917 39.1123 357.056 38.604C358.195 38.0957 359.079 37.3637 359.709 36.408C360.34 35.432 360.655 34.2527 360.655 32.87C360.655 31.5077 360.34 30.3385 359.709 29.3625C359.079 28.3865 358.195 27.6443 357.056 27.136C355.917 26.6073 354.575 26.343 353.03 26.343C351.525 26.343 350.193 26.6073 349.034 27.136C347.875 27.6647 346.96 28.4272 346.289 29.4235C345.639 30.3995 345.313 31.5687 345.313 32.931C345.313 34.2933 345.629 35.4625 346.259 36.4385C346.91 37.3942 347.804 38.1262 348.943 38.6345C350.102 39.1225 351.454 39.3665 352.999 39.3665ZM378.257 39.397V33.6935H400.919L400.004 35.2185C400.004 35.0965 400.004 34.9643 400.004 34.822C400.004 34.6593 400.004 34.5272 400.004 34.4255C400.004 33.0225 399.689 31.711 399.058 30.491C398.428 29.2507 397.472 28.2543 396.191 27.502C394.91 26.7293 393.284 26.343 391.311 26.343C389.359 26.343 387.661 26.7598 386.218 27.5935C384.794 28.4068 383.686 29.5862 382.893 31.1315C382.121 32.6768 381.734 34.5272 381.734 36.6825C381.734 38.8988 382.11 40.8102 382.863 42.4165C383.615 44.0025 384.713 45.2225 386.157 46.0765C387.621 46.9102 389.4 47.327 391.494 47.327C392.918 47.327 394.148 47.1948 395.185 46.9305C396.222 46.6662 397.066 46.3103 397.716 45.863C398.387 45.3953 398.885 44.8972 399.211 44.3685C399.556 43.8398 399.76 43.3112 399.821 42.7825H407.812C407.69 44.1448 407.232 45.4767 406.439 46.778C405.667 48.059 404.579 49.2282 403.176 50.2855C401.773 51.3225 400.065 52.1562 398.052 52.7865C396.059 53.3965 393.782 53.7015 391.22 53.7015C387.743 53.7015 384.703 52.9898 382.1 51.5665C379.498 50.1432 377.464 48.1607 376 45.619C374.557 43.0773 373.835 40.1697 373.835 36.896C373.835 33.541 374.567 30.6028 376.031 28.0815C377.515 25.5602 379.569 23.598 382.192 22.195C384.815 20.7717 387.824 20.06 391.22 20.06C394.717 20.06 397.737 20.7717 400.278 22.195C402.84 23.6183 404.813 25.6008 406.195 28.1425C407.578 30.6638 408.269 33.602 408.269 36.957C408.269 37.384 408.259 37.8415 408.239 38.3295C408.218 38.8175 408.188 39.1733 408.147 39.397H378.257ZM458.558 20.609L448.402 53H437.635L427.235 20.609H435.531L443.674 50.194H442.393L450.262 20.609H458.558ZM463.578 53V20.609H471.508V53H463.578ZM467.573 14.631C466.272 14.631 465.133 14.2853 464.157 13.594C463.201 12.8823 462.724 11.8962 462.724 10.6355C462.724 9.39517 463.201 8.42933 464.157 7.738C465.133 7.04666 466.272 6.701 467.573 6.701C468.854 6.701 469.972 7.04666 470.928 7.738C471.884 8.42933 472.362 9.39517 472.362 10.6355C472.362 11.8962 471.884 12.8823 470.928 13.594C469.972 14.2853 468.854 14.631 467.573 14.631ZM492.907 53.671C490.243 53.671 487.773 53.0305 485.496 51.7495C483.239 50.4482 481.429 48.5368 480.067 46.0155C478.704 43.4942 478.023 40.3933 478.023 36.713C478.023 33.1343 478.714 30.1047 480.097 27.624C481.5 25.1433 483.33 23.2625 485.587 21.9815C487.864 20.7005 490.304 20.06 492.907 20.06C495.449 20.06 497.797 20.6903 499.953 21.951C502.108 23.1913 503.836 24.9197 505.138 27.136C506.439 29.3523 507.09 31.894 507.09 34.761C507.09 34.8423 507.09 34.9237 507.09 35.005C507.09 35.0863 507.09 35.1677 507.09 35.249L503.125 35.3405C503.125 35.2795 503.125 35.2185 503.125 35.1575C503.125 35.0762 503.125 35.005 503.125 34.944C503.125 33.3377 502.718 31.9347 501.905 30.735C501.112 29.5353 500.075 28.6 498.794 27.929C497.533 27.2377 496.191 26.892 494.768 26.892C492.429 26.892 490.437 27.685 488.79 29.271C487.143 30.8367 486.319 33.3173 486.319 36.713C486.319 40.0883 487.143 42.5792 488.79 44.1855C490.437 45.7918 492.429 46.595 494.768 46.595C496.252 46.595 497.624 46.2392 498.885 45.5275C500.146 44.8158 501.162 43.8398 501.935 42.5995C502.728 41.3388 503.125 39.8952 503.125 38.2685L507.09 38.4515C507.09 41.2982 506.449 43.8805 505.168 46.1985C503.907 48.4962 502.21 50.316 500.075 51.658C497.94 53 495.55 53.671 492.907 53.671ZM503.125 53V5.3285H511.177V53H503.125ZM522.06 39.397V33.6935H544.721L543.806 35.2185C543.806 35.0965 543.806 34.9643 543.806 34.822C543.806 34.6593 543.806 34.5272 543.806 34.4255C543.806 33.0225 543.491 31.711 542.861 30.491C542.231 29.2507 541.275 28.2543 539.994 27.502C538.713 26.7293 537.086 26.343 535.114 26.343C533.162 26.343 531.464 26.7598 530.02 27.5935C528.597 28.4068 527.489 29.5862 526.696 31.1315C525.923 32.6768 525.537 34.5272 525.537 36.6825C525.537 38.8988 525.913 40.8102 526.665 42.4165C527.418 44.0025 528.516 45.2225 529.959 46.0765C531.423 46.9102 533.203 47.327 535.297 47.327C536.72 47.327 537.95 47.1948 538.987 46.9305C540.024 46.6662 540.868 46.3103 541.519 45.863C542.19 45.3953 542.688 44.8972 543.013 44.3685C543.359 43.8398 543.562 43.3112 543.623 42.7825H551.614C551.492 44.1448 551.035 45.4767 550.242 46.778C549.469 48.059 548.381 49.2282 546.978 50.2855C545.575 51.3225 543.867 52.1562 541.854 52.7865C539.862 53.3965 537.584 53.7015 535.022 53.7015C531.545 53.7015 528.506 52.9898 525.903 51.5665C523.3 50.1432 521.267 48.1607 519.803 45.619C518.359 43.0773 517.637 40.1697 517.637 36.896C517.637 33.541 518.369 30.6028 519.833 28.0815C521.318 25.5602 523.371 23.598 525.994 22.195C528.617 20.7717 531.627 20.06 535.022 20.06C538.52 20.06 541.539 20.7717 544.081 22.195C546.643 23.6183 548.615 25.6008 549.998 28.1425C551.381 30.6638 552.072 33.602 552.072 36.957C552.072 37.384 552.062 37.8415 552.041 38.3295C552.021 38.8175 551.991 39.1733 551.95 39.397H522.06ZM574.606 53.6405C571.19 53.6405 568.181 52.9288 565.578 51.5055C562.976 50.0618 560.932 48.0692 559.448 45.5275C557.984 42.9858 557.252 40.0782 557.252 36.8045C557.252 33.5105 557.984 30.613 559.448 28.112C560.932 25.5907 562.976 23.6183 565.578 22.195C568.181 20.7717 571.19 20.06 574.606 20.06C578.022 20.06 581.032 20.7717 583.634 22.195C586.237 23.6183 588.27 25.5907 589.734 28.112C591.219 30.613 591.961 33.5105 591.961 36.8045C591.961 40.0782 591.219 42.9858 589.734 45.5275C588.27 48.0692 586.237 50.0618 583.634 51.5055C581.032 52.9288 578.022 53.6405 574.606 53.6405ZM574.606 47.083C576.457 47.083 578.073 46.656 579.456 45.802C580.838 44.948 581.916 43.7585 582.689 42.2335C583.461 40.6882 583.848 38.8785 583.848 36.8045C583.848 34.7305 583.461 32.9412 582.689 31.4365C581.916 29.9115 580.838 28.7322 579.456 27.8985C578.073 27.0648 576.457 26.648 574.606 26.648C572.776 26.648 571.16 27.0648 569.757 27.8985C568.374 28.7322 567.296 29.9115 566.524 31.4365C565.751 32.9412 565.365 34.7305 565.365 36.8045C565.365 38.8785 565.751 40.6882 566.524 42.2335C567.296 43.7585 568.374 44.948 569.757 45.802C571.16 46.656 572.776 47.083 574.606 47.083ZM613.847 66.3285V20.609H621.869V66.3285H613.847ZM632.086 53.671C629.565 53.671 627.227 53.0203 625.071 51.719C622.936 50.3973 621.208 48.5978 619.886 46.3205C618.585 44.0432 617.934 41.4812 617.934 38.6345C617.934 38.5532 617.934 38.482 617.934 38.421C617.934 38.3397 617.934 38.2685 617.934 38.2075L621.899 38.116C621.899 38.1567 621.899 38.2075 621.899 38.2685C621.899 38.3295 621.899 38.3803 621.899 38.421C621.899 40.007 622.296 41.4202 623.089 42.6605C623.882 43.8805 624.909 44.8463 626.169 45.558C627.45 46.2493 628.813 46.595 630.256 46.595C632.595 46.595 634.587 45.7918 636.234 44.1855C637.881 42.5792 638.705 40.0883 638.705 36.713C638.705 33.3173 637.881 30.8367 636.234 29.271C634.608 27.685 632.615 26.892 630.256 26.892C628.833 26.892 627.481 27.2377 626.2 27.929C624.939 28.6 623.902 29.5353 623.089 30.735C622.296 31.9347 621.899 33.3377 621.899 34.944L617.934 34.761C617.934 31.894 618.585 29.3523 619.886 27.136C621.208 24.9197 622.936 23.1913 625.071 21.951C627.227 20.6903 629.565 20.06 632.086 20.06C634.709 20.06 637.149 20.7005 639.406 21.9815C641.684 23.2625 643.514 25.1433 644.896 27.624C646.299 30.1047 647.001 33.1343 647.001 36.713C647.001 40.3933 646.32 43.4942 644.957 46.0155C643.595 48.5368 641.785 50.4482 639.528 51.7495C637.271 53.0305 634.791 53.671 632.086 53.671ZM653.64 53V20.609H661.662V31.3755L659.801 30.3385C660.005 28.9355 660.381 27.6138 660.93 26.3735C661.479 25.1128 662.211 24.0148 663.126 23.0795C664.041 22.1238 665.149 21.3817 666.45 20.853C667.752 20.3243 669.236 20.06 670.903 20.06C672.225 20.06 673.262 20.1617 674.014 20.365C674.787 20.548 675.265 20.7005 675.448 20.8225L673.984 28.173C673.78 28.0307 673.364 27.8578 672.733 27.6545C672.123 27.4308 671.3 27.319 670.263 27.319C668.616 27.319 667.233 27.6037 666.115 28.173C665.017 28.722 664.142 29.4743 663.492 30.43C662.841 31.3653 662.373 32.4023 662.089 33.541C661.804 34.6593 661.662 35.7777 661.662 36.896V53H653.64ZM695.832 53.6405C692.416 53.6405 689.406 52.9288 686.804 51.5055C684.201 50.0618 682.158 48.0692 680.673 45.5275C679.209 42.9858 678.477 40.0782 678.477 36.8045C678.477 33.5105 679.209 30.613 680.673 28.112C682.158 25.5907 684.201 23.6183 686.804 22.195C689.406 20.7717 692.416 20.06 695.832 20.06C699.248 20.06 702.257 20.7717 704.86 22.195C707.462 23.6183 709.496 25.5907 710.96 28.112C712.444 30.613 713.186 33.5105 713.186 36.8045C713.186 40.0782 712.444 42.9858 710.96 45.5275C709.496 48.0692 707.462 50.0618 704.86 51.5055C702.257 52.9288 699.248 53.6405 695.832 53.6405ZM695.832 47.083C697.682 47.083 699.299 46.656 700.681 45.802C702.064 44.948 703.142 43.7585 703.914 42.2335C704.687 40.6882 705.073 38.8785 705.073 36.8045C705.073 34.7305 704.687 32.9412 703.914 31.4365C703.142 29.9115 702.064 28.7322 700.681 27.8985C699.299 27.0648 697.682 26.648 695.832 26.648C694.002 26.648 692.385 27.0648 690.982 27.8985C689.6 28.7322 688.522 29.9115 687.749 31.4365C686.977 32.9412 686.59 34.7305 686.59 36.8045C686.59 38.8785 686.977 40.6882 687.749 42.2335C688.522 43.7585 689.6 44.948 690.982 45.802C692.385 46.656 694.002 47.083 695.832 47.083ZM733.273 53.671C730.61 53.671 728.139 53.0305 725.862 51.7495C723.605 50.4482 721.795 48.5368 720.433 46.0155C719.071 43.4942 718.389 40.3933 718.389 36.713C718.389 33.1343 719.081 30.1047 720.463 27.624C721.866 25.1433 723.696 23.2625 725.953 21.9815C728.231 20.7005 730.671 20.06 733.273 20.06C735.815 20.06 738.164 20.6903 740.319 21.951C742.474 23.1913 744.203 24.9197 745.504 27.136C746.805 29.3523 747.456 31.894 747.456 34.761C747.456 34.8423 747.456 34.9237 747.456 35.005C747.456 35.0863 747.456 35.1677 747.456 35.249L743.491 35.3405C743.491 35.2795 743.491 35.2185 743.491 35.1575C743.491 35.0762 743.491 35.005 743.491 34.944C743.491 33.3377 743.084 31.9347 742.271 30.735C741.478 29.5353 740.441 28.6 739.16 27.929C737.899 27.2377 736.557 26.892 735.134 26.892C732.796 26.892 730.803 27.685 729.156 29.271C727.509 30.8367 726.685 33.3173 726.685 36.713C726.685 40.0883 727.509 42.5792 729.156 44.1855C730.803 45.7918 732.796 46.595 735.134 46.595C736.618 46.595 737.991 46.2392 739.251 45.5275C740.512 44.8158 741.529 43.8398 742.301 42.5995C743.094 41.3388 743.491 39.8952 743.491 38.2685L747.456 38.4515C747.456 41.2982 746.815 43.8805 745.534 46.1985C744.274 48.4962 742.576 50.316 740.441 51.658C738.306 53 735.917 53.671 733.273 53.671ZM743.491 53V5.3285H751.543V53H743.491ZM771.088 53.61C768.79 53.61 766.879 53.2237 765.354 52.451C763.849 51.6783 762.66 50.6617 761.786 49.401C760.932 48.1403 760.322 46.7475 759.956 45.2225C759.61 43.6975 759.437 42.1725 759.437 40.6475C759.437 39.8952 759.437 39.1123 759.437 38.299C759.437 37.4857 759.437 36.6622 759.437 35.8285V20.609H767.489V34.578C767.489 35.31 767.489 36.0115 767.489 36.6825C767.489 37.3535 767.489 37.9838 767.489 38.5735C767.489 40.0172 767.662 41.3592 768.008 42.5995C768.353 43.8195 768.984 44.8057 769.899 45.558C770.834 46.3103 772.145 46.6865 773.833 46.6865C775.439 46.6865 776.822 46.2188 777.981 45.2835C779.14 44.3278 780.035 43.1282 780.665 41.6845C781.316 40.2408 781.641 38.7768 781.641 37.2925L784.386 39.1225C784.386 41.0948 784.081 42.9553 783.471 44.704C782.861 46.4323 781.977 47.9675 780.818 49.3095C779.659 50.6515 778.256 51.7088 776.609 52.4815C774.982 53.2338 773.142 53.61 771.088 53.61ZM781.641 53V20.609H789.663V53H781.641ZM813.396 53.671C809.98 53.671 806.96 52.9695 804.337 51.5665C801.714 50.1635 799.661 48.1912 798.176 45.6495C796.692 43.1078 795.95 40.129 795.95 36.713C795.95 33.3173 796.692 30.369 798.176 27.868C799.661 25.367 801.714 23.4455 804.337 22.1035C806.96 20.7412 809.98 20.06 813.396 20.06C815.958 20.06 818.225 20.4362 820.197 21.1885C822.17 21.9408 823.827 22.9473 825.169 24.208C826.531 25.4483 827.568 26.8208 828.28 28.3255C828.992 29.8098 829.347 31.2942 829.347 32.7785C829.347 32.8192 829.347 32.8598 829.347 32.9005C829.347 32.9412 829.347 32.9818 829.347 33.0225H821.387C821.387 32.9208 821.377 32.809 821.356 32.687C821.336 32.565 821.316 32.443 821.295 32.321C821.133 31.284 820.716 30.3487 820.045 29.515C819.374 28.661 818.479 27.9798 817.361 27.4715C816.243 26.9632 814.89 26.709 813.304 26.709C811.617 26.709 810.071 27.0852 808.668 27.8375C807.286 28.5695 806.178 29.6777 805.344 31.162C804.531 32.6463 804.124 34.4967 804.124 36.713C804.124 38.909 804.531 40.7797 805.344 42.325C806.157 43.85 807.255 45.0192 808.638 45.8325C810.041 46.6255 811.596 47.022 813.304 47.022C815.114 47.022 816.588 46.7475 817.727 46.1985C818.886 45.6292 819.76 44.8768 820.35 43.9415C820.94 42.9858 821.275 41.9488 821.356 40.8305H829.347C829.347 42.3352 829.002 43.85 828.31 45.375C827.619 46.8797 826.602 48.2623 825.26 49.523C823.918 50.7837 822.251 51.7902 820.258 52.5425C818.286 53.2948 815.999 53.671 813.396 53.671ZM850.512 53.61C849.353 53.61 848.173 53.4982 846.974 53.2745C845.774 53.0508 844.676 52.634 843.68 52.024C842.683 51.414 841.88 50.5193 841.27 49.34C840.66 48.1607 840.355 46.6052 840.355 44.6735C840.355 44.2262 840.355 43.7788 840.355 43.3315C840.355 42.8638 840.355 42.386 840.355 41.898V27.014H832.7V20.609H835.811C836.868 20.609 837.702 20.5683 838.312 20.487C838.922 20.3853 839.369 20.1617 839.654 19.816C839.938 19.4703 840.121 18.9315 840.203 18.1995C840.304 17.4472 840.355 16.4102 840.355 15.0885V9.934H848.407V20.609H858.045V27.014H848.407V40.007C848.407 40.3933 848.407 40.7797 848.407 41.166C848.407 41.532 848.407 41.8878 848.407 42.2335C848.407 43.7382 848.59 44.948 848.956 45.863C849.322 46.778 850.186 47.2355 851.549 47.2355C852.199 47.2355 852.809 47.1745 853.379 47.0525C853.968 46.9305 854.405 46.8085 854.69 46.6865V52.9695C854.304 53.1118 853.745 53.2542 853.013 53.3965C852.281 53.5388 851.447 53.61 850.512 53.61ZM863.95 53V20.609H871.88V53H863.95ZM867.945 14.631C866.644 14.631 865.505 14.2853 864.529 13.594C863.574 12.8823 863.096 11.8962 863.096 10.6355C863.096 9.39517 863.574 8.42933 864.529 7.738C865.505 7.04666 866.644 6.701 867.945 6.701C869.226 6.701 870.345 7.04666 871.3 7.738C872.256 8.42933 872.734 9.39517 872.734 10.6355C872.734 11.8962 872.256 12.8823 871.3 13.594C870.345 14.2853 869.226 14.631 867.945 14.631ZM895.75 53.6405C892.334 53.6405 889.324 52.9288 886.722 51.5055C884.119 50.0618 882.076 48.0692 880.591 45.5275C879.127 42.9858 878.395 40.0782 878.395 36.8045C878.395 33.5105 879.127 30.613 880.591 28.112C882.076 25.5907 884.119 23.6183 886.722 22.195C889.324 20.7717 892.334 20.06 895.75 20.06C899.166 20.06 902.175 20.7717 904.778 22.195C907.38 23.6183 909.414 25.5907 910.878 28.112C912.362 30.613 913.104 33.5105 913.104 36.8045C913.104 40.0782 912.362 42.9858 910.878 45.5275C909.414 48.0692 907.38 50.0618 904.778 51.5055C902.175 52.9288 899.166 53.6405 895.75 53.6405ZM895.75 47.083C897.6 47.083 899.217 46.656 900.599 45.802C901.982 44.948 903.06 43.7585 903.832 42.2335C904.605 40.6882 904.991 38.8785 904.991 36.8045C904.991 34.7305 904.605 32.9412 903.832 31.4365C903.06 29.9115 901.982 28.7322 900.599 27.8985C899.217 27.0648 897.6 26.648 895.75 26.648C893.92 26.648 892.303 27.0648 890.9 27.8985C889.518 28.7322 888.44 29.9115 887.667 31.4365C886.895 32.9412 886.508 34.7305 886.508 36.8045C886.508 38.8785 886.895 40.6882 887.667 42.2335C888.44 43.7585 889.518 44.948 890.9 45.802C892.303 46.656 893.92 47.083 895.75 47.083ZM942.646 53V38.6345C942.646 37.8212 942.646 37.1095 942.646 36.4995C942.646 35.8692 942.646 35.2998 942.646 34.7915C942.646 33.3275 942.433 32.016 942.006 30.857C941.599 29.6777 940.888 28.7525 939.871 28.0815C938.875 27.4105 937.492 27.075 935.723 27.075C934.178 27.075 932.805 27.4512 931.605 28.2035C930.406 28.9355 929.46 29.9522 928.769 31.2535C928.098 32.5345 927.762 34.0188 927.762 35.7065L925.048 34.029C925.048 31.3247 925.658 28.9253 926.878 26.831C928.118 24.7163 929.775 23.0592 931.849 21.8595C933.923 20.6598 936.221 20.06 938.742 20.06C941.345 20.06 943.531 20.5683 945.3 21.585C947.089 22.6017 948.431 24.0453 949.326 25.916C950.241 27.7867 950.698 29.9827 950.698 32.504C950.698 33.48 950.698 34.578 950.698 35.798C950.698 37.018 950.698 38.2177 950.698 39.397V53H942.646ZM919.741 53V20.609H927.762V53H919.741Z" fill="#222222"/>
</svg>
